<svg width="57" height="57" viewBox="0 0 57 57" fill="none" xmlns="http://www.w3.org/2000/svg">
<path d="M18.0084 47.61L17.8125 47.7143V47.5448L18.0084 47.61Z" fill="#024959"/>
<path d="M54.2391 16.2092C53.6334 15.9874 52.9031 16.0264 52.3687 16.3268L39.1875 23.57L38.9916 23.6744L18.6141 16.2092C18.3647 16.1178 18.0797 16.0656 17.8125 16.0656H17.7947C17.7056 16.0656 17.6344 16.0656 17.5631 16.0786C17.4741 16.0918 17.4028 16.0918 17.3316 16.1178C17.2425 16.131 17.1712 16.157 17.0822 16.183C17.0109 16.2092 16.9575 16.2352 16.8862 16.2614H16.8684C16.815 16.2876 16.7794 16.3006 16.7437 16.3268L2.49375 24.1573C2.04844 24.4053 1.78125 24.7968 1.78125 25.2015V53.9138C1.78125 54.4097 2.15531 54.8664 2.76094 55.0754C3.01031 55.1796 3.29531 55.2187 3.5625 55.2187C3.93656 55.2187 4.31062 55.1274 4.63125 54.9578L17.8125 47.7143V47.5446L18.0084 47.6098L38.3859 55.075C38.6353 55.1796 38.9203 55.2187 39.1875 55.2187C39.3478 55.2187 39.5081 55.2057 39.6684 55.1665C39.7041 55.1665 39.7219 55.1535 39.7397 55.1535C39.8644 55.1274 39.9891 55.0882 40.0959 55.036C40.1137 55.036 40.1137 55.023 40.1316 55.023C40.185 54.9968 40.2206 54.9838 40.2561 54.9578L54.5061 47.1272C54.9514 46.8793 55.2186 46.4878 55.2186 46.0832V17.3707C55.2187 16.8748 54.8447 16.418 54.2391 16.2092Z" fill="#026773"/>
<path d="M39.1875 23.7528V55.2187C38.9203 55.2187 38.6353 55.1665 38.3859 55.0752L18.0084 47.61L17.8125 47.5448V16.0656C18.0797 16.0656 18.3647 16.1178 18.6141 16.2092L38.9916 23.6744L39.1875 23.7528Z" fill="#3CA6A6"/>
<path d="M39.1875 1.78125C32.3119 1.78125 26.7188 7.28531 26.7188 14.0541C26.7188 20.4309 36.8006 30.4416 37.9406 31.5637C38.2969 31.9022 38.7422 32.0625 39.1875 32.0625C39.6328 32.0625 40.0781 31.9022 40.4344 31.5637C41.5744 30.4416 51.6562 20.4309 51.6562 14.0541C51.6562 7.28531 46.0631 1.78125 39.1875 1.78125Z" fill="#024959"/>
<path d="M42.75 14.0541C42.75 16.0312 41.1469 17.6166 39.1875 17.6166C37.2281 17.6166 35.625 16.0312 35.625 14.0541C35.625 12.0947 37.2281 10.4916 39.1875 10.4916C41.1469 10.4916 42.75 12.0947 42.75 14.0541Z" fill="#3CA6A6"/>
</svg>
