<svg width="55" height="55" viewBox="0 0 55 55" fill="none" xmlns="http://www.w3.org/2000/svg">
<g clip-path="url(#clip0_13_178)">
<path d="M42.0342 48.3261C41.7568 47.5481 41.0202 47.0285 40.1942 47.0285H10.5986C9.65432 47.0285 8.84524 47.7041 8.67672 48.6333L7.79283 53.5098C7.75246 53.7328 7.76079 53.965 7.83857 54.1778C8.02468 54.6869 8.49709 55 9.00635 55H42.6274C42.8798 55 43.1322 54.9361 43.3411 54.7946C43.8315 54.4624 44.0074 53.8646 43.8224 53.3454L42.0342 48.3261Z" fill="#3CA6A6"/>
<path d="M47.0231 20.939L37.4855 6.63243L39.3214 1.66871C39.4831 1.23149 39.3857 0.740376 39.0692 0.398152C38.7525 0.0553735 38.2703 -0.0803678 37.8223 0.0470401L28.8297 2.5902C27.9491 2.57446 24.6491 2.64223 20.9882 4.31928C17.1193 6.0915 12.1028 10.0582 10.1752 18.8897C7.51462 31.0797 10.1043 40.3861 11.7113 44.5507H37.1795L39.4529 42.2774C39.8651 41.865 39.934 41.2213 39.6186 40.7309C37.5221 37.4724 32.5745 29.2662 30.6621 24.1605C31.3627 24.3999 32.1567 24.5543 32.9962 24.5105C34.1897 24.448 35.279 24.0112 36.2464 23.209L39.7381 25.5369C40.8168 26.2562 42.1542 26.4779 43.4075 26.1451C44.6609 25.8123 45.7122 24.9562 46.2922 23.7964L47.1005 22.1799C47.2994 21.7825 47.2698 21.3088 47.0231 20.939ZM33.6329 12.9771H31.9488C31.2645 12.9771 30.7101 12.4225 30.7101 11.7384C30.7101 11.0541 31.2647 10.4997 31.9488 10.4997H33.6329C34.3171 10.4997 34.8716 11.0543 34.8716 11.7384C34.8716 12.4226 34.3171 12.9771 33.6329 12.9771Z" fill="#3CA6A6"/>
</g>
<defs>
<clipPath id="clip0_13_178">
<rect width="55" height="55" fill="white"/>
</clipPath>
</defs>
</svg>
