<svg width="120" height="120" viewBox="0 0 120 120" fill="none" xmlns="http://www.w3.org/2000/svg">
<g clip-path="url(#clip0_219_88)">
<path d="M62.3351 62.5047C67.9361 65.4368 73.5706 68.3087 79.099 71.3719C79.849 71.7875 80.4581 73.1564 80.4711 74.0931C80.579 81.8918 80.5318 89.6926 80.5314 97.4928C80.5314 98.4436 80.5314 99.3944 80.5314 100.463C82.0839 100.463 83.3163 100.463 84.8611 100.463C84.8611 93.9574 84.8586 87.5444 84.8619 81.1314C84.8648 75.6132 86.3346 74.6023 91.5792 76.117C92.8003 76.4696 94.267 75.9097 95.6237 75.8688C97.8294 75.8023 100.117 75.4774 102.205 75.967C103.031 76.1606 103.889 78.2319 103.918 79.4676C104.083 86.3697 103.997 93.2777 103.997 100.595C105.814 100.595 107.431 100.583 109.049 100.598C110.824 100.615 112.195 101.327 112.262 103.241C112.334 105.28 111.009 106.169 109.076 106.237C108.394 106.261 107.711 106.244 107.029 106.244C75.8277 106.244 44.6269 106.244 13.426 106.244C12.841 106.244 12.2556 106.258 11.6711 106.24C9.76492 106.181 8.39064 105.385 8.40837 103.317C8.42509 101.367 9.80268 100.672 11.5547 100.606C12.7168 100.562 13.8819 100.597 15.4687 100.597C15.4687 99.4087 15.4688 98.3796 15.4687 97.3505C15.4667 77.7525 15.4635 58.1544 15.4638 38.5564C15.4639 34.3768 15.9543 33.8957 20.192 33.884C22.3121 33.8781 24.4323 33.883 27.0743 33.883C25.5044 36.4585 24.1413 38.6305 22.8466 40.8427C22.0459 42.2108 21.165 43.7515 22.9212 44.9762C24.7835 46.2749 25.6664 44.6706 26.6563 43.4449C28.8908 40.6777 31.1734 37.9494 33.4364 35.2052C33.7076 35.3172 33.9788 35.4293 34.25 35.5413C34.25 57.0884 34.25 78.6355 34.25 100.387C35.8557 100.387 37.058 100.387 38.5668 100.387C38.5668 99.318 38.5668 98.2698 38.5668 97.2215C38.5667 81.2311 38.5672 65.2406 38.566 49.2502C38.5656 44.4048 38.995 43.9788 43.9531 43.9687C46.8782 43.9627 49.8033 43.9636 52.7283 43.968C57.0889 43.9746 57.659 44.5248 57.6604 48.8046C57.6656 64.8925 57.6628 80.9804 57.663 97.0683C57.663 98.1235 57.663 99.1787 57.663 100.411C58.9147 100.411 59.9349 100.411 61.3614 100.411C61.3614 88.3732 61.3614 76.3272 61.6163 63.9249C62.0259 63.2139 62.1805 62.8593 62.3351 62.5047Z" fill="url(#paint0_linear_219_88)"/>
<path d="M61.9115 34.2362C59.0439 32.085 56.3293 30.0753 53.3924 27.901C54.6017 28.0649 55.8457 28.0257 56.9357 28.4163C62.3011 30.3394 66.4365 34.0511 70.4178 37.957C71.1696 38.6945 71.895 39.459 72.9401 39.8926C69.8426 34.6019 65.4523 30.6389 59.9394 27.8705C54.1105 24.9433 47.9415 24.3779 42.2234 27.4426C36.9599 30.2636 32.2556 34.128 27.5996 37.3301C31.5605 26.3528 47.0127 19.8216 59.0291 24.1955C69.6862 28.0748 77.0134 35.9073 83.8232 44.4216C85.4471 46.4519 86.9184 48.6042 88.8892 51.2841C91.3676 47.0034 93.6619 43.0407 95.9562 39.078C96.2006 39.0905 96.445 39.1029 96.6894 39.1153C95.8977 50.882 95.106 62.6488 94.2836 74.87C82.644 71.2267 72.5107 66.0867 62.6262 60.0303C67.7457 59.2222 72.6477 58.4485 78.0302 57.5989C73.7361 48.5581 68.8004 40.8579 61.9115 34.2362Z" fill="url(#paint1_linear_219_88)"/>
<path d="M62.2444 62.3684C62.1808 62.8594 62.0262 63.2139 61.6973 63.6679C61.733 63.2555 61.9432 62.7438 62.2444 62.3684Z" fill="white"/>
</g>
<defs>
<linearGradient id="paint0_linear_219_88" x1="60.3364" y1="33.8811" x2="60.3364" y2="106.25" gradientUnits="userSpaceOnUse">
<stop offset="0.151042" stop-color="#CAB19D"/>
<stop offset="1" stop-color="#CAB19D" stop-opacity="0.08"/>
</linearGradient>
<linearGradient id="paint1_linear_219_88" x1="62.1445" y1="22.8224" x2="62.1445" y2="74.87" gradientUnits="userSpaceOnUse">
<stop offset="0.151042" stop-color="#CAB19D"/>
<stop offset="1" stop-color="#CAB19D" stop-opacity="0.08"/>
</linearGradient>
<clipPath id="clip0_219_88">
<rect width="110" height="98.2979" fill="white" transform="translate(5 11)"/>
</clipPath>
</defs>
</svg>
