<svg width="120" height="120" viewBox="0 0 120 120" fill="none" xmlns="http://www.w3.org/2000/svg">
<path d="M33.9101 88.0039C30.2745 86.2789 26.9911 84.0785 23.9017 81.581C21.1676 79.3707 18.6897 76.9032 16.5421 74.1135C14.5163 71.4822 12.8618 68.6419 11.7315 65.5094C11.5953 65.1317 11.4666 64.7512 11.3375 64.3809C10.7627 64.3323 10.2146 64.2974 9.66941 64.237C8.84494 64.1456 8.04813 63.9439 7.29492 63.5864C6.45058 63.1856 5.74292 62.6179 5.18625 61.8656C5.12293 61.78 5.07361 61.6841 5 61.5639C5.16808 61.4466 5.31202 61.3404 5.46154 61.2427C7.62793 59.8271 9.71617 58.3049 11.7106 56.6555C14.1341 54.6514 16.3334 52.4205 18.3873 50.0427C20.5353 47.556 22.496 44.9243 24.4137 42.2594C25.1634 41.2177 25.9017 40.1676 26.6599 39.1321C28.1293 37.1251 29.7955 35.2978 31.7493 33.7526C33.1875 32.6153 34.6775 31.5458 36.2262 30.5607C37.6565 29.651 39.1684 28.9194 40.7942 28.4271C41.5172 28.2082 42.252 28.0684 43.0056 28.0239C45.1611 27.8967 47.2403 28.2869 49.2761 28.9577C51.5715 29.7142 53.7031 30.8048 55.7114 32.1428C56.0318 32.3562 56.3473 32.577 56.6683 32.7896C56.9128 32.9514 57.158 33.113 57.4105 33.2619C59.1482 34.2869 60.8866 34.2814 62.6164 33.2454C63.0092 33.0101 63.3901 32.7538 63.7677 32.4944C64.8419 31.7565 65.9487 31.073 67.1095 30.4801C69.0441 29.492 71.0606 28.7316 73.1966 28.3027C74.5355 28.0339 75.8848 27.9432 77.2455 28.0404C77.8685 28.0849 78.4816 28.203 79.0792 28.3853C80.4692 28.8093 81.8004 29.3701 83.048 30.1207C83.3151 30.2813 83.5839 30.4391 83.8466 30.6066C85.3939 31.5936 86.8857 32.6616 88.3187 33.8053C90.2796 35.3703 91.9514 37.2172 93.426 39.2437C94.9795 41.3786 96.5146 43.527 98.0866 45.6481C99.6051 47.697 101.232 49.6592 102.949 51.5461C105.802 54.6803 109.001 57.4159 112.472 59.8385C113.163 60.3211 113.868 60.7854 114.566 61.2578C114.702 61.3497 114.839 61.4402 115 61.5479C114.942 61.6517 114.9 61.7494 114.839 61.8331C114.014 62.9621 112.892 63.6465 111.558 64.0057C110.794 64.2117 110.011 64.2971 109.222 64.3363C109.041 64.3453 108.86 64.353 108.676 64.3614C108.628 64.4858 108.582 64.5851 108.549 64.6883C107.513 67.8952 105.909 70.8045 103.916 73.5079C101.892 76.2524 99.5344 78.6832 96.9391 80.8877C94.5013 82.9585 91.8912 84.7856 89.1363 86.4095C86.6613 87.8684 84.0331 88.9786 81.3078 89.8674C79.356 90.5039 77.382 91.0676 75.366 91.4594C74.4323 91.6409 73.4831 91.7644 72.5351 91.8465C70.4348 92.0284 68.3305 92.1631 66.2285 92.3255C64.4556 92.4625 62.6793 92.5734 60.9129 92.7715C60.0586 92.8673 59.2312 92.7605 58.3936 92.698C57.2603 92.6134 56.129 92.5019 54.9957 92.4169C53.0395 92.2702 51.0816 92.1455 49.1261 91.9909C48.085 91.9087 47.0471 91.7852 46.0082 91.677C44.8196 91.5531 43.6628 91.269 42.5089 90.9728C39.8255 90.284 37.1913 89.4479 34.6497 88.3363C34.4147 88.2335 34.1823 88.1248 33.9101 88.0039ZM33.4447 58.4418C32.6937 58.8671 31.9146 59.2304 31.0975 59.5107C31.0029 59.5431 30.8816 59.5489 30.8729 59.6882C31.8446 59.8624 32.8123 59.78 33.7789 59.6658C34.4885 59.5819 35.1968 59.4866 35.9058 59.398C36.6875 59.3002 37.4738 59.2308 38.2501 59.1012C39.3578 58.9163 40.4664 58.8312 41.5886 58.888C42.9067 58.9547 44.2265 58.9891 45.5443 59.0613C46.7887 59.1296 48.0321 59.22 49.2747 59.3167C50.8278 59.4375 52.3786 59.589 53.9323 59.7009C55.4314 59.8089 56.9347 59.8594 58.4327 59.979C60.0128 60.1051 61.5846 59.9737 63.1578 59.8934C64.4938 59.8253 65.8274 59.7085 67.1616 59.6077C68.2216 59.5275 69.2808 59.4367 70.3407 59.3545C71.6016 59.2568 72.8617 59.1452 74.1241 59.0729C75.5332 58.9923 76.9442 58.9423 78.3548 58.8922C79.3255 58.8577 80.2967 58.8297 81.2574 59.0397C81.5785 59.11 81.9097 59.1359 82.2369 59.1765C83.0552 59.2779 83.8732 59.3811 84.6924 59.4744C85.6207 59.5802 86.5494 59.6846 87.4795 59.7733C88.1231 59.8346 88.656 59.7775 89.1548 59.6275C89.0316 59.5744 88.9363 59.5269 88.8367 59.4912C87.9022 59.156 87.0067 58.7357 86.1642 58.2123C85.4797 57.787 84.7958 57.3559 84.1462 56.8802C82.3124 55.5372 80.4967 54.1696 78.673 52.8129C78.5262 52.7037 78.3827 52.5832 78.2205 52.5027C77.5305 52.1604 76.8282 51.8458 76.0694 51.6837C75.6932 51.6034 75.3151 51.5324 74.9386 51.4538C73.9482 51.2469 72.9464 51.1408 71.9356 51.1529C71.2765 51.1607 70.6165 51.1912 69.9592 51.2421C68.4922 51.3557 67.0492 51.6151 65.665 52.1206C64.7025 52.4722 63.7652 52.8924 62.8139 53.275C62.3215 53.4731 61.8286 53.6725 61.3262 53.8425C60.4477 54.1396 59.5604 54.1309 58.6786 53.8469C58.3651 53.7459 58.0529 53.637 57.7489 53.5107C57.0555 53.2225 56.3656 52.9255 55.6776 52.6245C53.5503 51.6938 51.3116 51.2735 49.0054 51.1587C47.2331 51.0705 45.492 51.2994 43.7734 51.7063C42.8024 51.9363 41.9124 52.3453 41.1129 52.9664C39.8391 53.9559 38.5401 54.9131 37.2454 55.8754C36.039 56.772 34.8284 57.6635 33.4447 58.4418Z" fill="url(#paint0_linear_219_85)"/>
<defs>
<linearGradient id="paint0_linear_219_85" x1="60" y1="28" x2="60" y2="92.8098" gradientUnits="userSpaceOnUse">
<stop offset="0.151042" stop-color="#CAB19D"/>
<stop offset="1" stop-color="#CAB19D" stop-opacity="0.08"/>
</linearGradient>
</defs>
</svg>
