<svg width="120" height="120" viewBox="0 0 120 120" fill="none" xmlns="http://www.w3.org/2000/svg">
<path d="M100.284 100.378C100.096 100.122 99.7439 99.7338 99.7426 99.3445C99.7122 89.8947 99.7195 80.4449 99.7195 70.995C99.7195 54.883 99.7188 38.771 99.7211 22.6589C99.7211 22.2855 99.75 21.912 99.7713 21.5389C99.7737 21.4964 99.8286 21.418 99.835 21.4205C99.9187 21.452 99.998 21.495 100.181 21.4485C100.284 47.6561 100.284 73.9505 100.284 100.378Z" fill="url(#paint0_linear_219_94)"/>
<path d="M28.5102 109.021C28.0238 109.021 27.5374 109.021 26.916 108.925C26.5621 108.61 26.3816 108.312 26.1187 108.188C23.4325 106.92 21.5575 104.969 20.788 102.039C20.7449 101.875 20.4571 101.775 20.2832 101.645C20.2832 101.433 20.2832 101.22 20.4055 100.866C20.5495 100.633 20.5903 100.542 20.5903 100.45C20.5884 74.259 20.5845 48.068 20.5667 21.877C20.5666 21.6106 20.3818 21.3443 20.2832 21.078C20.2832 21.078 20.2832 20.9361 20.3705 20.813C20.5922 20.4029 20.7665 20.1276 20.8547 19.8271C21.8705 16.366 25.2828 13.363 28.6015 13.1575C29.3505 13.1577 29.9642 13.1347 30.578 13.1347C50.8851 13.1343 71.1922 13.1361 91.6106 13.1366C95.4848 13.894 98.2014 15.9097 99.5605 19.597C99.6882 19.9433 100.037 20.208 100.283 20.5106C100.283 20.7234 100.283 20.9361 100.18 21.342C99.997 21.4949 99.9177 21.4519 99.834 21.4204C99.8276 21.418 99.7727 21.4963 99.7703 21.5388C99.749 21.9119 99.7201 22.2854 99.7201 22.6589C99.7178 38.7709 99.7185 54.8829 99.7185 70.9949C99.7185 80.4447 99.7112 89.8946 99.7416 99.3444C99.7429 99.7337 100.095 100.122 100.283 100.511C100.283 100.723 100.283 100.936 100.185 101.277C99.9652 101.586 99.8057 101.752 99.7269 101.951C98.8394 104.185 97.6925 106.218 95.5812 107.551C94.858 108.008 94.1757 108.529 93.4747 109.021C92.8955 109.021 92.3163 109.021 91.5745 108.901C91.2719 108.764 91.132 108.732 90.992 108.732C70.4268 108.729 49.8616 108.727 29.2963 108.739C29.0342 108.74 28.7722 108.923 28.5102 109.021ZM29.213 105.573C29.4004 105.593 29.5878 105.63 29.7753 105.63C49.8183 105.633 69.8613 105.636 89.9044 105.624C90.2301 105.623 90.5557 105.445 91.1162 105.34C93.5415 105.177 95.8294 103.2 96.484 100.677C96.5304 99.9734 96.6171 99.2695 96.6173 98.5656C96.6243 73.503 96.6235 48.4403 96.6216 23.3777C96.6215 22.8117 96.597 22.2457 96.5689 21.4715C95.6404 18.7143 93.9895 16.7869 90.7947 16.2994C90.6548 16.28 90.5148 16.2436 90.3749 16.2436C70.2832 16.2398 50.1914 16.2374 30.0997 16.2494C29.7723 16.2496 29.445 16.4279 28.9169 16.5506C26.5052 17.2064 24.6674 18.4501 23.9965 21.1135C23.8845 21.638 23.6747 22.1624 23.6744 22.687C23.6584 48.2 23.6584 73.7129 23.675 99.2258C23.6753 99.7528 23.8914 100.28 24.1498 100.945C24.7563 103.485 26.7486 105.252 29.213 105.573Z" fill="url(#paint1_linear_219_94)"/>
<path d="M20.2832 21.2109C20.3818 21.3443 20.5666 21.6106 20.5667 21.877C20.5845 48.068 20.5884 74.259 20.5903 100.45C20.5903 100.542 20.5495 100.633 20.4055 100.76C20.2832 74.3108 20.2832 47.8274 20.2832 21.2109Z" fill="url(#paint2_linear_219_94)"/>
<path d="M28.6445 109.021C28.7736 108.923 29.0356 108.74 29.2978 108.739C49.863 108.727 70.4282 108.729 90.9935 108.732C91.1334 108.732 91.2733 108.764 91.4518 108.901C70.586 109.021 49.6818 109.021 28.6445 109.021Z" fill="url(#paint3_linear_219_94)"/>
<path d="M24.1125 21.1204C24.1429 21.6184 23.9822 22.1096 23.9819 22.6008C23.9698 48.0637 23.9716 73.5267 23.9698 98.9896C23.9697 99.5089 23.9453 100.028 23.9694 100.677C23.8911 100.28 23.6749 99.7528 23.6746 99.2258C23.658 73.7129 23.6581 48.2 23.674 22.687C23.6744 22.1625 23.8841 21.638 24.1125 21.1204Z" fill="url(#paint4_linear_219_94)"/>
<path d="M96.3966 100.765C96.3098 99.9742 96.3105 99.0949 96.3105 98.2155C96.3106 73.3502 96.3102 48.485 96.3127 23.6197C96.3128 23.0064 96.3442 22.393 96.4724 21.7297C96.5968 22.2458 96.6213 22.8118 96.6214 23.3778C96.6233 48.4404 96.6241 73.5031 96.6172 98.5657C96.617 99.2696 96.5302 99.9735 96.3966 100.765Z" fill="url(#paint5_linear_219_94)"/>
<path d="M28.6016 13.1575C28.7948 13.046 29.1234 12.8606 29.4521 12.8604C49.9617 12.8469 70.4714 12.8485 90.9811 12.8512C91.1208 12.8512 91.2605 12.8872 91.4498 13.022C71.1923 13.1361 50.8852 13.1343 30.5781 13.1347C29.9643 13.1347 29.3506 13.1577 28.6016 13.1575Z" fill="url(#paint6_linear_219_94)"/>
<path d="M29.166 105.461C49.6193 105.345 70.1206 105.341 90.7522 105.343C90.5568 105.445 90.2312 105.624 89.9055 105.624C69.8625 105.636 49.8194 105.633 29.7764 105.63C29.589 105.63 29.4015 105.593 29.166 105.461Z" fill="white"/>
<path d="M90.8414 16.4128C70.3848 16.5283 49.8815 16.5305 29.248 16.5279C29.4451 16.428 29.7724 16.2497 30.0998 16.2495C50.1915 16.2375 70.2832 16.2399 90.375 16.2437C90.5149 16.2437 90.6548 16.2801 90.8414 16.4128Z" fill="url(#paint7_linear_219_94)"/>
<path d="M28.2227 25.3472C28.5503 22.5644 30.4245 21.2758 33.0288 20.6379C37.9573 20.7541 42.726 20.7706 47.4947 20.7871C49.9971 20.8671 52.4602 23.0073 52.5293 25.5813C52.4064 30.4888 52.3749 35.211 52.3605 39.9333C52.36 40.0836 52.5354 40.2344 52.6288 40.385C52.4515 42.7559 50.3456 44.8285 47.5701 45.0861C42.6137 44.9571 37.8331 44.9328 33.0525 44.9085C31.307 45.2747 29.0636 43.7492 28.5078 41.8069C28.3917 41.4013 28.3186 40.9834 28.2284 40.3274C28.2282 35.1715 28.2254 30.2593 28.2227 25.3472ZM47.6033 23.9955C42.8993 23.9704 38.1953 23.9432 33.4913 23.9315C33.3563 23.9312 33.221 24.0964 32.9078 24.2623C32.5075 24.7075 32.1072 25.1527 31.4627 25.6773C31.4298 30.2819 31.3955 34.8865 31.3747 39.4911C31.3743 39.582 31.5327 39.6735 31.6455 39.9718C32.0351 40.4888 32.4247 41.0058 32.9482 41.718C37.6629 41.7525 42.3776 41.7894 47.0923 41.8088C47.2197 41.8093 47.3478 41.6208 47.6802 41.4917C48.1902 40.9416 48.7003 40.3914 49.3899 39.6726C49.4216 35.2303 49.4561 30.788 49.4735 26.3456C49.4741 26.1896 49.3041 26.033 49.1249 25.7059C48.6663 25.1969 48.2077 24.6879 47.6033 23.9955Z" fill="url(#paint8_linear_219_94)"/>
<path d="M47.519 76.6802C50.0965 77.2374 51.981 78.5643 52.525 81.4506C52.4047 86.3476 52.3778 91.0674 52.3673 95.7874C52.367 95.9418 52.5333 96.0967 52.622 96.2513C52.4384 98.9905 50.0321 101.352 47.4651 101.079C42.5139 101.078 37.7955 101.083 33.0772 101.087C31.2785 101.555 28.5107 99.4949 28.229 96.5032C28.2286 91.3494 28.2237 86.4376 28.2188 81.5258C28.619 78.8264 30.1226 77.1855 33.0105 76.7993C37.8168 76.9165 42.4524 76.9458 47.0881 76.9575C47.2315 76.9578 47.3754 76.7767 47.519 76.6802ZM47.8609 80.173C43.0097 80.1383 38.1586 80.0998 33.3073 80.0833C33.123 80.0827 32.9379 80.2946 32.637 80.5544C32.2969 81.0718 31.9567 81.5892 31.392 82.2025C31.3776 86.6352 31.3589 91.068 31.3607 95.5007C31.3608 95.7447 31.531 95.9886 31.7049 96.4108C32.1651 96.8366 32.6253 97.2623 33.1745 97.9168C37.7742 97.9298 42.3738 97.9468 46.9735 97.9451C47.225 97.945 47.4763 97.7888 47.9124 97.6227C48.3458 97.0804 48.7793 96.538 49.3897 95.8291C49.4207 91.3858 49.4545 86.9426 49.471 82.4993C49.4716 82.3435 49.3005 82.1871 49.1853 81.8425C48.8079 81.3298 48.4305 80.8171 47.8609 80.173Z" fill="url(#paint9_linear_219_94)"/>
<path d="M28.2207 53.4384C28.5778 50.8449 30.204 49.397 32.7301 48.7195C37.8635 48.8412 42.8386 48.8619 47.8137 48.8827C50.0101 48.9131 51.8587 50.5675 52.5257 53.3621C52.4018 58.3686 52.3719 63.199 52.359 68.0293C52.3586 68.1775 52.5358 68.3262 52.6301 68.4746C52.4583 70.7628 50.6561 72.6338 47.8462 73.1618C42.7124 73.0316 37.7403 73.0126 32.7682 72.9935C31.1447 73.1495 29.3236 71.86 28.5916 70.0035C28.4229 69.5756 28.3451 69.1117 28.2287 68.4224C28.2281 63.2664 28.2244 58.3524 28.2207 53.4384ZM31.6464 68.0601C32.0389 68.5774 32.4313 69.0948 32.9571 69.8064C37.7686 69.8332 42.5802 69.8624 47.3917 69.874C47.5286 69.8744 47.666 69.6877 47.9761 69.5052C48.3882 68.9754 48.8003 68.4456 49.3902 67.7485C49.4215 63.3074 49.4555 58.8664 49.4724 54.4254C49.473 54.2695 49.303 54.1129 49.1869 53.7628C48.7806 53.3417 48.3742 52.9206 47.9061 52.2933C47.5321 52.1808 47.1586 51.9725 46.784 51.9705C42.5015 51.9474 38.2188 51.9478 33.9363 51.9693C33.5481 51.9712 33.1608 52.1625 32.6642 52.4261C32.3149 52.9589 31.9655 53.4917 31.3935 54.1228C31.3788 58.5113 31.3608 62.8998 31.3607 67.2884C31.3607 67.4749 31.5273 67.6615 31.6464 68.0601Z" fill="url(#paint10_linear_219_94)"/>
<path d="M89.1881 34.1168C89.7489 34.5894 90.8254 35.1528 90.7615 35.5153C90.6342 36.2374 89.8803 36.849 89.2358 37.3999C78.2592 37.2795 67.432 37.2654 56.6048 37.2513C55.4626 36.4409 55.4135 35.6423 56.6419 34.1854C67.6393 34.1365 78.4137 34.1267 89.1881 34.1168Z" fill="url(#paint11_linear_219_94)"/>
<path d="M56.5058 93.4035C55.4839 92.3692 55.4362 91.5835 56.5464 90.3752C67.5744 90.3112 78.381 90.2995 89.1877 90.2878C89.7154 90.6587 90.5876 90.9583 90.6827 91.4185C90.7987 91.9799 90.2617 92.6762 89.7991 93.3005C88.9803 93.3166 88.3696 93.3716 87.7589 93.3724C77.3412 93.3868 66.9235 93.3944 56.5058 93.4035Z" fill="url(#paint12_linear_219_94)"/>
<path d="M89.1883 68.7277C89.7491 69.19 90.6262 69.5724 90.7696 70.1401C90.8824 70.5868 90.0901 71.2622 89.4674 71.832C78.4393 71.8355 67.6437 71.8428 56.8481 71.8502C55.4897 71.0676 55.3308 70.1955 56.5242 68.8168C67.5575 68.7468 78.3729 68.7372 89.1883 68.7277Z" fill="url(#paint13_linear_219_94)"/>
<path d="M89.5424 40.6618C91.2864 41.6724 91.3365 42.6211 89.4736 43.7409C78.3551 43.745 67.4684 43.7571 56.5818 43.7692C55.37 42.9023 55.392 41.7856 56.8793 40.6687C67.9248 40.6553 78.7336 40.6586 89.5424 40.6618Z" fill="url(#paint14_linear_219_94)"/>
<path d="M89.5343 62.2201C91.2867 63.2275 91.3382 64.1887 89.4676 65.3067C78.3541 65.309 67.4729 65.3157 56.5917 65.3224C55.3377 64.4408 55.5673 63.4213 56.5311 62.2959C67.6756 62.2322 78.6049 62.2262 89.5343 62.2201Z" fill="url(#paint15_linear_219_94)"/>
<path d="M89.5252 96.8276C91.2395 97.6255 91.3079 98.7811 89.5468 99.837C88.964 99.7188 88.5429 99.6651 88.1217 99.6648C77.4999 99.6569 66.8781 99.6546 56.2563 99.6513C55.4279 98.8151 55.571 97.9499 56.3711 96.9883C57.033 96.877 57.5032 96.8232 57.9734 96.8231C68.4907 96.821 79.0079 96.8249 89.5252 96.8276Z" fill="url(#paint16_linear_219_94)"/>
<path d="M56.5975 58.8088C55.3591 57.9341 55.3881 56.7809 56.912 55.7014C64.9945 55.6866 72.8403 55.6834 80.6861 55.6802C82.5379 56.3253 82.7634 57.4326 81.0922 58.7698C72.7779 58.7805 64.6877 58.7947 56.5975 58.8088Z" fill="url(#paint17_linear_219_94)"/>
<path d="M56.8825 30.7245C55.4441 30.0749 55.3142 29.2442 56.6318 27.6738C64.8063 27.6309 72.7593 27.6174 80.7122 27.6039C81.2489 28.14 82.1879 28.6598 82.2104 29.2166C82.2334 29.7864 81.3582 30.3925 80.7284 30.8752C72.6813 30.7534 64.7819 30.739 56.8825 30.7245Z" fill="url(#paint18_linear_219_94)"/>
<path d="M81.035 83.7828C82.6302 84.8533 82.6748 85.8578 80.9476 86.8795C72.6801 86.8838 64.6372 86.886 56.5943 86.8882C55.3432 86.0111 55.5704 84.9905 56.5163 83.8592C64.8293 83.7929 72.9322 83.7879 81.035 83.7828Z" fill="url(#paint19_linear_219_94)"/>
<path d="M56.5742 93.5128C66.9226 93.3944 77.3403 93.3867 87.758 93.3724C88.3687 93.3715 88.9794 93.3166 89.7153 93.3471C89.5135 93.5046 89.1866 93.686 88.8595 93.6865C78.3054 93.7017 67.7512 93.6998 57.1971 93.6965C57.0126 93.6965 56.828 93.648 56.5742 93.5128Z" fill="url(#paint20_linear_219_94)"/>
<path d="M56.3496 99.7318C66.8766 99.6546 77.4984 99.6568 88.1202 99.6647C88.5413 99.6651 88.9624 99.7188 89.4543 99.8483C78.9611 99.9469 68.3972 99.9466 57.8334 99.9374C57.3703 99.9371 56.9074 99.8559 56.3496 99.7318Z" fill="url(#paint21_linear_219_94)"/>
<path d="M89.4616 96.7211C79.0079 96.8248 68.4906 96.821 57.9734 96.8231C57.5031 96.8232 57.0329 96.877 56.4277 96.9054C56.496 96.7717 56.6993 96.5219 56.9025 96.522C67.689 96.5271 78.4754 96.5532 89.2618 96.5787C89.3072 96.5789 89.3527 96.6021 89.4616 96.7211Z" fill="url(#paint22_linear_219_94)"/>
<path d="M56.6348 65.4417C67.4737 65.3157 78.3549 65.309 89.3679 65.3185C89.1784 65.4312 88.8572 65.6117 88.5357 65.6121C78.1026 65.6271 67.6694 65.625 57.2363 65.6222C57.0498 65.6221 56.8634 65.5823 56.6348 65.4417Z" fill="url(#paint23_linear_219_94)"/>
<path d="M89.4781 62.1064C78.6042 62.2261 67.6748 62.2322 56.6016 62.2314C56.7997 62.1246 57.1416 61.9376 57.4839 61.9372C67.9915 61.9223 78.4992 61.9254 89.0069 61.929C89.1455 61.9291 89.2841 61.9706 89.4781 62.1064Z" fill="url(#paint24_linear_219_94)"/>
<path d="M56.6289 43.8868C67.469 43.7571 78.3556 43.745 89.3741 43.7527C89.3235 43.8669 89.1412 44.044 88.9588 44.0439C78.1977 44.04 67.4366 44.0215 56.6289 43.8868Z" fill="url(#paint25_linear_219_94)"/>
<path d="M56.9023 71.9649C67.6438 71.8429 78.4395 71.8355 89.3669 71.8438C89.2246 71.9536 88.9506 72.1297 88.6762 72.1301C78.2423 72.1436 67.8084 72.1413 57.3744 72.1381C57.2351 72.138 57.0958 72.0999 56.9023 71.9649Z" fill="url(#paint26_linear_219_94)"/>
<path d="M89.1408 34.0036C78.4136 34.1267 67.6392 34.1365 56.7324 34.1362C56.7811 34.0309 56.9621 33.8522 57.143 33.8523C67.7932 33.8556 78.4434 33.8737 89.1408 34.0036Z" fill="url(#paint27_linear_219_94)"/>
<path d="M89.133 90.1794C78.3802 90.2996 67.5735 90.3113 56.625 90.3174C56.8232 90.2123 57.1632 90.0264 57.5034 90.0259C67.8886 90.0119 78.2739 90.0159 88.6592 90.0198C88.7992 90.0198 88.9392 90.0531 89.133 90.1794Z" fill="url(#paint28_linear_219_94)"/>
<path d="M89.1352 68.6189C78.3732 68.7373 67.5578 68.7468 56.5977 68.7528C56.7014 68.6489 56.9498 68.4609 57.1982 68.4611C67.8261 68.4669 78.4539 68.4895 89.1352 68.6189Z" fill="url(#paint29_linear_219_94)"/>
<path d="M56.6523 37.3669C67.433 37.2654 78.2601 37.2795 89.135 37.4059C78.3548 37.5063 67.5268 37.4943 56.6523 37.3669Z" fill="url(#paint30_linear_219_94)"/>
<path d="M89.4827 40.55C78.7333 40.6586 67.9245 40.6554 56.9805 40.6566C57.1776 40.5657 57.5099 40.3873 57.8425 40.3868C68.2302 40.3725 78.618 40.3754 89.0057 40.3786C89.145 40.3786 89.2842 40.4174 89.4827 40.55Z" fill="url(#paint31_linear_219_94)"/>
<path d="M56.6465 58.9234C64.6872 58.7947 72.7774 58.7805 81.0102 58.7839C80.9113 58.899 80.6699 59.0821 80.4285 59.082C72.5177 59.0782 64.6069 59.0568 56.6465 58.9234Z" fill="url(#paint32_linear_219_94)"/>
<path d="M56.6348 87.0075C64.636 86.886 72.6789 86.8838 80.8542 86.8885C80.8078 86.9895 80.6289 87.166 80.4501 87.1659C72.5255 87.1626 64.6009 87.1437 56.6348 87.0075Z" fill="url(#paint33_linear_219_94)"/>
<path d="M80.983 83.6661C72.9326 83.7879 64.8297 83.7929 56.582 83.7899C56.6854 83.6794 56.9337 83.487 57.1818 83.4873C65.0981 83.4965 73.0143 83.5243 80.983 83.6661Z" fill="url(#paint34_linear_219_94)"/>
<path d="M80.6598 27.4914C72.7605 27.6174 64.8076 27.6309 56.7227 27.6244C56.7743 27.5081 56.9581 27.3275 57.1418 27.3276C64.9632 27.3347 72.7847 27.3578 80.6598 27.4914Z" fill="url(#paint35_linear_219_94)"/>
<path d="M80.6393 55.5659C72.8399 55.6834 64.9942 55.6866 57.0156 55.6884C57.1152 55.5929 57.3475 55.4166 57.5797 55.4166C65.2508 55.4179 72.9218 55.436 80.6393 55.5659Z" fill="url(#paint36_linear_219_94)"/>
<path d="M28.1143 81.5482C28.2244 86.4376 28.2293 91.3494 28.2284 96.3932C28.1296 96.111 27.958 95.6973 27.9559 95.2827C27.9354 91.3473 27.9409 87.4117 27.9467 83.4762C27.9477 82.841 27.9873 82.2058 28.1143 81.5482Z" fill="url(#paint37_linear_219_94)"/>
<path d="M28.1064 53.484C28.2252 58.3523 28.2289 63.2663 28.2288 68.3126C28.0692 68.3034 27.7758 68.1604 27.7773 68.0207C27.8314 63.1902 27.9134 58.3599 28.1064 53.484Z" fill="url(#paint38_linear_219_94)"/>
<path d="M52.639 68.3401C52.5361 68.3262 52.359 68.1775 52.3594 68.0293C52.3722 63.199 52.4021 58.3686 52.5302 53.4673C52.6364 58.3327 52.642 63.2691 52.639 68.3401Z" fill="url(#paint39_linear_219_94)"/>
<path d="M28.1071 25.3927C28.2256 30.2593 28.2284 35.1715 28.2255 40.215C28.127 40.1652 27.9531 39.984 27.9531 39.8028C27.9549 35.0146 27.9747 30.2264 28.1071 25.3927Z" fill="url(#paint40_linear_219_94)"/>
<path d="M32.8262 73.1028C37.7411 73.0125 42.7132 73.0316 47.7379 73.1616C42.8215 73.2524 37.8524 73.2323 32.8262 73.1028Z" fill="url(#paint41_linear_219_94)"/>
<path d="M47.7566 48.7719C42.8382 48.8619 37.8631 48.8412 32.834 48.7105C37.7533 48.6208 42.7266 48.6409 47.7566 48.7719Z" fill="url(#paint42_linear_219_94)"/>
<path d="M52.6261 96.1189C52.5332 96.0967 52.3668 95.9419 52.3672 95.7874C52.3777 91.0675 52.4046 86.3476 52.5287 81.5563C52.6291 86.3186 52.6297 91.1525 52.6261 96.1189Z" fill="url(#paint43_linear_219_94)"/>
<path d="M52.6372 40.2508C52.5363 40.2344 52.3609 40.0836 52.3613 39.9333C52.3758 35.211 52.4073 30.4888 52.5304 25.6925C52.6313 30.4512 52.638 35.2839 52.6372 40.2508Z" fill="url(#paint44_linear_219_94)"/>
<path d="M47.4445 20.6759C42.7269 20.7707 37.9582 20.7542 33.1348 20.6295C37.8511 20.5358 42.6222 20.5502 47.4445 20.6759Z" fill="url(#paint45_linear_219_94)"/>
<path d="M33.1309 101.197C37.7968 101.083 42.5151 101.078 47.3649 101.079C47.3093 101.179 47.1222 101.355 46.9353 101.354C42.3513 101.35 37.7673 101.327 33.1309 101.197Z" fill="url(#paint46_linear_219_94)"/>
<path d="M33.1152 45.0141C37.8339 44.9328 42.6145 44.9571 47.4579 45.0868C42.7395 45.168 37.9584 45.1439 33.1152 45.0141Z" fill="url(#paint47_linear_219_94)"/>
<path d="M47.3881 76.6695C47.3772 76.7768 47.2333 76.9579 47.0898 76.9575C42.4542 76.9458 37.8186 76.9166 33.1191 76.7862C37.7886 76.6745 42.522 76.6667 47.3881 76.6695Z" fill="url(#paint48_linear_219_94)"/>
<path d="M47.6766 24.0872C42.9488 24.1843 38.1481 24.1897 33.2168 24.1898C33.2214 24.0964 33.3568 23.9312 33.4917 23.9315C38.1957 23.9432 42.8997 23.9705 47.6766 24.0872Z" fill="white"/>
<path d="M32.8809 41.6204C37.6143 41.5178 42.4146 41.5129 47.345 41.5142C47.3474 41.6209 47.2193 41.8094 47.0919 41.8088C42.3772 41.7894 37.6625 41.7526 32.8809 41.6204Z" fill="white"/>
<path d="M31.585 25.6376C31.6814 30.2332 31.6557 34.8685 31.6237 39.6343C31.533 39.6735 31.3746 39.582 31.375 39.4911C31.3958 34.8864 31.4301 30.2818 31.585 25.6376Z" fill="white"/>
<path d="M49.2993 39.757C49.2108 35.2768 49.2122 30.7123 49.2131 26.0122C49.3032 26.033 49.4732 26.1897 49.4726 26.3457C49.4553 30.788 49.4208 35.2303 49.2993 39.757Z" fill="white"/>
<path d="M47.957 80.2387C43.0395 80.3151 38.026 80.3258 32.8828 80.372C32.9379 80.2946 33.123 80.0826 33.3073 80.0833C38.1586 80.0998 43.0098 80.1382 47.957 80.2387Z" fill="url(#paint49_linear_219_94)"/>
<path d="M33.1309 97.8024C37.8816 97.6926 42.6768 97.6971 47.6003 97.7034C47.4772 97.7888 47.2258 97.945 46.9744 97.9451C42.3747 97.9468 37.775 97.9298 33.1309 97.8024Z" fill="url(#paint50_linear_219_94)"/>
<path d="M31.5051 82.1545C31.6161 86.7277 31.6148 91.3487 31.6181 96.1012C31.5317 95.9886 31.3615 95.7447 31.3614 95.5007C31.3597 91.068 31.3784 86.6352 31.5051 82.1545Z" fill="url(#paint51_linear_219_94)"/>
<path d="M49.3018 95.9124C49.2128 91.4322 49.2123 86.8688 49.2109 82.1682C49.3011 82.1871 49.4722 82.3435 49.4716 82.4992C49.4551 86.9425 49.4213 91.3858 49.3018 95.9124Z" fill="url(#paint52_linear_219_94)"/>
<path d="M47.9376 52.3964C47.5279 52.4281 47.0875 52.2969 46.6465 52.2946C42.1107 52.2708 37.5747 52.2678 32.9062 52.2624C33.1614 52.1624 33.5487 51.9712 33.9369 51.9692C38.2194 51.9478 42.5021 51.9474 46.7846 51.9704C47.1592 51.9724 47.5327 52.1807 47.9376 52.3964Z" fill="url(#paint53_linear_219_94)"/>
<path d="M32.8906 69.7093C37.7284 69.6078 42.6329 69.6034 47.6704 69.5936C47.6662 69.6877 47.5289 69.8744 47.392 69.8741C42.5804 69.8624 37.7688 69.8332 32.8906 69.7093Z" fill="url(#paint54_linear_219_94)"/>
<path d="M49.3012 67.832C49.2127 63.3533 49.2131 58.791 49.2129 54.0927C49.3028 54.1128 49.4729 54.2694 49.4723 54.4253C49.4554 58.8664 49.4214 63.3074 49.3012 67.832Z" fill="url(#paint55_linear_219_94)"/>
<path d="M31.5055 54.0736C31.6212 58.5454 31.6255 63.0664 31.6233 67.7177C31.5279 67.6615 31.3613 67.4749 31.3613 67.2884C31.3614 62.8998 31.3794 58.5113 31.5055 54.0736Z" fill="url(#paint56_linear_219_94)"/>
<path d="M44.3755 26.3727C45.4987 25.6671 46.4947 25.793 47.2012 26.7446C47.9096 27.6988 47.324 28.5195 46.6139 29.2302C45.7464 30.0984 44.946 31.0504 43.9938 31.8129C42.8815 32.7038 43.1401 33.3685 44.0375 34.1822C44.9805 35.0374 45.8355 35.9887 46.7511 36.8751C47.6374 37.7333 47.7312 38.758 46.9494 39.5847C46.1659 40.413 45.0989 40.1119 44.3289 39.4249C43.0083 38.2467 41.7845 36.9602 40.4175 35.6185C40.2046 35.7788 39.8952 35.9641 39.6439 36.2092C38.664 37.1649 37.6944 38.1317 36.7366 39.1097C35.9518 39.911 35.115 40.4871 34.0197 39.6925C33.3491 39.206 33.4071 37.4414 34.1725 36.5834C35.0512 35.5986 36.0166 34.6903 36.9569 33.7616C37.5304 33.1953 37.8618 32.7582 36.969 32.0796C35.9714 31.3211 35.1444 30.3402 34.2284 29.4716C33.5496 28.828 33.2952 26.897 33.9181 26.3317C34.8768 25.4615 35.7623 25.9526 36.5327 26.6759C37.4615 27.5479 38.3988 28.422 39.2297 29.3839C40.0316 30.3122 40.6307 30.1986 41.3945 29.3465C42.3067 28.3288 43.3222 27.4037 44.3755 26.3727Z" fill="url(#paint57_linear_219_94)"/>
<path d="M35.2182 96.1447C34.6217 95.8899 33.7136 95.6107 33.7102 95.321C33.6994 94.396 33.7859 93.306 34.2772 92.5785C34.9732 91.5481 36.0445 90.7628 36.9915 89.913C37.67 89.3041 37.6976 88.7889 37.0141 88.1545C36.0796 87.2872 35.1427 86.4083 34.3267 85.434C33.9461 84.9796 33.6748 84.2903 33.6719 83.7059C33.6693 83.1945 34.0254 82.3342 34.3771 82.2467C34.9511 82.1039 35.8049 82.2744 36.2662 82.6499C37.3963 83.5699 38.3792 84.6731 39.4023 85.7212C39.998 86.3315 40.4261 86.5185 41.0883 85.6786C41.8963 84.6537 42.8954 83.7692 43.8741 82.8936C44.2776 82.5327 44.8662 82.1069 45.3297 82.15C45.9921 82.2116 46.8062 82.5177 47.2159 83.005C47.9278 83.8515 47.2824 84.7015 46.671 85.3326C45.4917 86.5499 44.2276 87.6851 42.806 89.0376C44.2705 90.5304 45.6173 91.8279 46.8604 93.2181C47.2169 93.6168 47.5514 94.3868 47.3973 94.8011C47.2063 95.3147 46.5278 95.9068 46.0027 95.967C45.4153 96.0344 44.6321 95.6899 44.1658 95.2683C42.9147 94.1374 41.7872 92.8695 40.3468 91.3839C39.0753 92.764 37.9927 94.0009 36.8348 95.1628C36.4245 95.5744 35.8307 95.8032 35.2182 96.1447Z" fill="url(#paint58_linear_219_94)"/>
<path d="M37.5273 55.7436C38.1663 56.3826 38.793 56.9036 39.2876 57.529C40.0313 58.4694 40.7098 58.2425 41.4009 57.5371C42.2851 56.6346 43.1173 55.68 44.0212 54.7983C45.0529 53.792 46.2408 53.7177 47.0232 54.5367C47.7861 55.3353 47.6512 56.2772 46.5591 57.3725C45.4267 58.5082 44.2607 59.6104 42.9541 60.8779C43.4114 61.4425 43.7763 61.9583 44.2072 62.4112C45.0533 63.3005 45.9402 64.1507 46.8025 65.0248C47.6993 65.9339 47.6442 66.7724 46.7273 67.6861C45.8097 68.6006 45.105 68.1414 44.4464 67.4551C43.2057 66.1624 42.0149 64.8218 40.6382 63.321C39.1392 64.8127 37.9361 66.1185 36.6056 67.2783C36.1043 67.7153 35.2568 68.1089 34.6572 68.0046C33.4751 67.7989 33.1542 65.8093 34.0636 64.8347C34.9953 63.836 35.9216 62.8261 36.9264 61.904C37.7243 61.1718 37.6535 60.6233 36.8894 59.9371C36.0124 59.1494 35.1432 58.3325 34.4036 57.4204C34.0002 56.923 33.693 56.2127 33.656 55.5802C33.5712 54.1286 34.6176 53.5282 35.871 54.2787C36.4646 54.6341 36.9316 55.2011 37.5273 55.7436Z" fill="url(#paint59_linear_219_94)"/>
<defs>
<linearGradient id="paint0_linear_219_94" x1="100.001" y1="21.4204" x2="100.001" y2="100.378" gradientUnits="userSpaceOnUse">
<stop offset="0.151042" stop-color="#CAB19D"/>
<stop offset="1" stop-color="#CAB19D" stop-opacity="0.08"/>
</linearGradient>
<linearGradient id="paint1_linear_219_94" x1="60.2832" y1="13.1346" x2="60.2832" y2="109.021" gradientUnits="userSpaceOnUse">
<stop offset="0.151042" stop-color="#CAB19D"/>
<stop offset="1" stop-color="#CAB19D" stop-opacity="0.08"/>
</linearGradient>
<linearGradient id="paint2_linear_219_94" x1="20.4368" y1="21.2109" x2="20.4368" y2="100.76" gradientUnits="userSpaceOnUse">
<stop offset="0.151042" stop-color="#CAB19D"/>
<stop offset="1" stop-color="#CAB19D" stop-opacity="0.08"/>
</linearGradient>
<linearGradient id="paint3_linear_219_94" x1="60.0482" y1="108.73" x2="60.0482" y2="109.021" gradientUnits="userSpaceOnUse">
<stop offset="0.151042" stop-color="#CAB19D"/>
<stop offset="1" stop-color="#CAB19D" stop-opacity="0.08"/>
</linearGradient>
<linearGradient id="paint4_linear_219_94" x1="23.8892" y1="21.1204" x2="23.8892" y2="100.677" gradientUnits="userSpaceOnUse">
<stop offset="0.151042" stop-color="#CAB19D"/>
<stop offset="1" stop-color="#CAB19D" stop-opacity="0.08"/>
</linearGradient>
<linearGradient id="paint5_linear_219_94" x1="96.4666" y1="21.7297" x2="96.4666" y2="100.765" gradientUnits="userSpaceOnUse">
<stop offset="0.151042" stop-color="#CAB19D"/>
<stop offset="1" stop-color="#CAB19D" stop-opacity="0.08"/>
</linearGradient>
<linearGradient id="paint6_linear_219_94" x1="60.0257" y1="12.8494" x2="60.0257" y2="13.1575" gradientUnits="userSpaceOnUse">
<stop offset="0.151042" stop-color="#CAB19D"/>
<stop offset="1" stop-color="#CAB19D" stop-opacity="0.08"/>
</linearGradient>
<linearGradient id="paint7_linear_219_94" x1="60.0447" y1="16.2406" x2="60.0447" y2="16.5285" gradientUnits="userSpaceOnUse">
<stop offset="0.151042" stop-color="#CAB19D"/>
<stop offset="1" stop-color="#CAB19D" stop-opacity="0.08"/>
</linearGradient>
<linearGradient id="paint8_linear_219_94" x1="40.4257" y1="20.6379" x2="40.4257" y2="45.0861" gradientUnits="userSpaceOnUse">
<stop offset="0.151042" stop-color="#CAB19D"/>
<stop offset="1" stop-color="#CAB19D" stop-opacity="0.08"/>
</linearGradient>
<linearGradient id="paint9_linear_219_94" x1="40.4204" y1="76.6802" x2="40.4204" y2="101.153" gradientUnits="userSpaceOnUse">
<stop offset="0.151042" stop-color="#CAB19D"/>
<stop offset="1" stop-color="#CAB19D" stop-opacity="0.08"/>
</linearGradient>
<linearGradient id="paint10_linear_219_94" x1="40.4254" y1="48.7195" x2="40.4254" y2="73.1618" gradientUnits="userSpaceOnUse">
<stop offset="0.151042" stop-color="#CAB19D"/>
<stop offset="1" stop-color="#CAB19D" stop-opacity="0.08"/>
</linearGradient>
<linearGradient id="paint11_linear_219_94" x1="73.2493" y1="34.1168" x2="73.2493" y2="37.3999" gradientUnits="userSpaceOnUse">
<stop offset="0.151042" stop-color="#CAB19D"/>
<stop offset="1" stop-color="#CAB19D" stop-opacity="0.08"/>
</linearGradient>
<linearGradient id="paint12_linear_219_94" x1="73.2126" y1="90.2878" x2="73.2126" y2="93.4035" gradientUnits="userSpaceOnUse">
<stop offset="0.151042" stop-color="#CAB19D"/>
<stop offset="1" stop-color="#CAB19D" stop-opacity="0.08"/>
</linearGradient>
<linearGradient id="paint13_linear_219_94" x1="73.2506" y1="68.7277" x2="73.2506" y2="71.8502" gradientUnits="userSpaceOnUse">
<stop offset="0.151042" stop-color="#CAB19D"/>
<stop offset="1" stop-color="#CAB19D" stop-opacity="0.08"/>
</linearGradient>
<linearGradient id="paint14_linear_219_94" x1="73.2877" y1="40.6589" x2="73.2877" y2="43.7692" gradientUnits="userSpaceOnUse">
<stop offset="0.151042" stop-color="#CAB19D"/>
<stop offset="1" stop-color="#CAB19D" stop-opacity="0.08"/>
</linearGradient>
<linearGradient id="paint15_linear_219_94" x1="73.294" y1="62.2201" x2="73.294" y2="65.3224" gradientUnits="userSpaceOnUse">
<stop offset="0.151042" stop-color="#CAB19D"/>
<stop offset="1" stop-color="#CAB19D" stop-opacity="0.08"/>
</linearGradient>
<linearGradient id="paint16_linear_219_94" x1="73.2694" y1="96.8225" x2="73.2694" y2="99.837" gradientUnits="userSpaceOnUse">
<stop offset="0.151042" stop-color="#CAB19D"/>
<stop offset="1" stop-color="#CAB19D" stop-opacity="0.08"/>
</linearGradient>
<linearGradient id="paint17_linear_219_94" x1="68.9678" y1="55.6802" x2="68.9678" y2="58.8088" gradientUnits="userSpaceOnUse">
<stop offset="0.151042" stop-color="#CAB19D"/>
<stop offset="1" stop-color="#CAB19D" stop-opacity="0.08"/>
</linearGradient>
<linearGradient id="paint18_linear_219_94" x1="68.9648" y1="27.6039" x2="68.9648" y2="30.8752" gradientUnits="userSpaceOnUse">
<stop offset="0.151042" stop-color="#CAB19D"/>
<stop offset="1" stop-color="#CAB19D" stop-opacity="0.08"/>
</linearGradient>
<linearGradient id="paint19_linear_219_94" x1="68.9839" y1="83.7828" x2="68.9839" y2="86.8882" gradientUnits="userSpaceOnUse">
<stop offset="0.151042" stop-color="#CAB19D"/>
<stop offset="1" stop-color="#CAB19D" stop-opacity="0.08"/>
</linearGradient>
<linearGradient id="paint20_linear_219_94" x1="73.1448" y1="93.3379" x2="73.1448" y2="93.6988" gradientUnits="userSpaceOnUse">
<stop offset="0.151042" stop-color="#CAB19D"/>
<stop offset="1" stop-color="#CAB19D" stop-opacity="0.08"/>
</linearGradient>
<linearGradient id="paint21_linear_219_94" x1="72.9019" y1="99.661" x2="72.9019" y2="99.9413" gradientUnits="userSpaceOnUse">
<stop offset="0.151042" stop-color="#CAB19D"/>
<stop offset="1" stop-color="#CAB19D" stop-opacity="0.08"/>
</linearGradient>
<linearGradient id="paint22_linear_219_94" x1="72.9447" y1="96.522" x2="72.9447" y2="96.9054" gradientUnits="userSpaceOnUse">
<stop offset="0.151042" stop-color="#CAB19D"/>
<stop offset="1" stop-color="#CAB19D" stop-opacity="0.08"/>
</linearGradient>
<linearGradient id="paint23_linear_219_94" x1="73.0013" y1="65.3156" x2="73.0013" y2="65.6242" gradientUnits="userSpaceOnUse">
<stop offset="0.151042" stop-color="#CAB19D"/>
<stop offset="1" stop-color="#CAB19D" stop-opacity="0.08"/>
</linearGradient>
<linearGradient id="paint24_linear_219_94" x1="73.0398" y1="61.926" x2="73.0398" y2="62.2315" gradientUnits="userSpaceOnUse">
<stop offset="0.151042" stop-color="#CAB19D"/>
<stop offset="1" stop-color="#CAB19D" stop-opacity="0.08"/>
</linearGradient>
<linearGradient id="paint25_linear_219_94" x1="73.0015" y1="43.7509" x2="73.0015" y2="44.0439" gradientUnits="userSpaceOnUse">
<stop offset="0.151042" stop-color="#CAB19D"/>
<stop offset="1" stop-color="#CAB19D" stop-opacity="0.08"/>
</linearGradient>
<linearGradient id="paint26_linear_219_94" x1="73.1346" y1="71.8414" x2="73.1346" y2="72.1406" gradientUnits="userSpaceOnUse">
<stop offset="0.151042" stop-color="#CAB19D"/>
<stop offset="1" stop-color="#CAB19D" stop-opacity="0.08"/>
</linearGradient>
<linearGradient id="paint27_linear_219_94" x1="72.9366" y1="33.8523" x2="72.9366" y2="34.1362" gradientUnits="userSpaceOnUse">
<stop offset="0.151042" stop-color="#CAB19D"/>
<stop offset="1" stop-color="#CAB19D" stop-opacity="0.08"/>
</linearGradient>
<linearGradient id="paint28_linear_219_94" x1="72.879" y1="90.0161" x2="72.879" y2="90.3174" gradientUnits="userSpaceOnUse">
<stop offset="0.151042" stop-color="#CAB19D"/>
<stop offset="1" stop-color="#CAB19D" stop-opacity="0.08"/>
</linearGradient>
<linearGradient id="paint29_linear_219_94" x1="72.8664" y1="68.4611" x2="72.8664" y2="68.7528" gradientUnits="userSpaceOnUse">
<stop offset="0.151042" stop-color="#CAB19D"/>
<stop offset="1" stop-color="#CAB19D" stop-opacity="0.08"/>
</linearGradient>
<linearGradient id="paint30_linear_219_94" x1="72.8937" y1="37.2998" x2="72.8937" y2="37.4729" gradientUnits="userSpaceOnUse">
<stop offset="0.151042" stop-color="#CAB19D"/>
<stop offset="1" stop-color="#CAB19D" stop-opacity="0.08"/>
</linearGradient>
<linearGradient id="paint31_linear_219_94" x1="73.2316" y1="40.376" x2="73.2316" y2="40.6566" gradientUnits="userSpaceOnUse">
<stop offset="0.151042" stop-color="#CAB19D"/>
<stop offset="1" stop-color="#CAB19D" stop-opacity="0.08"/>
</linearGradient>
<linearGradient id="paint32_linear_219_94" x1="68.8283" y1="58.7834" x2="68.8283" y2="59.082" gradientUnits="userSpaceOnUse">
<stop offset="0.151042" stop-color="#CAB19D"/>
<stop offset="1" stop-color="#CAB19D" stop-opacity="0.08"/>
</linearGradient>
<linearGradient id="paint33_linear_219_94" x1="68.7445" y1="86.8872" x2="68.7445" y2="87.1659" gradientUnits="userSpaceOnUse">
<stop offset="0.151042" stop-color="#CAB19D"/>
<stop offset="1" stop-color="#CAB19D" stop-opacity="0.08"/>
</linearGradient>
<linearGradient id="paint34_linear_219_94" x1="68.7825" y1="83.4873" x2="68.7825" y2="83.7905" gradientUnits="userSpaceOnUse">
<stop offset="0.151042" stop-color="#CAB19D"/>
<stop offset="1" stop-color="#CAB19D" stop-opacity="0.08"/>
</linearGradient>
<linearGradient id="paint35_linear_219_94" x1="68.6912" y1="27.3276" x2="68.6912" y2="27.6257" gradientUnits="userSpaceOnUse">
<stop offset="0.151042" stop-color="#CAB19D"/>
<stop offset="1" stop-color="#CAB19D" stop-opacity="0.08"/>
</linearGradient>
<linearGradient id="paint36_linear_219_94" x1="68.8274" y1="55.4166" x2="68.8274" y2="55.6884" gradientUnits="userSpaceOnUse">
<stop offset="0.151042" stop-color="#CAB19D"/>
<stop offset="1" stop-color="#CAB19D" stop-opacity="0.08"/>
</linearGradient>
<linearGradient id="paint37_linear_219_94" x1="28.0849" y1="81.5482" x2="28.0849" y2="96.3932" gradientUnits="userSpaceOnUse">
<stop offset="0.151042" stop-color="#CAB19D"/>
<stop offset="1" stop-color="#CAB19D" stop-opacity="0.08"/>
</linearGradient>
<linearGradient id="paint38_linear_219_94" x1="28.0031" y1="53.484" x2="28.0031" y2="68.3126" gradientUnits="userSpaceOnUse">
<stop offset="0.151042" stop-color="#CAB19D"/>
<stop offset="1" stop-color="#CAB19D" stop-opacity="0.08"/>
</linearGradient>
<linearGradient id="paint39_linear_219_94" x1="52.4995" y1="53.4673" x2="52.4995" y2="68.3401" gradientUnits="userSpaceOnUse">
<stop offset="0.151042" stop-color="#CAB19D"/>
<stop offset="1" stop-color="#CAB19D" stop-opacity="0.08"/>
</linearGradient>
<linearGradient id="paint40_linear_219_94" x1="28.0896" y1="25.3927" x2="28.0896" y2="40.215" gradientUnits="userSpaceOnUse">
<stop offset="0.151042" stop-color="#CAB19D"/>
<stop offset="1" stop-color="#CAB19D" stop-opacity="0.08"/>
</linearGradient>
<linearGradient id="paint41_linear_219_94" x1="40.282" y1="73.047" x2="40.282" y2="73.2175" gradientUnits="userSpaceOnUse">
<stop offset="0.151042" stop-color="#CAB19D"/>
<stop offset="1" stop-color="#CAB19D" stop-opacity="0.08"/>
</linearGradient>
<linearGradient id="paint42_linear_219_94" x1="40.2953" y1="48.6556" x2="40.2953" y2="48.8268" gradientUnits="userSpaceOnUse">
<stop offset="0.151042" stop-color="#CAB19D"/>
<stop offset="1" stop-color="#CAB19D" stop-opacity="0.08"/>
</linearGradient>
<linearGradient id="paint43_linear_219_94" x1="52.4971" y1="81.5563" x2="52.4971" y2="96.1189" gradientUnits="userSpaceOnUse">
<stop offset="0.151042" stop-color="#CAB19D"/>
<stop offset="1" stop-color="#CAB19D" stop-opacity="0.08"/>
</linearGradient>
<linearGradient id="paint44_linear_219_94" x1="52.4993" y1="25.6925" x2="52.4993" y2="40.2508" gradientUnits="userSpaceOnUse">
<stop offset="0.151042" stop-color="#CAB19D"/>
<stop offset="1" stop-color="#CAB19D" stop-opacity="0.08"/>
</linearGradient>
<linearGradient id="paint45_linear_219_94" x1="40.2896" y1="20.5688" x2="40.2896" y2="20.7367" gradientUnits="userSpaceOnUse">
<stop offset="0.151042" stop-color="#CAB19D"/>
<stop offset="1" stop-color="#CAB19D" stop-opacity="0.08"/>
</linearGradient>
<linearGradient id="paint46_linear_219_94" x1="40.2479" y1="101.079" x2="40.2479" y2="101.354" gradientUnits="userSpaceOnUse">
<stop offset="0.151042" stop-color="#CAB19D"/>
<stop offset="1" stop-color="#CAB19D" stop-opacity="0.08"/>
</linearGradient>
<linearGradient id="paint47_linear_219_94" x1="40.2866" y1="44.9672" x2="40.2866" y2="45.1338" gradientUnits="userSpaceOnUse">
<stop offset="0.151042" stop-color="#CAB19D"/>
<stop offset="1" stop-color="#CAB19D" stop-opacity="0.08"/>
</linearGradient>
<linearGradient id="paint48_linear_219_94" x1="40.2536" y1="76.6691" x2="40.2536" y2="76.9575" gradientUnits="userSpaceOnUse">
<stop offset="0.151042" stop-color="#CAB19D"/>
<stop offset="1" stop-color="#CAB19D" stop-opacity="0.08"/>
</linearGradient>
<linearGradient id="paint49_linear_219_94" x1="40.4199" y1="80.0833" x2="40.4199" y2="80.372" gradientUnits="userSpaceOnUse">
<stop offset="0.151042" stop-color="#CAB19D"/>
<stop offset="1" stop-color="#CAB19D" stop-opacity="0.08"/>
</linearGradient>
<linearGradient id="paint50_linear_219_94" x1="40.3656" y1="97.7007" x2="40.3656" y2="97.9452" gradientUnits="userSpaceOnUse">
<stop offset="0.151042" stop-color="#CAB19D"/>
<stop offset="1" stop-color="#CAB19D" stop-opacity="0.08"/>
</linearGradient>
<linearGradient id="paint51_linear_219_94" x1="31.4897" y1="82.1545" x2="31.4897" y2="96.1012" gradientUnits="userSpaceOnUse">
<stop offset="0.151042" stop-color="#CAB19D"/>
<stop offset="1" stop-color="#CAB19D" stop-opacity="0.08"/>
</linearGradient>
<linearGradient id="paint52_linear_219_94" x1="49.3413" y1="82.1682" x2="49.3413" y2="95.9124" gradientUnits="userSpaceOnUse">
<stop offset="0.151042" stop-color="#CAB19D"/>
<stop offset="1" stop-color="#CAB19D" stop-opacity="0.08"/>
</linearGradient>
<linearGradient id="paint53_linear_219_94" x1="40.4219" y1="51.9531" x2="40.4219" y2="52.4013" gradientUnits="userSpaceOnUse">
<stop offset="0.151042" stop-color="#CAB19D"/>
<stop offset="1" stop-color="#CAB19D" stop-opacity="0.08"/>
</linearGradient>
<linearGradient id="paint54_linear_219_94" x1="40.2805" y1="69.5936" x2="40.2805" y2="69.8741" gradientUnits="userSpaceOnUse">
<stop offset="0.151042" stop-color="#CAB19D"/>
<stop offset="1" stop-color="#CAB19D" stop-opacity="0.08"/>
</linearGradient>
<linearGradient id="paint55_linear_219_94" x1="49.3426" y1="54.0927" x2="49.3426" y2="67.832" gradientUnits="userSpaceOnUse">
<stop offset="0.151042" stop-color="#CAB19D"/>
<stop offset="1" stop-color="#CAB19D" stop-opacity="0.08"/>
</linearGradient>
<linearGradient id="paint56_linear_219_94" x1="31.4925" y1="54.0736" x2="31.4925" y2="67.7177" gradientUnits="userSpaceOnUse">
<stop offset="0.151042" stop-color="#CAB19D"/>
<stop offset="1" stop-color="#CAB19D" stop-opacity="0.08"/>
</linearGradient>
<linearGradient id="paint57_linear_219_94" x1="40.5384" y1="25.8674" x2="40.5384" y2="40.0858" gradientUnits="userSpaceOnUse">
<stop offset="0.151042" stop-color="#CAB19D"/>
<stop offset="1" stop-color="#CAB19D" stop-opacity="0.08"/>
</linearGradient>
<linearGradient id="paint58_linear_219_94" x1="40.6" y1="82.147" x2="40.6" y2="96.1447" gradientUnits="userSpaceOnUse">
<stop offset="0.151042" stop-color="#CAB19D"/>
<stop offset="1" stop-color="#CAB19D" stop-opacity="0.08"/>
</linearGradient>
<linearGradient id="paint59_linear_219_94" x1="40.522" y1="53.9543" x2="40.522" y2="68.1975" gradientUnits="userSpaceOnUse">
<stop offset="0.151042" stop-color="#CAB19D"/>
<stop offset="1" stop-color="#CAB19D" stop-opacity="0.08"/>
</linearGradient>
</defs>
</svg>
