<svg width="120" height="120" viewBox="0 0 120 120" fill="none" xmlns="http://www.w3.org/2000/svg">
<g clip-path="url(#clip0_219_86)">
<g clip-path="url(#clip1_219_86)">
<path d="M32.6292 40.9386C30.875 39.1848 29.2925 37.7451 27.8742 36.1586C24.8466 32.772 24.7603 28.9857 27.5319 26.0404C30.4807 22.9069 34.5482 22.7558 37.9967 26.0901C44.7156 32.5864 51.4448 39.0948 57.7662 45.9693C60.6835 49.1417 62.1973 48.6056 64.8346 45.776C70.8683 39.3021 77.2451 33.1459 83.5377 26.9163C87.5583 22.9359 91.4926 22.6272 94.7309 25.8889C97.7858 28.9659 97.399 33.2391 93.5653 37.1212C86.9973 43.7721 80.442 50.4395 73.7099 56.9219C71.6606 58.8953 71.7779 60.017 73.756 61.9237C80.3671 68.2957 86.81 74.8431 93.2851 81.3553C97.3612 85.4547 97.8556 89.817 94.6829 92.9537C91.325 96.2736 87.5174 95.808 83.1537 91.4614C76.6492 84.9824 70.1057 78.5395 63.741 71.9251C61.8532 69.9632 60.7571 69.8368 58.7999 71.8717C52.3216 78.6074 45.6619 85.1701 39.0127 91.7393C34.8831 95.8191 31.1735 96.1932 27.8258 93.0433C24.4393 89.8568 24.8022 85.7364 28.9655 81.5279C35.4234 75 41.859 68.4459 48.4769 62.0826C50.5583 60.0813 50.8487 58.9176 48.5733 56.7898C43.187 51.753 38.0895 46.4072 32.6292 40.9386Z" fill="url(#paint0_linear_219_86)"/>
</g>
</g>
<defs>
<linearGradient id="paint0_linear_219_86" x1="61.1448" y1="23.6396" x2="61.1448" y2="95.139" gradientUnits="userSpaceOnUse">
<stop offset="0.151042" stop-color="#CAB19D"/>
<stop offset="1" stop-color="#CAB19D" stop-opacity="0.08"/>
</linearGradient>
<clipPath id="clip0_219_86">
<rect width="120" height="120" fill="white"/>
</clipPath>
<clipPath id="clip1_219_86">
<rect width="130" height="133.939" fill="white" transform="translate(-7 -12)"/>
</clipPath>
</defs>
</svg>
