<svg width="79" height="79" viewBox="0 0 79 79" fill="none" xmlns="http://www.w3.org/2000/svg">
<g clip-path="url(#clip0_7_5)">
<path d="M29.895 58.6714L38.3042 16.7026H40.6958L49.105 58.6714L49.2207 59.2886L48.7964 59.7515L40.3872 68.7393L39.5 69.7036L38.6128 68.7393L30.2036 59.7515L29.7793 59.2886L29.895 58.6714Z" fill="#520000"/>
<path d="M30.9751 53.3096L31.5151 50.5322L39.5 58.5171L47.4849 50.5322L48.0249 53.3096L40.3872 61.4873L39.5 62.4517L38.6128 61.4873L30.9751 53.3096ZM32.1709 47.3691L32.7495 44.5146L39.5386 51.3037L46.3276 44.5146L46.9062 47.3691L40.4644 54.2739L39.5771 55.2383L38.6899 54.2739L32.248 47.3691H32.1709ZM33.3667 41.4287L33.9453 38.4971L39.5 44.0518L45.0547 38.4971L45.6333 41.4287L40.3872 47.0605L39.5 48.0249L38.6128 47.0605L33.3667 41.4287ZM34.5625 35.4883L35.1797 32.4795L39.5386 36.8384L43.8975 32.4795L44.5146 35.4883L40.4644 39.8472L39.5771 40.8115L38.6899 39.8472L34.6396 35.4883H34.5625ZM35.7583 29.5479L36.3755 26.4619L39.5386 29.625L42.7017 26.4619L43.3188 29.5479L40.4644 32.6338L39.5771 33.5981L38.6899 32.6338L35.8354 29.5479H35.7583ZM36.9541 23.6074L37.5713 20.4829L39.5386 22.4502L41.5059 20.4829L42.123 23.6074L40.4644 25.4204L39.5771 26.3848L38.6899 25.4204L37.0312 23.6074H36.9541Z" fill="#520000" fill-opacity="0.65"/>
<path d="M45.4019 11.7266L40.5415 19.8271L39.5 21.6401L38.4585 19.8271L33.5981 11.7266L32.5181 9.875H34.6782H39.5H44.3218H46.4819L45.4019 11.7266Z" fill="#520000" fill-opacity="0.7"/>
<path d="M38.2656 19.5186L37.147 17.6284L41.7373 9.875H43.9746L38.3042 19.5186H38.2656ZM35.874 15.5068L34.7554 13.6167L36.9541 9.875H39.1914L35.874 15.5068Z" fill="#520000"/>
<path fill-rule="evenodd" clip-rule="evenodd" d="M30.2036 59.7515L38.6128 68.7393L39.5 69.7036L40.3872 68.7393L48.7964 59.7515L49.2207 59.2886L49.105 58.6714L48.6807 56.5498L39.5 65.7305L30.3193 56.5498L29.895 58.6714L29.7793 59.2886L30.2036 59.7515Z" fill="#520000" fill-opacity="0.65"/>
</g>
<defs>
<clipPath id="clip0_7_5">
<rect width="79" height="79" fill="white"/>
</clipPath>
</defs>
</svg>
