<svg width="79" height="79" viewBox="0 0 79 79" fill="none" xmlns="http://www.w3.org/2000/svg">
<path d="M66.4917 22.3833L66.3601 21.2642H59.7767C60.1059 19.0258 60.3034 16.7217 60.4351 14.3517C60.5009 13.1008 59.5134 12.0475 58.3942 12.0475H20.6717C19.4867 12.0475 18.5651 13.1008 18.6309 14.3517C18.6967 16.7217 18.9601 19.0258 19.2892 21.2642H12.7059L12.5084 22.3833C12.4426 22.6467 11.7184 29.3617 16.0634 35.4183C18.8942 39.3683 23.3051 42.0675 29.0326 43.45C30.8759 45.2933 32.9167 46.6758 35.0892 47.5317C34.8259 50.2308 34.4967 52.8642 34.1676 55.3H44.8984C44.5034 52.7983 44.1742 50.2308 43.9109 47.5317C46.0834 46.7417 48.1242 45.3592 49.9676 43.45C55.6951 42.0675 60.1059 39.3683 62.9367 35.4183C67.2817 29.3617 66.4917 22.6467 66.4917 22.3833ZM17.9726 33.7725C15.2076 29.9542 14.8784 25.8067 14.8784 23.8317H19.6842C20.9351 30.0858 23.1734 35.6158 26.0042 39.7633C22.5809 38.4467 19.8817 36.4058 17.9726 33.7725ZM61.0276 33.7725C59.1184 36.4058 56.4192 38.4467 52.9959 39.7633C55.8926 35.55 58.0651 30.0858 59.3159 23.8317H64.1217C64.1217 25.8067 63.7267 29.9542 61.0276 33.7725Z" fill="#520000"/>
<path d="M50.6916 64.5825H28.3083C27.65 64.5825 27.1233 64.0558 27.1233 63.3975V54.9708C27.1233 54.3125 27.65 53.7858 28.3083 53.7858H50.6916C51.35 53.7858 51.8766 54.3125 51.8766 54.9708V63.3975C51.8766 64.0558 51.35 64.5825 50.6916 64.5825Z" fill="#C18900" fill-opacity="0.8"/>
<path d="M24.9509 67.0842H54.0492C54.7075 67.0842 55.2342 66.5575 55.2342 65.8992V63.3975C55.2342 62.7392 54.7075 62.2125 54.0492 62.2125H24.9509C24.2925 62.2125 23.7659 62.7392 23.7659 63.3975V65.8992C23.7659 66.4917 24.2925 67.0842 24.9509 67.0842Z" fill="#C18900"/>
<path d="M44.7667 59.9083H34.2334C33.7725 59.9083 33.4434 59.5792 33.4434 59.1183V57.4725C33.4434 57.0117 33.7725 56.6825 34.2334 56.6825H44.7667C45.2275 56.6825 45.5567 57.0117 45.5567 57.4725V59.1183C45.5567 59.5792 45.1617 59.9083 44.7667 59.9083Z" fill="#520000"/>
</svg>
