<svg width="55" height="55" viewBox="0 0 55 55" fill="none" xmlns="http://www.w3.org/2000/svg">
<g clip-path="url(#clip0_7_60)">
<path d="M42.034 48.3261C41.7566 47.5481 41.0199 47.0285 40.194 47.0285H10.5983C9.65407 47.0285 8.845 47.7041 8.67648 48.6333L7.79259 53.5098C7.75222 53.7328 7.76055 53.965 7.83833 54.1778C8.02444 54.6869 8.49685 55 9.00611 55H42.6271C42.8796 55 43.132 54.9361 43.3409 54.7946C43.8312 54.4624 44.0072 53.8646 43.8222 53.3454L42.034 48.3261Z" fill="#520000"/>
<path d="M47.0228 20.939L37.4852 6.63243L39.3212 1.66871C39.4828 1.23149 39.3854 0.740376 39.0689 0.398152C38.7523 0.0553735 38.27 -0.0803678 37.8221 0.0470401L28.8295 2.5902C27.9489 2.57446 24.6489 2.64223 20.9879 4.31928C17.119 6.0915 12.1025 10.0582 10.1749 18.8897C7.51438 31.0797 10.104 40.3861 11.7111 44.5507H37.1793L39.4526 42.2774C39.8649 41.865 39.9337 41.2213 39.6184 40.7309C37.5219 37.4724 32.5743 29.2662 30.6619 24.1605C31.3624 24.3999 32.1565 24.5543 32.9959 24.5105C34.1895 24.448 35.2787 24.0112 36.2461 23.209L39.7378 25.5369C40.8165 26.2562 42.1539 26.4779 43.4073 26.1451C44.6606 25.8123 45.7119 24.9562 46.2919 23.7964L47.1003 22.1799C47.2991 21.7825 47.2695 21.3088 47.0228 20.939ZM33.6326 12.9771H31.9485C31.2643 12.9771 30.7098 12.4225 30.7098 11.7384C30.7098 11.0541 31.2645 10.4997 31.9485 10.4997H33.6326C34.3169 10.4997 34.8713 11.0543 34.8713 11.7384C34.8713 12.4226 34.3169 12.9771 33.6326 12.9771Z" fill="#520000"/>
</g>
<defs>
<clipPath id="clip0_7_60">
<rect width="55" height="55" fill="white"/>
</clipPath>
</defs>
</svg>
