<svg width="375" height="241" viewBox="0 0 375 241" fill="none" xmlns="http://www.w3.org/2000/svg">
<g clip-path="url(#clip0_3_6)">
<path d="M350.201 212.342H255.53C252.086 212.338 248.784 210.968 246.348 208.533C243.913 206.097 242.543 202.795 242.539 199.351V50.0176C242.543 46.5732 243.913 43.2711 246.348 40.8356C248.784 38.4001 252.086 37.0301 255.53 37.0262H350.201C353.646 37.0301 356.948 38.4001 359.383 40.8356C361.819 43.2711 363.189 46.5732 363.193 50.0176V199.351C363.189 202.795 361.819 206.097 359.383 208.533C356.948 210.968 353.646 212.338 350.201 212.342Z" fill="#E6E6E6"/>
<path d="M351.771 44.7783H255.352C254.273 44.7796 253.24 45.2085 252.477 45.9709C251.715 46.7333 251.286 47.767 251.285 48.8452V200.126C251.286 201.204 251.715 202.237 252.478 202.999C253.24 203.762 254.273 204.191 255.352 204.192H351.771C352.849 204.191 353.883 203.762 354.645 203C355.408 202.237 355.837 201.204 355.838 200.126V48.8452C355.837 47.767 355.408 46.7333 354.645 45.9709C353.883 45.2085 352.849 44.7797 351.771 44.7783Z" fill="white"/>
<path d="M257.844 37.0263C257.845 36.7628 257.949 36.5102 258.136 36.3239C258.322 36.1375 258.575 36.0327 258.838 36.0324H265.596C265.86 36.0324 266.113 36.1371 266.299 36.3235C266.485 36.5099 266.59 36.7627 266.59 37.0263C266.59 37.2898 266.485 37.5426 266.299 37.729C266.113 37.9154 265.86 38.0201 265.596 38.0201H258.838C258.575 38.0198 258.322 37.915 258.136 37.7287C257.949 37.5424 257.845 37.2897 257.844 37.0263Z" fill="#E6E6E6"/>
<path d="M268.975 37.0263C268.976 36.7628 269.08 36.5102 269.267 36.3239C269.453 36.1375 269.706 36.0327 269.969 36.0324H276.727C276.991 36.0324 277.244 36.1371 277.43 36.3235C277.617 36.5099 277.721 36.7627 277.721 37.0263C277.721 37.2898 277.617 37.5426 277.43 37.729C277.244 37.9154 276.991 38.0201 276.727 38.0201H269.969C269.706 38.0198 269.453 37.915 269.267 37.7287C269.08 37.5424 268.976 37.2898 268.975 37.0263Z" fill="#E6E6E6"/>
<path d="M335.762 37.0263C335.763 36.7628 335.867 36.5102 336.054 36.3239C336.24 36.1375 336.493 36.0327 336.756 36.0324H343.514C343.778 36.0324 344.031 36.1371 344.217 36.3235C344.403 36.5099 344.508 36.7627 344.508 37.0263C344.508 37.2898 344.403 37.5426 344.217 37.729C344.031 37.9154 343.778 38.0201 343.514 38.0201H336.756C336.493 38.0198 336.24 37.915 336.054 37.7287C335.867 37.5424 335.763 37.2898 335.762 37.0263Z" fill="#E6E6E6"/>
<path d="M316.923 201.076C316.923 202.121 316.903 203.163 316.855 204.192H255.352C254.273 204.191 253.24 203.762 252.478 202.999C251.715 202.237 251.286 201.204 251.285 200.126V123.98C269.6 126.94 286.264 136.323 298.291 150.449C310.318 164.576 316.923 182.523 316.923 201.076Z" fill="#F2F2F2"/>
<path d="M314.834 83.6544H291.897C290.853 83.6544 290.007 84.5006 290.007 85.5444V87.9027C290.007 88.9465 290.853 89.7927 291.897 89.7927H314.834C315.878 89.7927 316.724 88.9465 316.724 87.9027V85.5444C316.724 84.5006 315.878 83.6544 314.834 83.6544Z" fill="#C18900"/>
<path d="M329.413 95.931H277.318C276.274 95.931 275.428 96.7772 275.428 97.8209V100.179C275.428 101.223 276.274 102.069 277.318 102.069H329.413C330.456 102.069 331.303 101.223 331.303 100.179V97.8209C331.303 96.7772 330.456 95.931 329.413 95.931Z" fill="#E6E6E6"/>
<path d="M329.413 108.208H277.318C276.274 108.208 275.428 109.054 275.428 110.097V112.456C275.428 113.5 276.274 114.346 277.318 114.346H329.413C330.456 114.346 331.303 113.5 331.303 112.456V110.097C331.303 109.054 330.456 108.208 329.413 108.208Z" fill="#E6E6E6"/>
<path d="M346.951 58.1343H260.171C259.983 58.1301 259.804 58.0527 259.673 57.9184C259.542 57.7842 259.468 57.6039 259.468 57.4161C259.468 57.2283 259.542 57.048 259.673 56.9137C259.804 56.7795 259.983 56.702 260.171 56.6979H346.951C347.139 56.702 347.318 56.7795 347.449 56.9137C347.58 57.048 347.654 57.2283 347.654 57.4161C347.654 57.6039 347.58 57.7842 347.449 57.9184C347.318 58.0527 347.139 58.1301 346.951 58.1343Z" fill="#EDE7D7"/>
<path d="M264.801 54.621C265.967 54.621 266.912 53.6549 266.912 52.4631C266.912 51.2713 265.967 50.3052 264.801 50.3052C263.635 50.3052 262.69 51.2713 262.69 52.4631C262.69 53.6549 263.635 54.621 264.801 54.621Z" fill="#3F3D56"/>
<path d="M272.093 54.621C273.259 54.621 274.204 53.6549 274.204 52.4631C274.204 51.2713 273.259 50.3052 272.093 50.3052C270.927 50.3052 269.982 51.2713 269.982 52.4631C269.982 53.6549 270.927 54.621 272.093 54.621Z" fill="#3F3D56"/>
<path d="M279.386 54.621C280.551 54.621 281.496 53.6549 281.496 52.4631C281.496 51.2713 280.551 50.3052 279.386 50.3052C278.22 50.3052 277.275 51.2713 277.275 52.4631C277.275 53.6549 278.22 54.621 279.386 54.621Z" fill="#3F3D56"/>
<path d="M343.56 51.1389H338.836C338.742 51.1408 338.653 51.1793 338.587 51.2462C338.522 51.3131 338.485 51.403 338.485 51.4966C338.485 51.5903 338.522 51.6802 338.587 51.7471C338.653 51.814 338.742 51.8525 338.836 51.8543H343.56C343.653 51.8525 343.742 51.814 343.808 51.7471C343.874 51.6802 343.91 51.5903 343.91 51.4966C343.91 51.403 343.874 51.3131 343.808 51.2462C343.742 51.1793 343.653 51.1408 343.56 51.1389Z" fill="#3F3D56"/>
<path d="M343.56 52.4816H338.836C338.742 52.4834 338.653 52.5219 338.587 52.5888C338.522 52.6557 338.485 52.7456 338.485 52.8393C338.485 52.9329 338.522 53.0229 338.587 53.0897C338.653 53.1566 338.742 53.1951 338.836 53.197H343.56C343.653 53.1951 343.742 53.1566 343.808 53.0897C343.874 53.0229 343.91 52.9329 343.91 52.8393C343.91 52.7456 343.874 52.6557 343.808 52.5888C343.742 52.5219 343.653 52.4834 343.56 52.4816Z" fill="#3F3D56"/>
<path d="M343.56 53.8224H338.836C338.742 53.8243 338.653 53.8628 338.587 53.9297C338.522 53.9965 338.485 54.0865 338.485 54.1801C338.485 54.2738 338.522 54.3637 338.587 54.4306C338.653 54.4975 338.742 54.536 338.836 54.5378H343.56C343.653 54.536 343.742 54.4975 343.808 54.4306C343.874 54.3637 343.91 54.2738 343.91 54.1801C343.91 54.0865 343.874 53.9965 343.808 53.9297C343.742 53.8628 343.653 53.8243 343.56 53.8224Z" fill="#3F3D56"/>
<path d="M202.759 124.037H152.446C151.734 124.038 151.052 124.322 150.549 124.826C150.046 125.33 149.764 126.013 149.765 126.725V206.204H205.446V126.725C205.446 126.372 205.377 126.022 205.242 125.696C205.107 125.37 204.909 125.074 204.659 124.824C204.41 124.574 204.113 124.376 203.787 124.241C203.461 124.106 203.112 124.037 202.759 124.037ZM177.771 169.197C176.198 169.189 174.691 168.561 173.578 167.449C172.466 166.336 171.838 164.829 171.83 163.256V154.088C171.832 152.514 172.458 151.004 173.572 149.891C174.686 148.778 176.197 148.152 177.771 148.152C179.346 148.152 180.857 148.778 181.971 149.891C183.085 151.004 183.711 152.514 183.712 154.088V163.256C183.705 164.829 183.077 166.336 181.964 167.449C180.852 168.561 179.345 169.189 177.771 169.197Z" fill="#E6E6E6"/>
<path d="M149.593 203.662V211.33C149.593 211.728 149.752 212.109 150.033 212.39C150.313 212.671 150.694 212.829 151.092 212.83H204.12C204.517 212.828 204.897 212.669 205.178 212.388C205.458 212.108 205.617 211.727 205.619 211.33V203.662L149.593 203.662Z" fill="#CCCCCC"/>
<path d="M286.073 0H71.0037C69.1559 0.00293961 67.3846 0.738267 66.0781 2.04484C64.7715 3.35141 64.0362 5.12267 64.0332 6.97044V152.1C64.035 153.948 64.7699 155.72 66.0768 157.027C67.3836 158.334 69.1555 159.068 71.0037 159.07H286.073C287.921 159.068 289.693 158.334 290.999 157.027C292.306 155.72 293.041 153.948 293.043 152.1V6.97044C293.04 5.12267 292.305 3.35141 290.998 2.04484C289.692 0.738267 287.92 0.00293846 286.073 0Z" fill="#E6E6E6"/>
<path d="M284.277 5.03464H72.8005C71.8112 5.03679 70.8631 5.43129 70.1642 6.1316C69.4654 6.83191 69.0728 7.78083 69.0728 8.77019V150.302C69.0745 151.291 69.4677 152.238 70.1665 152.936C70.8652 153.635 71.8124 154.028 72.8005 154.03H284.277C285.265 154.028 286.213 153.635 286.911 152.936C287.61 152.238 288.003 151.291 288.005 150.302V8.77019C288.005 7.78083 287.612 6.83191 286.914 6.1316C286.215 5.43129 285.267 5.03679 284.277 5.03464Z" fill="white"/>
<path d="M288.006 8.77019V150.302C288.004 151.291 287.611 152.238 286.912 152.936C286.213 153.635 285.266 154.028 284.278 154.03H209.706C201.457 146.38 194.689 137.273 189.742 127.168C189.417 126.517 189.107 125.859 188.812 125.192C184.305 115.411 181.576 104.906 180.752 94.1684C180.698 93.5097 180.651 92.8509 180.62 92.1844C180.519 90.4794 180.473 88.7511 180.473 87.0151C180.458 75.4693 182.638 64.0259 186.898 53.2944C187.154 52.6279 187.425 51.9692 187.704 51.3104C196.276 31.1701 211.765 14.7574 231.376 5.03464H284.278C285.267 5.03679 286.215 5.43129 286.914 6.1316C287.613 6.83191 288.005 7.78083 288.006 8.77019Z" fill="#C18900"/>
<path d="M273.647 24.5346H75.7688C75.563 24.5302 75.3672 24.4454 75.2232 24.2983C75.0792 24.1512 74.9985 23.9536 74.9985 23.7477C74.9985 23.5419 75.0792 23.3442 75.2232 23.1971C75.3672 23.05 75.563 22.9652 75.7688 22.9608H273.647C273.853 22.9652 274.048 23.05 274.192 23.1971C274.336 23.3442 274.417 23.5419 274.417 23.7477C274.417 23.9536 274.336 24.1512 274.192 24.2983C274.048 24.4454 273.853 24.5302 273.647 24.5346Z" fill="#EDE7D7"/>
<path d="M89.2388 18.9431C91.7858 18.9431 93.8505 16.8324 93.8505 14.2287C93.8505 11.625 91.7858 9.51425 89.2388 9.51425C86.6919 9.51425 84.6272 11.625 84.6272 14.2287C84.6272 16.8324 86.6919 18.9431 89.2388 18.9431Z" fill="#3F3D56"/>
<path d="M105.17 18.9431C107.717 18.9431 109.782 16.8324 109.782 14.2287C109.782 11.625 107.717 9.51425 105.17 9.51425C102.623 9.51425 100.558 11.625 100.558 14.2287C100.558 16.8324 102.623 18.9431 105.17 18.9431Z" fill="#3F3D56"/>
<path d="M121.101 18.9431C123.648 18.9431 125.712 16.8324 125.712 14.2287C125.712 11.625 123.648 9.51425 121.101 9.51425C118.554 9.51425 116.489 11.625 116.489 14.2287C116.489 16.8324 118.554 18.9431 121.101 18.9431Z" fill="#3F3D56"/>
<path d="M264.055 10.6827H252.739C252.514 10.6872 252.301 10.7794 252.144 10.9396C251.986 11.0998 251.898 11.3152 251.898 11.5396C251.898 11.764 251.986 11.9794 252.144 12.1396C252.301 12.2998 252.514 12.392 252.739 12.3965H264.055C264.279 12.392 264.493 12.2998 264.65 12.1396C264.807 11.9794 264.895 11.764 264.895 11.5396C264.895 11.3152 264.807 11.0998 264.65 10.9396C264.493 10.7794 264.279 10.6872 264.055 10.6827Z" fill="#3F3D56"/>
<path d="M264.055 13.8992H252.739C252.514 13.9036 252.301 13.9958 252.144 14.1561C251.986 14.3163 251.898 14.5317 251.898 14.756C251.898 14.9804 251.986 15.1958 252.144 15.356C252.301 15.5162 252.514 15.6085 252.739 15.6129H264.055C264.279 15.6085 264.493 15.5162 264.65 15.356C264.807 15.1958 264.895 14.9804 264.895 14.756C264.895 14.5317 264.807 14.3163 264.65 14.1561C264.493 13.9958 264.279 13.9036 264.055 13.8992Z" fill="#3F3D56"/>
<path d="M264.055 17.1114H252.739C252.514 17.1158 252.301 17.2081 252.144 17.3683C251.986 17.5285 251.898 17.7439 251.898 17.9683C251.898 18.1926 251.986 18.408 252.144 18.5683C252.301 18.7285 252.514 18.8207 252.739 18.8251H264.055C264.279 18.8207 264.493 18.7285 264.65 18.5683C264.807 18.408 264.895 18.1926 264.895 17.9683C264.895 17.7439 264.807 17.5285 264.65 17.3683C264.493 17.2081 264.279 17.1158 264.055 17.1114Z" fill="#3F3D56"/>
<path d="M136.357 70.5065H108.685C107.641 70.5065 106.795 71.3526 106.795 72.3964V75.342C106.795 76.3858 107.641 77.232 108.685 77.232H136.357C137.4 77.232 138.247 76.3858 138.247 75.342V72.3964C138.247 71.3526 137.4 70.5065 136.357 70.5065Z" fill="#C18900"/>
<path d="M152.33 83.9576H92.712C91.6682 83.9576 90.822 84.8037 90.822 85.8475V88.7931C90.822 89.8369 91.6682 90.6831 92.712 90.6831H152.33C153.373 90.6831 154.22 89.8369 154.22 88.7931V85.8475C154.22 84.8037 153.373 83.9576 152.33 83.9576Z" fill="#E6E6E6"/>
<path d="M152.33 97.4085H92.712C91.6682 97.4085 90.822 98.2547 90.822 99.2984V102.244C90.822 103.288 91.6682 104.134 92.712 104.134H152.33C153.373 104.134 154.22 103.288 154.22 102.244V99.2984C154.22 98.2547 153.373 97.4085 152.33 97.4085Z" fill="#E6E6E6"/>
<path d="M95.9966 145.916C96.0012 148.686 95.5077 151.435 94.5395 154.03H72.8005C71.8124 154.028 70.8652 153.635 70.1665 152.936C69.4677 152.238 69.0745 151.29 69.0728 150.302V122.96C70.2874 122.764 71.5159 122.665 72.7463 122.666C75.7996 122.665 78.8231 123.267 81.644 124.435C84.465 125.603 87.0281 127.316 89.1871 129.475C91.3462 131.634 93.0588 134.197 94.2271 137.018C95.3955 139.839 95.9968 142.862 95.9966 145.916Z" fill="#C18900"/>
<path opacity="0.2" d="M288.199 53.2945V51.3104H254.944V28.3159H252.967V51.3104H214.852V28.3159H212.876V51.3104H187.704C187.425 51.9692 187.153 52.628 186.898 53.2945H212.876V92.1844H180.62C180.651 92.8509 180.698 93.5097 180.752 94.1685H212.876V125.192H188.812C189.106 125.859 189.417 126.517 189.742 127.168H212.876V153.247H214.852V127.168H252.967V153.247H254.944V127.168H288.199V125.192H254.944V125.192C254.944 121.118 255.746 117.084 257.305 113.32C258.864 109.556 261.149 106.136 264.03 103.255C266.911 100.374 270.331 98.0891 274.095 96.53C277.859 94.9709 281.893 94.1684 285.967 94.1684H288.199V92.1844H254.944V53.2945H288.199ZM252.967 125.192H214.852V94.1684H252.967V125.192ZM252.967 92.1844H214.852V91.4094C214.852 81.3007 218.868 71.606 226.016 64.4581C233.164 57.3101 242.858 53.2945 252.967 53.2945H252.967V92.1844Z" fill="black"/>
<path d="M114.981 100.884V78.7815C114.981 75.3888 113.633 72.135 111.234 69.736C108.835 67.337 105.581 65.9892 102.189 65.9892H55.3616C51.9689 65.9892 48.7151 67.3369 46.3161 69.736C43.9171 72.135 42.5693 75.3888 42.5693 78.7815V200.037C42.5693 203.43 43.9171 206.684 46.3161 209.083C48.7151 211.482 51.9689 212.83 55.3616 212.83H102.189C103.869 212.83 105.532 212.499 107.084 211.856C108.636 211.213 110.046 210.271 111.234 209.083C112.422 207.895 113.364 206.485 114.007 204.933C114.65 203.381 114.981 201.717 114.981 200.037V116.617C115.195 116.617 115.4 116.532 115.551 116.381C115.703 116.229 115.788 116.024 115.788 115.81V101.691C115.788 101.477 115.703 101.272 115.551 101.12C115.4 100.969 115.195 100.884 114.981 100.884Z" fill="#E6E6E6"/>
<path d="M112.259 78.8693V199.95C112.259 202.465 111.267 204.879 109.498 206.666C107.729 208.454 105.326 209.471 102.811 209.498C102.777 209.501 102.742 209.503 102.707 209.502H55.6517C53.1184 209.502 50.6889 208.495 48.8976 206.704C47.1063 204.913 46.0998 202.483 46.0996 199.95V78.8693C46.0998 76.3359 47.1063 73.9065 48.8976 72.1151C50.6889 70.3238 53.1184 69.3174 55.6517 69.3171H61.3621C61.0814 70.0065 60.9744 70.7543 61.0506 71.4948C61.1267 72.2352 61.3837 72.9456 61.7988 73.5634C62.214 74.1812 62.7747 74.6875 63.4314 75.0377C64.0882 75.388 64.821 75.5714 65.5654 75.572H92.3923C93.136 75.5699 93.8679 75.3854 94.5236 75.0347C95.1794 74.6839 95.7391 74.1776 96.1536 73.5601C96.5681 72.9427 96.8247 72.2329 96.9011 71.4932C96.9774 70.7534 96.871 70.0062 96.5913 69.3171H102.707C105.24 69.3174 107.67 70.3238 109.461 72.1151C111.252 73.9065 112.259 76.3359 112.259 78.8693Z" fill="white"/>
<path d="M102.929 205.765C102.929 207.019 102.89 208.264 102.811 209.498C102.777 209.501 102.742 209.503 102.707 209.502H55.6517C53.1184 209.502 50.6889 208.495 48.8976 206.704C47.1063 204.913 46.0998 202.483 46.0996 199.95V145.991C61.4309 146.764 75.8789 153.399 86.4561 164.524C97.0332 175.65 102.931 190.414 102.929 205.765Z" fill="#F2F2F2"/>
<path d="M42.8284 113.249C42.5397 113.249 42.263 113.134 42.0588 112.93C41.8547 112.725 41.7398 112.449 41.7395 112.16V104.755C41.7395 104.466 41.8542 104.189 42.0584 103.985C42.2627 103.781 42.5396 103.666 42.8284 103.666C43.1172 103.666 43.3942 103.781 43.5984 103.985C43.8026 104.189 43.9174 104.466 43.9174 104.755V112.16C43.917 112.449 43.8022 112.725 43.5981 112.93C43.3939 113.134 43.1171 113.249 42.8284 113.249Z" fill="#E6E6E6"/>
<path d="M84.9569 107.336H73.4017C72.3579 107.336 71.5117 108.183 71.5117 109.226V112.172C71.5117 113.216 72.3579 114.062 73.4017 114.062H84.9569C86.0007 114.062 86.8469 113.216 86.8469 112.172V109.226C86.8469 108.183 86.0007 107.336 84.9569 107.336Z" fill="#C18900"/>
<path d="M100.93 120.787H57.4283C56.3845 120.787 55.5383 121.634 55.5383 122.677V125.623C55.5383 126.667 56.3845 127.513 57.4283 127.513H100.93C101.973 127.513 102.82 126.667 102.82 125.623V122.677C102.82 121.634 101.973 120.787 100.93 120.787Z" fill="#E6E6E6"/>
<path d="M100.93 134.239H57.4283C56.3845 134.239 55.5383 135.085 55.5383 136.128V139.074C55.5383 140.118 56.3845 140.964 57.4283 140.964H100.93C101.973 140.964 102.82 140.118 102.82 139.074V136.128C102.82 135.085 101.973 134.239 100.93 134.239Z" fill="#E6E6E6"/>
<path d="M42.6107 98.875C42.322 98.8747 42.0452 98.7598 41.841 98.5557C41.6369 98.3515 41.5221 98.0748 41.5217 97.7861V90.3813C41.5217 90.0925 41.6365 89.8155 41.8407 89.6113C42.0449 89.4071 42.3219 89.2924 42.6107 89.2924C42.8995 89.2924 43.1764 89.4071 43.3807 89.6113C43.5849 89.8155 43.6996 90.0925 43.6996 90.3813V97.7861C43.6993 98.0748 43.5844 98.3515 43.3803 98.5557C43.1761 98.7598 42.8994 98.8747 42.6107 98.875Z" fill="#E6E6E6"/>
<path d="M71.5762 70.5627C71.5765 70.274 71.6913 69.9972 71.8955 69.7931C72.0996 69.589 72.3764 69.4741 72.6651 69.4738H80.0699C80.3587 69.4738 80.6356 69.5885 80.8398 69.7927C81.0441 69.9969 81.1588 70.2739 81.1588 70.5627C81.1588 70.8515 81.0441 71.1285 80.8398 71.3327C80.6356 71.5369 80.3587 71.6517 80.0699 71.6517H72.6651C72.3764 71.6513 72.0996 71.5365 71.8955 71.3323C71.6913 71.1282 71.5765 70.8514 71.5762 70.5627Z" fill="white"/>
<path d="M42.8284 125.881C42.5397 125.88 42.263 125.765 42.0588 125.561C41.8547 125.357 41.7398 125.08 41.7395 124.792V117.387C41.7395 117.098 41.8542 116.821 42.0584 116.617C42.2627 116.413 42.5396 116.298 42.8284 116.298C43.1172 116.298 43.3942 116.413 43.5984 116.617C43.8026 116.821 43.9174 117.098 43.9174 117.387V124.792C43.917 125.08 43.8022 125.357 43.5981 125.561C43.3939 125.765 43.1171 125.88 42.8284 125.881Z" fill="#E6E6E6"/>
<path d="M84.2076 71.6517C84.809 71.6517 85.2965 71.1641 85.2965 70.5627C85.2965 69.9613 84.809 69.4738 84.2076 69.4738C83.6062 69.4738 83.1187 69.9613 83.1187 70.5627C83.1187 71.1641 83.6062 71.6517 84.2076 71.6517Z" fill="white"/>
<path d="M374.132 212.827L0.518839 212.961C0.38155 212.96 0.250023 212.905 0.153086 212.808C0.056148 212.711 0.00170898 212.579 0.00170898 212.442C0.00170898 212.305 0.056148 212.173 0.153086 212.076C0.250023 211.979 0.38155 211.924 0.518839 211.923L374.132 211.789C374.269 211.789 374.401 211.844 374.499 211.941C374.596 212.039 374.651 212.171 374.651 212.308C374.651 212.446 374.596 212.578 374.499 212.675C374.401 212.772 374.269 212.827 374.132 212.827Z" fill="#EDE7D7"/>
<path d="M159.757 98.4859L157.792 98.907C157.779 98.085 157.676 97.2668 157.486 96.467C157.307 97.4465 156.931 98.3793 156.38 99.2084L145.109 101.615L134.288 90.1957C134.271 84.4858 137.442 80.1467 143.127 80.1467C143.47 80.1467 143.825 80.1632 144.184 80.1962C147.255 79.6822 150.407 80.3799 152.974 82.1426C155.541 83.9053 157.325 86.5954 157.949 89.6466C161.978 93.6142 160.517 95.9468 159.757 98.4859Z" fill="#520000"/>
<path d="M165.298 232.035H169.386L171.331 216.265L165.297 216.265L165.298 232.035Z" fill="#FFB6B6"/>
<path d="M164.284 230.018L170.747 229.632V232.401L176.891 236.645C177.195 236.854 177.423 237.155 177.544 237.504C177.664 237.853 177.67 238.231 177.56 238.583C177.45 238.935 177.231 239.243 176.933 239.461C176.636 239.68 176.277 239.798 175.908 239.798H168.214L166.888 237.059L166.37 239.798H163.469L164.284 230.018Z" fill="#520000"/>
<path d="M117.401 227.584L120.957 229.602L130.43 216.846L125.182 213.869L117.401 227.584Z" fill="#FFB6B6"/>
<path d="M117.514 225.33L123.325 228.184L121.959 230.592L125.209 237.315C125.37 237.647 125.42 238.022 125.352 238.385C125.285 238.747 125.103 239.079 124.834 239.331C124.565 239.583 124.222 239.742 123.856 239.786C123.49 239.829 123.119 239.755 122.798 239.573L116.106 235.775L116.304 232.739L114.502 234.865L111.979 233.434L117.514 225.33Z" fill="#520000"/>
<path d="M180.41 101.249C179.886 101.324 179.386 101.514 178.943 101.804C178.5 102.095 178.127 102.479 177.849 102.929C177.57 103.379 177.394 103.885 177.333 104.411C177.271 104.937 177.325 105.469 177.492 105.972L171.236 111.387L173.599 115.991L182.327 108.22C183.152 107.884 183.826 107.257 184.22 106.458C184.614 105.659 184.701 104.743 184.465 103.883C184.229 103.024 183.686 102.281 182.938 101.795C182.191 101.31 181.292 101.115 180.41 101.249H180.41Z" fill="#FFB6B6"/>
<path d="M174.11 119.869C172.023 123.03 167.346 126.083 160.405 128.789C160.022 128.942 159.611 129.015 159.199 129.001C158.787 128.988 158.382 128.889 158.01 128.71C155.39 127.518 153.711 123.086 153.554 122.657L148.48 115.813C148.39 115.713 146.018 113.02 146.289 110.373C146.35 109.818 146.531 109.284 146.818 108.805C147.105 108.327 147.493 107.916 147.954 107.602C151.795 104.755 160.402 114.643 161.519 115.958L167.137 112.535L171.23 110.709L174.534 106.688L179.187 111.445L175.002 118.102C174.779 118.726 174.479 119.319 174.11 119.869Z" fill="#520000"/>
<path d="M159.519 131.996C159.519 131.996 171.54 151.144 169.362 153.322C167.185 155.5 163.795 156.072 163.795 156.072L156.295 146.353L159.519 131.996Z" fill="#520000"/>
<path d="M148.891 105.844L154.556 109.677C157.19 111.458 159.17 114.05 160.198 117.059C161.225 120.067 161.244 123.329 160.25 126.349L158.655 131.197L148.891 105.844Z" fill="#520000"/>
<path d="M138.872 158.113L138.115 160.751L135.53 192.566L122.617 216.632L128.78 221.033L146.389 198.142L153.354 175.412L164.292 225.729L172.509 225.142L166.802 155.379L155.972 135.742L138.872 158.113Z" fill="#520000"/>
<path d="M147.927 106.808L155.812 113.252C157.543 114.667 158.789 116.586 159.377 118.742C159.644 119.721 159.771 120.733 159.754 121.748L159.519 135.742L166.749 155.064C166.749 155.064 147.148 162.469 144.535 155.935C141.921 149.402 147.927 106.808 147.927 106.808Z" fill="#C18900"/>
<path d="M150.285 159.327C140.493 159.327 138.107 159.4 137.952 159.369L137.798 159.338V153.449L140.179 142.868C139.901 139.583 139.249 135.252 139.308 131.543C139.521 118.138 138.862 105.044 138.862 105.044L144.045 100.26L146.399 101.792L150.766 106.159C155.843 118.652 159.871 130.414 159.896 131.169L160.215 144.175L158.908 149.402C152.997 153.574 158.398 159.327 150.285 159.327Z" fill="#520000"/>
<path opacity="0.2" d="M141.059 116.722L139.868 124.152L147.927 127.476L141.059 116.722Z" fill="black"/>
<path d="M149.177 98.8665C153.534 98.8665 157.067 95.3341 157.067 90.9767C157.067 86.6192 153.534 83.0869 149.177 83.0869C144.819 83.0869 141.287 86.6192 141.287 90.9767C141.287 95.3341 144.819 98.8665 149.177 98.8665Z" fill="#FFB6B6"/>
<path opacity="0.2" d="M135.957 131.009C138.057 133.44 140.905 135.105 144.054 135.741C147.203 136.378 150.474 135.95 153.353 134.525L155.071 133.675L135.957 131.009Z" fill="black"/>
<path d="M163.411 129.193C163.06 128.797 162.625 128.484 162.139 128.274C161.653 128.065 161.127 127.965 160.598 127.981C160.068 127.997 159.549 128.129 159.077 128.367C158.604 128.605 158.189 128.944 157.862 129.36L149.896 127.124L147.356 131.633L158.65 134.634C159.385 135.137 160.28 135.354 161.164 135.242C162.048 135.131 162.861 134.699 163.447 134.028C164.034 133.357 164.355 132.495 164.348 131.603C164.342 130.712 164.008 129.854 163.411 129.193H163.411Z" fill="#FFB6B6"/>
<path d="M144.401 134.197C140.614 134.197 135.489 131.977 129.406 127.676C129.067 127.441 128.78 127.138 128.564 126.787C128.348 126.435 128.208 126.043 128.151 125.634C127.703 122.791 130.476 118.948 130.747 118.58L133.663 110.574C133.696 110.444 134.636 106.981 136.994 105.748C137.49 105.494 138.036 105.35 138.594 105.326C139.151 105.302 139.707 105.399 140.224 105.611C144.716 107.247 141.208 119.878 140.727 121.535L146.679 124.336L150.458 126.745L155.634 127.287L154.229 133.791L146.368 133.967C145.724 134.125 145.064 134.202 144.401 134.197Z" fill="#520000"/>
<path d="M158.638 85.7863C158.006 86.6079 155.831 87.3345 153.246 87.9208C153.25 87.8671 153.25 87.8135 153.25 87.7598C153.237 86.9378 153.135 86.1196 152.945 85.3198C152.766 86.2993 152.39 87.232 151.838 88.0612C151.797 88.1231 151.756 88.185 151.71 88.247C149.493 88.6846 147.148 89.0232 145.311 89.2502C146.574 93.7999 151.417 97.5322 150.893 100.298L136.703 103.197C136.79 102.047 136.698 100.891 136.43 99.7699C136.159 101.25 135.442 102.611 134.374 103.671L133.169 103.919L132.81 102.148C129.697 94.6711 134.036 87.0167 141.145 83.0573C142.413 81.1571 144.381 79.8361 146.62 79.3829L148.391 79.0195C149.508 78.791 150.659 78.7847 151.779 79.0011C152.899 79.2174 153.965 79.6522 154.916 80.2806C155.868 80.9089 156.686 81.7186 157.325 82.6632C157.963 83.6079 158.41 84.6692 158.638 85.7863Z" fill="#520000"/>
<path d="M192.535 228.823L192.745 224.105C194.932 222.935 197.372 222.318 199.852 222.305C196.439 225.096 196.865 230.476 194.551 234.229C193.82 235.394 192.837 236.38 191.673 237.113C190.51 237.846 189.196 238.308 187.83 238.465L184.973 240.214C184.581 238.028 184.668 235.784 185.227 233.636C185.785 231.487 186.803 229.485 188.21 227.768C189.009 226.812 189.925 225.961 190.937 225.235C191.621 227.039 192.535 228.823 192.535 228.823Z" fill="#F2F2F2"/>
<path d="M199.461 240.324H99.9837C99.8464 240.323 99.7149 240.269 99.6179 240.171C99.521 240.074 99.4666 239.942 99.4666 239.805C99.4666 239.668 99.521 239.536 99.6179 239.439C99.7149 239.342 99.8464 239.287 99.9837 239.287H199.461C199.529 239.286 199.597 239.3 199.66 239.326C199.723 239.352 199.78 239.39 199.829 239.438C199.877 239.486 199.915 239.543 199.941 239.606C199.967 239.669 199.981 239.737 199.981 239.805C199.981 239.873 199.967 239.941 199.941 240.004C199.915 240.067 199.877 240.124 199.829 240.172C199.78 240.221 199.723 240.259 199.66 240.285C199.597 240.311 199.529 240.324 199.461 240.324Z" fill="#EDE7D7"/>
<path d="M207.811 92.5106L217.816 85.5049L246.563 126.56L238.114 141.779L207.811 92.5106Z" fill="#520000"/>
<path d="M258.231 85.918L268.558 92.2944L246.903 125.447L238.922 113.938L258.231 85.918Z" fill="#520000"/>
<path d="M253.822 80.1469L269.628 90.8162L268.495 92.4347L249.133 80.1961L253.822 80.1469Z" fill="#520000"/>
<path d="M206.799 91.0314L222.336 80.1522L226.949 80.2039L207.933 92.6499L206.799 91.0314Z" fill="#520000"/>
<path d="M285.37 168.32L291.576 163.975L309.406 189.439L304.166 198.878L285.37 168.32Z" fill="#CCCCCC"/>
<path d="M316.643 164.231L323.049 168.186L309.617 188.749L304.667 181.61L316.643 164.231Z" fill="#CCCCCC"/>
<path d="M313.909 160.652L323.712 167.269L323.009 168.273L311 160.682L313.909 160.652Z" fill="#CCCCCC"/>
<path d="M284.743 167.403L294.38 160.655L297.241 160.687L285.446 168.406L284.743 167.403Z" fill="#CCCCCC"/>
<path d="M68.6486 176.019L73.1005 172.902L85.8918 191.17L82.1323 197.942L68.6486 176.019Z" fill="#CCCCCC"/>
<path d="M91.0836 173.086L95.6792 175.923L86.0434 190.675L82.4918 185.554L91.0836 173.086Z" fill="#CCCCCC"/>
<path d="M89.1223 170.518L96.1555 175.265L95.6512 175.986L87.0356 170.54L89.1223 170.518Z" fill="#CCCCCC"/>
<path d="M68.1982 175.361L75.1117 170.52L77.1643 170.543L68.7025 176.081L68.1982 175.361Z" fill="#CCCCCC"/>
</g>
<defs>
<clipPath id="clip0_3_6">
<rect width="374.65" height="240.324" fill="white"/>
</clipPath>
</defs>
</svg>
