<svg width="178" height="58" viewBox="0 0 178 58" fill="none" xmlns="http://www.w3.org/2000/svg">
<path d="M2.39231 12.5932L10.8952 6.63939L35.3259 41.53L28.1455 54.4643L2.39231 12.5932Z" fill="white"/>
<path d="M45.2419 6.99049L54.0192 12.4095L35.6155 40.585L28.8322 30.8037L45.2419 6.99049Z" fill="white"/>
<path d="M41.4957 2.08585L54.9286 11.1533L53.9654 12.5288L37.5102 2.12767L41.4957 2.08585Z" fill="white"/>
<path d="M1.53247 11.3362L14.7368 2.09043L18.657 2.13435L2.49559 12.7117L1.53247 11.3362Z" fill="white"/>
<path d="M91.0646 12.6406V13.6353C90.427 13.6353 89.7766 13.8903 89.1135 14.4004C88.4504 14.9105 87.8893 15.7776 87.4303 17.0018L78.0575 41.6006H76.489L67.6135 18.2643C67.5625 18.1368 67.435 17.8307 67.231 17.3461C67.0269 16.836 66.7719 16.3132 66.4658 15.7776C66.1598 15.2165 65.79 14.7192 65.3564 14.2856C64.9483 13.8521 64.5148 13.6353 64.0557 13.6353V12.6406H74.2319V13.6353C73.4157 13.6353 72.9312 13.9796 72.7781 14.6682C72.6506 15.3568 72.8291 16.3005 73.3137 17.4992L79.4347 33.9493L86.1296 16.428C86.2571 16.1219 86.3336 15.8031 86.3591 15.4716C86.4101 15.14 86.3846 14.8467 86.2826 14.5917C86.2061 14.3111 86.0403 14.0816 85.7852 13.9031C85.5557 13.7245 85.2369 13.6353 84.8288 13.6353V12.6406H91.0646ZM99.1543 28.8995V37.5072C99.1543 37.9917 99.2691 38.3616 99.4986 38.6166C99.7281 38.8461 100.009 38.9992 100.34 39.0757C100.697 39.1267 101.067 39.1139 101.45 39.0374C101.832 38.9354 102.177 38.7951 102.483 38.6166C102.508 38.8461 102.521 39.1012 102.521 39.3817C102.546 39.6368 102.559 39.8408 102.559 39.9938C101.896 40.3764 101.118 40.7334 100.225 41.065C99.3583 41.371 98.4912 41.5496 97.6241 41.6006C96.7569 41.6261 95.9535 41.4986 95.2139 41.218C94.4743 40.912 93.926 40.3381 93.5689 39.4965C92.8548 40.3381 91.9749 40.9247 90.9292 41.2563C89.909 41.5878 88.9016 41.6771 87.907 41.5241C86.9378 41.3455 86.0834 40.9247 85.3438 40.2616C84.6042 39.5985 84.1834 38.7059 84.0813 37.5837C83.9538 36.4615 84.1196 35.4668 84.5787 34.5997C85.0378 33.707 85.7009 32.9674 86.568 32.3808C87.4606 31.7687 88.5063 31.3097 89.705 31.0036C90.9037 30.6976 92.1917 30.5445 93.5689 30.5445V28.7847C93.5689 27.6116 93.4924 26.6296 93.3394 25.839C93.2118 25.0484 92.8675 24.6531 92.3064 24.6531C91.8984 24.6531 91.5413 24.8826 91.2353 25.3417C90.9547 25.7753 90.7379 26.3363 90.5849 27.025C90.4064 27.8411 90.1258 28.4532 89.7433 28.8613C89.3607 29.2693 88.9526 29.5244 88.5191 29.6264C88.0855 29.7284 87.6519 29.7029 87.2184 29.5499C86.8103 29.3713 86.466 29.1163 86.1854 28.7847C85.9304 28.4277 85.7901 28.0069 85.7646 27.5223C85.7646 27.0122 85.9432 26.4766 86.3002 25.9155C86.7593 25.2269 87.4606 24.6021 88.4043 24.041C89.348 23.4799 90.6232 23.1993 92.2299 23.1993C94.3978 23.1993 96.0938 23.6839 97.318 24.6531C98.5422 25.5967 99.1543 27.0122 99.1543 28.8995ZM93.5689 38.0428V31.96C92.7528 31.96 92.0259 32.1385 91.3883 32.4956C90.7507 32.8272 90.2279 33.2607 89.8198 33.7963C89.4372 34.3319 89.1694 34.9185 89.0164 35.5561C88.8634 36.1937 88.8634 36.8058 89.0164 37.3924C89.2204 38.234 89.756 38.7569 90.6232 38.9609C91.4903 39.1649 92.4722 38.8589 93.5689 38.0428ZM103.171 15.4716L109.79 12.6024H110.899V36.3977C110.899 36.7803 110.912 37.2139 110.937 37.6984C110.988 38.183 111.078 38.6421 111.205 39.0757C111.333 39.5092 111.524 39.8791 111.779 40.1851C112.034 40.4657 112.391 40.6059 112.85 40.6059V41.6006H103.362V40.6059C103.796 40.6059 104.14 40.4657 104.395 40.1851C104.65 39.8791 104.842 39.5092 104.969 39.0757C105.122 38.6421 105.212 38.183 105.237 37.6984C105.288 37.2139 105.314 36.7803 105.314 36.3977V20.4066C105.314 19.8455 105.237 19.3737 105.084 18.9911C104.957 18.5831 104.791 18.2388 104.587 17.9582C104.383 17.6522 104.153 17.3844 103.898 17.1548C103.643 16.9253 103.401 16.6958 103.171 16.4662V15.4716ZM114.08 26.0303L120.699 23.1993H121.808V36.3977C121.808 36.7803 121.821 37.2139 121.846 37.6984C121.897 38.183 121.987 38.6421 122.114 39.0757C122.242 39.5092 122.433 39.8791 122.688 40.1851C122.968 40.4657 123.325 40.6059 123.759 40.6059V41.6006H114.271V40.6059C114.705 40.6059 115.049 40.4657 115.304 40.1851C115.559 39.8791 115.751 39.5092 115.878 39.0757C116.031 38.6421 116.121 38.183 116.146 37.6984C116.197 37.2139 116.223 36.7803 116.223 36.3977V30.9654C116.223 30.4043 116.146 29.9197 115.993 29.5116C115.866 29.1035 115.7 28.7592 115.496 28.4787C115.292 28.1982 115.062 27.9431 114.807 27.7136C114.552 27.484 114.31 27.2545 114.08 27.025V26.0303ZM118.862 21.0952C118.072 21.0952 117.409 20.8274 116.873 20.2919C116.337 19.7308 116.07 19.0677 116.07 18.3025C116.07 17.5374 116.337 16.8871 116.873 16.3515C117.409 15.7904 118.072 15.5098 118.862 15.5098C119.627 15.5098 120.278 15.7904 120.813 16.3515C121.374 16.8871 121.655 17.5374 121.655 18.3025C121.655 19.0677 121.374 19.7308 120.813 20.2919C120.278 20.8274 119.627 21.0952 118.862 21.0952ZM133.313 23.2376C134.588 23.2376 135.787 23.4671 136.909 23.9262C138.032 24.3598 139.001 24.9846 139.817 25.8008C140.658 26.5914 141.322 27.5605 141.806 28.7082C142.291 29.8304 142.533 31.0674 142.533 32.4191C142.533 33.7708 142.291 35.0205 141.806 36.1682C141.322 37.2904 140.658 38.2595 139.817 39.0757C139.001 39.8663 138.032 40.4912 136.909 40.9502C135.787 41.3838 134.588 41.6006 133.313 41.6006C132.038 41.6006 130.839 41.3838 129.717 40.9502C128.595 40.4912 127.613 39.8663 126.771 39.0757C125.93 38.2595 125.267 37.2904 124.782 36.1682C124.298 35.0205 124.055 33.7708 124.055 32.4191C124.055 31.0674 124.298 29.8304 124.782 28.7082C125.267 27.5605 125.93 26.5914 126.771 25.8008C127.613 24.9846 128.595 24.3598 129.717 23.9262C130.839 23.4671 132.038 23.2376 133.313 23.2376ZM133.313 39.8408C133.9 39.8408 134.41 39.6495 134.843 39.267C135.303 38.8589 135.685 38.3233 135.991 37.6602C136.297 36.9971 136.527 36.2192 136.68 35.3266C136.858 34.4084 136.948 33.4393 136.948 32.4191C136.948 31.3989 136.858 30.4425 136.68 29.5499C136.527 28.6317 136.297 27.8411 135.991 27.178C135.685 26.4894 135.303 25.9538 134.843 25.5712C134.41 25.1632 133.9 24.9591 133.313 24.9591C132.727 24.9591 132.204 25.1632 131.745 25.5712C131.286 25.9538 130.903 26.4894 130.597 27.178C130.291 27.8411 130.049 28.6317 129.87 29.5499C129.717 30.4425 129.641 31.3989 129.641 32.4191C129.641 33.4393 129.717 34.4084 129.87 35.3266C130.049 36.2192 130.291 36.9971 130.597 37.6602C130.903 38.3233 131.286 38.8589 131.745 39.267C132.204 39.6495 132.727 39.8408 133.313 39.8408ZM143.071 39.9938C143.658 38.8206 144.257 37.6984 144.869 36.6273C145.507 35.5561 146.132 34.5104 146.744 33.4903C147.381 32.4446 148.019 31.4117 148.657 30.3915C149.32 29.3458 149.957 28.2619 150.569 27.1397C150.952 26.4766 151.194 25.9665 151.296 25.6095C151.424 25.2524 151.437 24.9974 151.335 24.8444C151.233 24.6913 151.029 24.6021 150.723 24.5766C150.442 24.5511 150.072 24.5383 149.613 24.5383C149.613 24.5383 149.537 24.5383 149.384 24.5383C149.256 24.5383 149.103 24.5383 148.924 24.5383C148.746 24.5383 148.58 24.5511 148.427 24.5766C148.3 24.5766 148.236 24.5766 148.236 24.5766C147.216 24.6021 146.412 24.9464 145.826 25.6095C145.239 26.2471 144.767 27.229 144.41 28.5552C144.308 28.5297 144.155 28.4914 143.951 28.4404C143.773 28.3894 143.632 28.3639 143.53 28.3639L144.181 23.1993H157.57V24.8444C156.984 25.992 156.372 27.1015 155.734 28.1726C155.122 29.2183 154.497 30.264 153.86 31.3097C153.222 32.3298 152.584 33.3627 151.947 34.4084C151.309 35.4541 150.684 36.538 150.072 37.6602C149.715 38.3488 149.498 38.8716 149.422 39.2287C149.345 39.5858 149.384 39.8408 149.537 39.9938C149.69 40.1468 149.932 40.2361 150.263 40.2616C150.595 40.2616 150.978 40.2616 151.411 40.2616H152.406C153.426 40.2106 154.344 39.8408 155.16 39.1522C156.002 38.4636 156.601 37.4562 156.958 36.1299L157.8 36.3595L157.035 41.6006H143.071V39.9938ZM163.937 31.6922H167.648C168.591 31.6922 169.344 31.5392 169.905 31.2331C170.491 30.9271 170.899 30.5318 171.129 30.0472C171.384 29.5371 171.473 28.9888 171.397 28.4022C171.32 27.8156 171.116 27.229 170.785 26.6424C170.555 26.2343 170.224 25.89 169.79 25.6095C169.356 25.3289 168.897 25.1377 168.413 25.0356C167.954 24.9336 167.482 24.9464 166.997 25.0739C166.513 25.2014 166.092 25.4565 165.735 25.839C165.174 26.4256 164.74 27.229 164.434 28.2492C164.154 29.2693 163.988 30.417 163.937 31.6922ZM176.791 33.146H163.937C164.013 34.2171 164.256 35.148 164.664 35.9387C165.097 36.7038 165.62 37.3286 166.232 37.8132C166.87 38.2978 167.558 38.6294 168.298 38.8079C169.063 38.9864 169.828 39.0247 170.593 38.9226C171.384 38.8206 172.124 38.5783 172.812 38.1958C173.526 37.7877 174.151 37.2521 174.687 36.589L175.681 37.3159C175.401 37.826 174.98 38.3361 174.419 38.8461C173.858 39.3562 173.208 39.8153 172.468 40.2234C171.754 40.6314 170.976 40.963 170.134 41.218C169.293 41.4731 168.438 41.6006 167.571 41.6006C166.296 41.6006 165.097 41.3838 163.975 40.9502C162.853 40.4912 161.871 39.8663 161.029 39.0757C160.213 38.2595 159.563 37.2904 159.078 36.1682C158.594 35.0205 158.351 33.7708 158.351 32.4191C158.351 31.0674 158.594 29.8304 159.078 28.7082C159.563 27.5605 160.213 26.5914 161.029 25.8008C161.871 24.9846 162.853 24.3598 163.975 23.9262C165.097 23.4671 166.296 23.2376 167.571 23.2376C169.101 23.2376 170.44 23.5054 171.588 24.041C172.761 24.5511 173.73 25.2652 174.495 26.1833C175.261 27.076 175.834 28.1216 176.217 29.3203C176.6 30.519 176.791 31.7942 176.791 33.146Z" fill="white"/>
<path d="M77.32 50.272H77.728L78.984 55.464L80.576 50.272H80.912L82.496 55.464L83.76 50.272H84.176L82.736 56H82.304L80.744 50.88L79.184 56H78.752L77.32 50.272ZM90.9028 50.272H94.0868V50.616H91.2868V52.976H93.9668V53.296H91.2868V55.648H94.0868V56H90.9028V50.272ZM102.988 50.272C103.473 50.272 103.844 50.4053 104.1 50.672C104.356 50.9333 104.484 51.304 104.484 51.784C104.484 52.1093 104.388 52.3893 104.196 52.624C104.009 52.8587 103.793 53.0133 103.548 53.088C103.884 53.1627 104.164 53.3173 104.388 53.552C104.617 53.7813 104.732 54.0773 104.732 54.44C104.732 54.936 104.588 55.32 104.3 55.592C104.017 55.864 103.625 56 103.124 56H100.964V50.272H102.988ZM102.9 52.976C103.108 52.976 103.302 52.9227 103.484 52.816C103.665 52.7093 103.812 52.568 103.924 52.392C104.036 52.2107 104.092 52.0133 104.092 51.8C104.092 51.4213 103.988 51.1307 103.78 50.928C103.577 50.72 103.284 50.616 102.9 50.616H101.34V52.976H102.9ZM103.076 55.656C103.46 55.656 103.766 55.5493 103.996 55.336C104.225 55.1173 104.34 54.816 104.34 54.432C104.34 54.2187 104.278 54.0267 104.156 53.856C104.038 53.68 103.881 53.544 103.684 53.448C103.492 53.3467 103.289 53.296 103.076 53.296H101.34V55.656H103.076ZM121.525 56.096C121.147 56.096 120.803 56.0293 120.493 55.896C120.189 55.7627 119.949 55.576 119.773 55.336C119.603 55.0907 119.517 54.8107 119.517 54.496H119.933C119.933 54.7413 120 54.96 120.133 55.152C120.272 55.3387 120.461 55.4853 120.701 55.592C120.947 55.6987 121.221 55.752 121.525 55.752C121.84 55.752 122.125 55.7013 122.381 55.6C122.637 55.4933 122.837 55.3467 122.981 55.16C123.131 54.968 123.205 54.7493 123.205 54.504C123.205 54.2747 123.133 54.0907 122.989 53.952C122.851 53.808 122.675 53.696 122.461 53.616C122.253 53.536 121.971 53.448 121.613 53.352C121.192 53.2347 120.853 53.1253 120.597 53.024C120.341 52.9173 120.123 52.7627 119.941 52.56C119.765 52.352 119.677 52.0827 119.677 51.752C119.677 51.4587 119.763 51.192 119.933 50.952C120.104 50.712 120.339 50.5227 120.637 50.384C120.936 50.2453 121.267 50.176 121.629 50.176C121.939 50.176 122.237 50.2347 122.525 50.352C122.813 50.464 123.053 50.64 123.245 50.88C123.437 51.1147 123.541 51.408 123.557 51.76H123.157C123.136 51.4773 123.048 51.2427 122.893 51.056C122.739 50.8693 122.549 50.7333 122.325 50.648C122.101 50.5627 121.869 50.52 121.629 50.52C121.341 50.52 121.08 50.576 120.845 50.688C120.611 50.7947 120.427 50.9413 120.293 51.128C120.16 51.3147 120.093 51.52 120.093 51.744C120.093 51.9947 120.168 52.2 120.317 52.36C120.467 52.5147 120.651 52.6373 120.869 52.728C121.093 52.8133 121.395 52.9067 121.773 53.008C122.184 53.12 122.509 53.2267 122.749 53.328C122.995 53.424 123.203 53.5653 123.373 53.752C123.544 53.9387 123.629 54.1867 123.629 54.496C123.629 54.8107 123.539 55.0907 123.357 55.336C123.176 55.576 122.925 55.7627 122.605 55.896C122.285 56.0293 121.925 56.096 121.525 56.096ZM131.598 50.616H129.846V50.272H133.726V50.616H131.974V56H131.598V50.616ZM141.829 56.096C141.157 56.096 140.664 55.9333 140.349 55.608C140.04 55.2827 139.885 54.784 139.885 54.112V50.272H140.253V54.072C140.253 54.632 140.378 55.048 140.629 55.32C140.88 55.592 141.28 55.728 141.829 55.728C142.378 55.728 142.776 55.592 143.021 55.32C143.272 55.048 143.397 54.632 143.397 54.072V50.272H143.773V54.112C143.773 54.784 143.616 55.2827 143.301 55.608C142.992 55.9333 142.501 56.096 141.829 56.096ZM153.125 50.272C153.615 50.272 154.023 50.4053 154.349 50.672C154.674 50.9333 154.914 51.2827 155.069 51.72C155.223 52.152 155.301 52.624 155.301 53.136C155.301 53.648 155.223 54.1227 155.069 54.56C154.914 54.992 154.674 55.3413 154.349 55.608C154.023 55.8693 153.615 56 153.125 56H151.253V50.272H153.125ZM153.109 55.64C153.525 55.64 153.866 55.5227 154.133 55.288C154.405 55.048 154.599 54.7413 154.717 54.368C154.839 53.9893 154.901 53.5787 154.901 53.136C154.901 52.6987 154.839 52.2907 154.717 51.912C154.599 51.5333 154.405 51.2267 154.133 50.992C153.866 50.752 153.525 50.632 153.109 50.632H151.637V55.64H153.109ZM162.501 50.272H162.885V56H162.501V50.272ZM172.796 56.096C172.188 56.096 171.681 55.96 171.276 55.688C170.876 55.4107 170.58 55.0507 170.388 54.608C170.201 54.16 170.108 53.6693 170.108 53.136C170.108 52.6027 170.201 52.1147 170.388 51.672C170.58 51.224 170.876 50.864 171.276 50.592C171.681 50.3147 172.188 50.176 172.796 50.176C173.404 50.176 173.908 50.3147 174.308 50.592C174.708 50.864 175.001 51.224 175.188 51.672C175.38 52.1147 175.476 52.6027 175.476 53.136C175.476 53.6693 175.38 54.16 175.188 54.608C175.001 55.0507 174.708 55.4107 174.308 55.688C173.908 55.96 173.404 56.096 172.796 56.096ZM172.796 55.728C173.329 55.728 173.767 55.6053 174.108 55.36C174.455 55.1147 174.705 54.7973 174.86 54.408C175.015 54.0187 175.092 53.5947 175.092 53.136C175.092 52.6773 175.015 52.2533 174.86 51.864C174.705 51.4693 174.455 51.1493 174.108 50.904C173.767 50.6587 173.329 50.536 172.796 50.536C172.263 50.536 171.823 50.6587 171.476 50.904C171.135 51.1493 170.887 51.4693 170.732 51.864C170.577 52.2533 170.5 52.6773 170.5 53.136C170.5 53.5947 170.577 54.0187 170.732 54.408C170.887 54.7973 171.135 55.1147 171.476 55.36C171.823 55.6053 172.263 55.728 172.796 55.728Z" fill="white"/>
</svg>
