<svg width="336" height="216" viewBox="0 0 336 216" fill="none" xmlns="http://www.w3.org/2000/svg">
<g clip-path="url(#clip0_13_54)">
<path d="M314.074 190.436H229.169C226.08 190.433 223.119 189.204 220.934 187.02C218.75 184.836 217.522 181.874 217.518 178.785V44.8576C217.522 41.7686 218.75 38.8071 220.934 36.6228C223.119 34.4386 226.08 33.21 229.169 33.2065H314.074C317.163 33.21 320.124 34.4386 322.308 36.6228C324.493 38.8071 325.721 41.7686 325.725 44.8576V178.785C325.721 181.874 324.493 184.836 322.308 187.02C320.124 189.204 317.163 190.433 314.074 190.436V190.436Z" fill="#E6E6E6"/>
<path d="M315.481 40.1588H229.009C228.042 40.16 227.115 40.5447 226.431 41.2284C225.747 41.9121 225.363 42.8391 225.361 43.8061V179.48C225.363 180.447 225.748 181.374 226.431 182.057C227.115 182.741 228.042 183.126 229.009 183.127H315.481C316.448 183.126 317.375 182.741 318.059 182.058C318.743 181.374 319.127 180.447 319.129 179.48V43.8061C319.127 42.8392 318.743 41.9121 318.059 41.2284C317.375 40.5447 316.448 40.16 315.481 40.1588V40.1588Z" fill="white"/>
<path d="M231.244 33.2065C231.244 32.9702 231.338 32.7437 231.506 32.5766C231.673 32.4095 231.899 32.3155 232.135 32.3152H238.196C238.433 32.3152 238.66 32.4091 238.827 32.5763C238.994 32.7434 239.088 32.9701 239.088 33.2065C239.088 33.4429 238.994 33.6696 238.827 33.8368C238.66 34.0039 238.433 34.0978 238.196 34.0978H232.135C231.899 34.0975 231.673 34.0035 231.506 33.8365C231.338 33.6694 231.244 33.4428 231.244 33.2065Z" fill="#E6E6E6"/>
<path d="M241.227 33.2065C241.227 32.9702 241.321 32.7437 241.488 32.5766C241.656 32.4095 241.882 32.3155 242.118 32.3152H248.179C248.416 32.3152 248.642 32.4091 248.81 32.5763C248.977 32.7434 249.071 32.9701 249.071 33.2065C249.071 33.4429 248.977 33.6696 248.81 33.8368C248.642 34.0039 248.416 34.0978 248.179 34.0978H242.118C241.882 34.0976 241.656 34.0036 241.488 33.8365C241.321 33.6694 241.227 33.4428 241.227 33.2065Z" fill="#E6E6E6"/>
<path d="M301.124 33.2065C301.124 32.9702 301.218 32.7437 301.385 32.5766C301.552 32.4095 301.779 32.3155 302.015 32.3152H308.076C308.312 32.3152 308.539 32.4091 308.706 32.5763C308.873 32.7434 308.967 32.9701 308.967 33.2065C308.967 33.4429 308.873 33.6696 308.706 33.8368C308.539 34.0039 308.312 34.0978 308.076 34.0978H302.015C301.779 34.0976 301.552 34.0036 301.385 33.8365C301.218 33.6694 301.124 33.4428 301.124 33.2065V33.2065Z" fill="#E6E6E6"/>
<path d="M284.228 180.332C284.228 181.27 284.21 182.204 284.167 183.127H229.009C228.042 183.126 227.115 182.741 226.431 182.057C225.748 181.374 225.363 180.447 225.361 179.48V111.19C241.787 113.844 256.732 122.259 267.518 134.928C278.305 147.597 284.228 163.693 284.228 180.332Z" fill="#F2F2F2"/>
<path d="M282.355 75.0243H261.783C260.847 75.0243 260.088 75.7832 260.088 76.7193V78.8344C260.088 79.7705 260.847 80.5293 261.783 80.5293H282.355C283.291 80.5293 284.05 79.7705 284.05 78.8344V76.7193C284.05 75.7832 283.291 75.0243 282.355 75.0243Z" fill="#3CA6A6"/>
<path d="M295.429 86.0344H248.709C247.773 86.0344 247.014 86.7933 247.014 87.7294V89.8445C247.014 90.7806 247.773 91.5394 248.709 91.5394H295.429C296.365 91.5394 297.124 90.7806 297.124 89.8445V87.7294C297.124 86.7933 296.365 86.0344 295.429 86.0344Z" fill="#E6E6E6"/>
<path d="M295.429 97.0445H248.709C247.773 97.0445 247.014 97.8033 247.014 98.7394V100.855C247.014 101.791 247.773 102.549 248.709 102.549H295.429C296.365 102.549 297.124 101.791 297.124 100.855V98.7394C297.124 97.8033 296.365 97.0445 295.429 97.0445Z" fill="#E6E6E6"/>
<path d="M311.159 52.1369H233.331C233.162 52.1332 233.002 52.0637 232.884 51.9434C232.767 51.823 232.701 51.6612 232.701 51.4928C232.701 51.3244 232.767 51.1627 232.884 51.0423C233.002 50.9219 233.162 50.8524 233.331 50.8487H311.159C311.327 50.8524 311.487 50.9219 311.605 51.0423C311.723 51.1627 311.789 51.3244 311.789 51.4928C311.789 51.6612 311.723 51.823 311.605 51.9434C311.487 52.0637 311.327 52.1332 311.159 52.1369V52.1369Z" fill="#EDE7D7"/>
<path d="M237.483 48.9861C238.529 48.9861 239.377 48.1197 239.377 47.0508C239.377 45.982 238.529 45.1155 237.483 45.1155C236.438 45.1155 235.59 45.982 235.59 47.0508C235.59 48.1197 236.438 48.9861 237.483 48.9861Z" fill="#3F3D56"/>
<path d="M244.023 48.9861C245.069 48.9861 245.916 48.1197 245.916 47.0508C245.916 45.982 245.069 45.1155 244.023 45.1155C242.977 45.1155 242.13 45.982 242.13 47.0508C242.13 48.1197 242.977 48.9861 244.023 48.9861Z" fill="#3F3D56"/>
<path d="M250.563 48.9861C251.609 48.9861 252.456 48.1197 252.456 47.0508C252.456 45.982 251.609 45.1155 250.563 45.1155C249.517 45.1155 248.67 45.982 248.67 47.0508C248.67 48.1197 249.517 48.9861 250.563 48.9861Z" fill="#3F3D56"/>
<path d="M308.116 45.8633H303.88C303.796 45.8649 303.716 45.8995 303.657 45.9595C303.598 46.0194 303.565 46.1001 303.565 46.1841C303.565 46.2681 303.598 46.3487 303.657 46.4087C303.716 46.4687 303.796 46.5032 303.88 46.5048H308.116C308.2 46.5032 308.28 46.4687 308.339 46.4087C308.398 46.3487 308.431 46.2681 308.431 46.1841C308.431 46.1001 308.398 46.0194 308.339 45.9595C308.28 45.8995 308.2 45.8649 308.116 45.8633V45.8633Z" fill="#3F3D56"/>
<path d="M308.116 47.0674H303.88C303.796 47.0691 303.716 47.1036 303.657 47.1636C303.598 47.2235 303.565 47.3042 303.565 47.3882C303.565 47.4722 303.598 47.5528 303.657 47.6128C303.716 47.6728 303.796 47.7073 303.88 47.709H308.116C308.2 47.7073 308.28 47.6728 308.339 47.6128C308.398 47.5528 308.431 47.4722 308.431 47.3882C308.431 47.3042 308.398 47.2235 308.339 47.1636C308.28 47.1036 308.2 47.0691 308.116 47.0674V47.0674Z" fill="#3F3D56"/>
<path d="M308.116 48.2699H303.88C303.796 48.2716 303.716 48.3061 303.657 48.3661C303.598 48.4261 303.565 48.5067 303.565 48.5907C303.565 48.6747 303.598 48.7554 303.657 48.8153C303.716 48.8753 303.796 48.9098 303.88 48.9115H308.116C308.2 48.9098 308.28 48.8753 308.339 48.8153C308.398 48.7554 308.431 48.6747 308.431 48.5907C308.431 48.5067 308.398 48.4261 308.339 48.3661C308.28 48.3061 308.2 48.2716 308.116 48.2699Z" fill="#3F3D56"/>
<path d="M181.841 111.241H136.719C136.08 111.242 135.469 111.497 135.018 111.948C134.567 112.4 134.314 113.013 134.315 113.651V184.932H184.252V113.651C184.252 113.335 184.189 113.021 184.068 112.729C183.947 112.436 183.77 112.17 183.546 111.947C183.322 111.723 183.056 111.545 182.764 111.424C182.471 111.303 182.158 111.241 181.841 111.241ZM159.432 151.742C158.021 151.735 156.669 151.172 155.672 150.174C154.674 149.176 154.11 147.825 154.104 146.414V138.192C154.105 136.78 154.667 135.426 155.666 134.427C156.665 133.429 158.02 132.868 159.432 132.868C160.844 132.868 162.199 133.429 163.198 134.427C164.197 135.426 164.759 136.78 164.76 138.192V146.414C164.754 147.825 164.19 149.176 163.192 150.174C162.194 151.172 160.843 151.735 159.432 151.742V151.742Z" fill="#E6E6E6"/>
<path d="M134.16 182.652V189.529C134.16 189.885 134.302 190.227 134.554 190.479C134.806 190.731 135.148 190.873 135.504 190.873H183.062C183.418 190.871 183.759 190.729 184.01 190.478C184.262 190.226 184.404 189.885 184.406 189.529V182.652L134.16 182.652Z" fill="#CCCCCC"/>
<path d="M256.56 0H63.6786C62.0215 0.00263635 60.4329 0.662105 59.2612 1.83389C58.0894 3.00567 57.4299 4.59419 57.4272 6.25135V136.409C57.4288 138.066 58.088 139.655 59.26 140.827C60.432 141.999 62.0211 142.658 63.6786 142.66H256.56C258.218 142.658 259.807 141.999 260.979 140.827C262.151 139.655 262.81 138.066 262.812 136.409V6.25135C262.809 4.59419 262.149 3.00567 260.978 1.83389C259.806 0.662105 258.217 0.00263532 256.56 0Z" fill="#E6E6E6"/>
<path d="M254.95 4.51526H65.29C64.4027 4.51719 63.5524 4.87099 62.9257 5.49905C62.2989 6.12712 61.9469 6.97815 61.9468 7.86544V134.797C61.9483 135.683 62.301 136.532 62.9277 137.159C63.5543 137.786 64.4038 138.138 65.29 138.14H254.95C255.836 138.138 256.686 137.786 257.312 137.159C257.939 136.532 258.292 135.683 258.293 134.797V7.86544C258.293 6.97815 257.941 6.12712 257.314 5.49905C256.688 4.87099 255.837 4.51719 254.95 4.51526Z" fill="white"/>
<path d="M258.294 7.86544V134.797C258.292 135.683 257.939 136.532 257.313 137.159C256.686 137.786 255.837 138.138 254.95 138.14H188.072C180.674 131.279 174.604 123.112 170.167 114.049C169.876 113.465 169.597 112.875 169.333 112.277C165.291 103.505 162.843 94.0837 162.105 84.4537C162.056 83.8629 162.014 83.2721 161.987 82.6743C161.896 81.1452 161.855 79.5952 161.855 78.0383C161.841 67.6836 163.797 57.4208 167.617 47.7964C167.846 47.1987 168.089 46.6078 168.339 46.017C176.027 27.9545 189.918 13.235 207.506 4.51526H254.95C255.838 4.51719 256.688 4.87099 257.315 5.49905C257.942 6.12712 258.294 6.97815 258.294 7.86544Z" fill="#F2E3D5"/>
<path d="M245.416 22.0035H67.9521C67.7675 21.9996 67.5918 21.9235 67.4627 21.7916C67.3335 21.6597 67.2612 21.4824 67.2612 21.2978C67.2612 21.1132 67.3335 20.936 67.4627 20.804C67.5918 20.6721 67.7675 20.596 67.9521 20.5921H245.416C245.601 20.596 245.776 20.6721 245.906 20.804C246.035 20.936 246.107 21.1132 246.107 21.2978C246.107 21.4824 246.035 21.6597 245.906 21.7916C245.776 21.9235 245.601 21.9996 245.416 22.0035V22.0035Z" fill="#EDE7D7"/>
<path d="M80.0329 16.9888C82.317 16.9888 84.1687 15.0959 84.1687 12.7608C84.1687 10.4257 82.317 8.53271 80.0329 8.53271C77.7487 8.53271 75.897 10.4257 75.897 12.7608C75.897 15.0959 77.7487 16.9888 80.0329 16.9888Z" fill="#3F3D56"/>
<path d="M94.32 16.9888C96.6042 16.9888 98.4558 15.0959 98.4558 12.7608C98.4558 10.4257 96.6042 8.53271 94.32 8.53271C92.0358 8.53271 90.1841 10.4257 90.1841 12.7608C90.1841 15.0959 92.0358 16.9888 94.32 16.9888Z" fill="#3F3D56"/>
<path d="M108.608 16.9888C110.892 16.9888 112.743 15.0959 112.743 12.7608C112.743 10.4257 110.892 8.53271 108.608 8.53271C106.323 8.53271 104.472 10.4257 104.472 12.7608C104.472 15.0959 106.323 16.9888 108.608 16.9888Z" fill="#3F3D56"/>
<path d="M236.814 9.58066H226.665C226.464 9.58464 226.272 9.66735 226.131 9.81103C225.991 9.95471 225.912 10.1479 225.912 10.3491C225.912 10.5503 225.991 10.7435 226.131 10.8872C226.272 11.0309 226.464 11.1136 226.665 11.1176H236.814C237.015 11.1136 237.207 11.0309 237.348 10.8872C237.489 10.7435 237.568 10.5503 237.568 10.3491C237.568 10.1479 237.489 9.95471 237.348 9.81103C237.207 9.66735 237.015 9.58464 236.814 9.58066V9.58066Z" fill="#3F3D56"/>
<path d="M236.814 12.4653H226.665C226.464 12.4693 226.272 12.552 226.131 12.6957C225.991 12.8393 225.912 13.0325 225.912 13.2337C225.912 13.435 225.991 13.6282 226.131 13.7718C226.272 13.9155 226.464 13.9982 226.665 14.0022H236.814C237.015 13.9982 237.207 13.9155 237.348 13.7718C237.489 13.6282 237.568 13.435 237.568 13.2337C237.568 13.0325 237.489 12.8393 237.348 12.6957C237.207 12.552 237.015 12.4693 236.814 12.4653V12.4653Z" fill="#3F3D56"/>
<path d="M236.814 15.3461H226.665C226.464 15.3501 226.272 15.4328 226.131 15.5765C225.991 15.7202 225.912 15.9134 225.912 16.1146C225.912 16.3158 225.991 16.509 226.131 16.6527C226.272 16.7964 226.464 16.8791 226.665 16.8831H236.814C237.015 16.8791 237.207 16.7964 237.348 16.6527C237.489 16.509 237.568 16.3158 237.568 16.1146C237.568 15.9134 237.489 15.7202 237.348 15.5765C237.207 15.4328 237.015 15.3501 236.814 15.3461V15.3461Z" fill="#3F3D56"/>
<path d="M122.29 63.2328H97.4728C96.5367 63.2328 95.7778 63.9916 95.7778 64.9277V67.5695C95.7778 68.5056 96.5367 69.2644 97.4728 69.2644H122.29C123.226 69.2644 123.985 68.5056 123.985 67.5695V64.9277C123.985 63.9916 123.226 63.2328 122.29 63.2328Z" fill="#3CA6A6"/>
<path d="M136.615 75.2962H83.1476C82.2115 75.2962 81.4526 76.055 81.4526 76.9911V79.6329C81.4526 80.569 82.2115 81.3278 83.1476 81.3278H136.615C137.551 81.3278 138.31 80.569 138.31 79.6329V76.9911C138.31 76.055 137.551 75.2962 136.615 75.2962Z" fill="#E6E6E6"/>
<path d="M136.615 87.3595H83.1476C82.2115 87.3595 81.4526 88.1184 81.4526 89.0545V91.6962C81.4526 92.6323 82.2115 93.3912 83.1476 93.3912H136.615C137.551 93.3912 138.31 92.6323 138.31 91.6962V89.0545C138.31 88.1184 137.551 87.3595 136.615 87.3595Z" fill="#E6E6E6"/>
<path d="M86.093 130.863C86.0972 133.347 85.6546 135.812 84.7863 138.14H65.29C64.4038 138.138 63.5543 137.786 62.9277 137.159C62.301 136.532 61.9483 135.683 61.9468 134.797V110.275C63.0361 110.099 64.1379 110.011 65.2413 110.011C67.9797 110.011 70.6912 110.55 73.2211 111.598C75.7511 112.646 78.0498 114.182 79.9861 116.118C81.9224 118.054 83.4583 120.353 84.5061 122.883C85.554 125.413 86.0932 128.124 86.093 130.863V130.863Z" fill="#3CA6A6"/>
<path opacity="0.2" d="M258.468 47.7964V46.0171H228.643V25.3948H226.87V46.0171H192.687V25.3948H190.915V46.0171H168.34C168.089 46.6079 167.846 47.1987 167.617 47.7964H190.915V82.6744H161.987C162.015 83.2721 162.056 83.8629 162.105 84.4537H190.915V112.277H169.334C169.598 112.875 169.876 113.465 170.168 114.049H190.915V137.438H192.687V114.049H226.87V137.438H228.643V114.049H258.468V112.277H228.643V112.277C228.643 108.623 229.362 105.005 230.761 101.629C232.159 98.2537 234.208 95.1865 236.792 92.6029C239.376 90.0193 242.443 87.9698 245.818 86.5716C249.194 85.1734 252.812 84.4537 256.466 84.4537H258.468V82.6743H228.643V47.7964H258.468ZM226.87 112.277H192.687V84.4537H226.87V112.277ZM226.87 82.6744H192.687V81.9793C192.687 72.9134 196.289 64.2189 202.699 57.8083C209.11 51.3978 217.804 47.7964 226.87 47.7964H226.87V82.6744Z" fill="black"/>
<path d="M103.119 90.4764V70.6541C103.119 67.6114 101.91 64.6933 99.7589 62.5418C97.6074 60.3902 94.6893 59.1815 91.6465 59.1815H49.6503C46.6076 59.1815 43.6895 60.3902 41.538 62.5418C39.3864 64.6933 38.1777 67.6114 38.1777 70.6541V179.401C38.1777 182.443 39.3864 185.362 41.538 187.513C43.6895 189.665 46.6076 190.873 49.6503 190.873H91.6465C93.1531 190.873 94.645 190.577 96.0369 190C97.4288 189.423 98.6936 188.578 99.7589 187.513C100.824 186.448 101.669 185.183 102.246 183.791C102.822 182.399 103.119 180.907 103.119 179.401V104.586C103.311 104.586 103.495 104.51 103.631 104.374C103.766 104.239 103.843 104.055 103.843 103.863V91.2C103.843 91.0081 103.766 90.824 103.631 90.6883C103.495 90.5526 103.311 90.4764 103.119 90.4764V90.4764Z" fill="#E6E6E6"/>
<path d="M100.678 70.7328V179.322C100.678 181.578 99.7883 183.743 98.2018 185.346C96.6153 186.949 94.4603 187.862 92.2048 187.885C92.1737 187.888 92.1424 187.89 92.1111 187.889H49.9104C47.6385 187.889 45.4596 186.986 43.8531 185.38C42.2466 183.773 41.344 181.594 41.3438 179.322V70.7328C41.344 68.4609 42.2466 66.282 43.8531 64.6755C45.4596 63.069 47.6385 62.1663 49.9104 62.1661H55.0317C54.7799 62.7844 54.684 63.4551 54.7523 64.1191C54.8206 64.7832 55.0511 65.4202 55.4234 65.9743C55.7957 66.5284 56.2985 66.9824 56.8876 67.2966C57.4766 67.6107 58.1338 67.7752 58.8014 67.7757H82.8608C83.5277 67.7739 84.1841 67.6084 84.7722 67.2938C85.3603 66.9792 85.8622 66.5251 86.234 65.9714C86.6057 65.4176 86.8359 64.7811 86.9043 64.1177C86.9728 63.4542 86.8774 62.7841 86.6265 62.1661H92.1111C94.383 62.1663 96.5619 63.069 98.1684 64.6755C99.775 66.282 100.678 68.4609 100.678 70.7328Z" fill="white"/>
<path d="M92.3103 184.537C92.3103 185.662 92.2751 186.778 92.2048 187.885C92.1737 187.888 92.1424 187.89 92.1111 187.889H49.9104C47.6385 187.889 45.4596 186.986 43.8531 185.38C42.2466 183.773 41.344 181.594 41.3438 179.322V130.93C55.0934 131.623 68.0509 137.574 77.5369 147.551C87.0229 157.529 92.3119 170.77 92.3103 184.537V184.537Z" fill="#F2F2F2"/>
<path d="M38.4102 101.566C38.1513 101.565 37.903 101.462 37.72 101.279C37.5369 101.096 37.4339 100.848 37.4336 100.589V93.9483C37.4336 93.6893 37.5365 93.4409 37.7196 93.2577C37.9028 93.0746 38.1512 92.9717 38.4102 92.9717C38.6692 92.9717 38.9176 93.0746 39.1007 93.2577C39.2839 93.4409 39.3868 93.6893 39.3868 93.9483V100.589C39.3865 100.848 39.2835 101.096 39.1004 101.279C38.9173 101.462 38.6691 101.565 38.4102 101.566Z" fill="#E6E6E6"/>
<path d="M76.1924 96.2632H65.8292C64.8931 96.2632 64.1343 97.0221 64.1343 97.9582V100.6C64.1343 101.536 64.8931 102.295 65.8292 102.295H76.1924C77.1285 102.295 77.8874 101.536 77.8874 100.6V97.9582C77.8874 97.0221 77.1285 96.2632 76.1924 96.2632Z" fill="#3CA6A6"/>
<path d="M90.5177 108.327H51.5041C50.5679 108.327 49.8091 109.085 49.8091 110.022V112.663C49.8091 113.599 50.5679 114.358 51.5041 114.358H90.5177C91.4538 114.358 92.2127 113.599 92.2127 112.663V110.022C92.2127 109.085 91.4538 108.327 90.5177 108.327Z" fill="#E6E6E6"/>
<path d="M90.5177 120.39H51.5041C50.5679 120.39 49.8091 121.149 49.8091 122.085V124.727C49.8091 125.663 50.5679 126.422 51.5041 126.422H90.5177C91.4538 126.422 92.2127 125.663 92.2127 124.727V122.085C92.2127 121.149 91.4538 120.39 90.5177 120.39Z" fill="#E6E6E6"/>
<path d="M38.2149 88.6747C37.956 88.6744 37.7077 88.5714 37.5247 88.3883C37.3416 88.2052 37.2386 87.957 37.2383 87.6981V81.0573C37.2383 80.7982 37.3412 80.5498 37.5243 80.3667C37.7075 80.1836 37.9559 80.0807 38.2149 80.0807C38.4739 80.0807 38.7223 80.1836 38.9054 80.3667C39.0886 80.5498 39.1915 80.7982 39.1915 81.0573V87.6981C39.1912 87.957 39.0882 88.2052 38.9051 88.3883C38.722 88.5714 38.4738 88.6744 38.2149 88.6747V88.6747Z" fill="#E6E6E6"/>
<path d="M64.1919 63.2832C64.1922 63.0243 64.2952 62.7761 64.4783 62.593C64.6613 62.4099 64.9096 62.3069 65.1685 62.3066H71.8093C72.0683 62.3066 72.3167 62.4095 72.4999 62.5927C72.683 62.7758 72.7859 63.0242 72.7859 63.2832C72.7859 63.5422 72.683 63.7906 72.4999 63.9738C72.3167 64.1569 72.0683 64.2598 71.8093 64.2598H65.1685C64.9096 64.2595 64.6613 64.1565 64.4783 63.9734C64.2952 63.7903 64.1922 63.5421 64.1919 63.2832Z" fill="white"/>
<path d="M38.4102 112.894C38.1513 112.894 37.903 112.791 37.72 112.608C37.5369 112.425 37.4339 112.177 37.4336 111.918V105.277C37.4336 105.018 37.5365 104.769 37.7196 104.586C37.9028 104.403 38.1512 104.3 38.4102 104.3C38.6692 104.3 38.9176 104.403 39.1007 104.586C39.2839 104.769 39.3868 105.018 39.3868 105.277V111.918C39.3865 112.177 39.2835 112.425 39.1004 112.608C38.9173 112.791 38.6691 112.894 38.4102 112.894V112.894Z" fill="#E6E6E6"/>
<path d="M75.5205 64.2598C76.0599 64.2598 76.4971 63.8226 76.4971 63.2832C76.4971 62.7438 76.0599 62.3066 75.5205 62.3066C74.9812 62.3066 74.5439 62.7438 74.5439 63.2832C74.5439 63.8226 74.9812 64.2598 75.5205 64.2598Z" fill="white"/>
<path d="M335.535 190.871L0.465246 190.991C0.34212 190.99 0.224162 190.941 0.137225 190.854C0.0502877 190.767 0.00146484 190.649 0.00146484 190.526C0.00146484 190.403 0.0502877 190.284 0.137225 190.197C0.224162 190.11 0.34212 190.061 0.465246 190.061L335.535 189.94C335.658 189.94 335.777 189.989 335.864 190.077C335.951 190.164 336 190.282 336 190.406C336 190.529 335.951 190.647 335.864 190.734C335.777 190.822 335.658 190.871 335.535 190.871Z" fill="#EDE7D7"/>
<path d="M143.276 88.3257L141.513 88.7034C141.502 87.9662 141.41 87.2324 141.239 86.5151C141.079 87.3935 140.742 88.2301 140.247 88.9737L130.139 91.1324L120.434 80.8908C120.419 75.77 123.263 71.8785 128.362 71.8785C128.669 71.8785 128.987 71.8933 129.309 71.9229C132.064 71.4619 134.89 72.0876 137.193 73.6685C139.495 75.2493 141.095 77.6619 141.654 80.3983C145.268 83.9566 143.957 86.0486 143.276 88.3257Z" fill="#012E40"/>
<path d="M148.245 208.097H151.911L153.656 193.954L148.244 193.955L148.245 208.097Z" fill="#FFB6B6"/>
<path d="M147.336 206.288L153.132 205.942V208.426L158.643 212.232C158.915 212.419 159.12 212.689 159.228 213.002C159.335 213.315 159.341 213.654 159.242 213.97C159.144 214.285 158.947 214.561 158.68 214.757C158.414 214.953 158.092 215.059 157.761 215.059H150.861L149.671 212.603L149.207 215.059H146.605L147.336 206.288Z" fill="#012E40"/>
<path d="M105.29 204.106L108.479 205.915L116.975 194.476L112.268 191.805L105.29 204.106Z" fill="#FFB6B6"/>
<path d="M105.391 202.084L110.603 204.644L109.377 206.803L112.292 212.833C112.436 213.131 112.481 213.467 112.42 213.792C112.36 214.117 112.197 214.415 111.956 214.641C111.714 214.867 111.407 215.01 111.078 215.049C110.75 215.088 110.417 215.021 110.13 214.857L104.128 211.452L104.306 208.729L102.69 210.636L100.427 209.352L105.391 202.084Z" fill="#012E40"/>
<path d="M161.798 90.8035C161.329 90.8714 160.879 91.0416 160.482 91.3019C160.085 91.5623 159.75 91.9065 159.501 92.3104C159.251 92.7142 159.093 93.1679 159.038 93.6394C158.983 94.1109 159.032 94.5888 159.181 95.0394L153.57 99.8957L155.69 104.025L163.517 97.0558C164.257 96.7546 164.862 96.1923 165.215 95.4754C165.568 94.7585 165.647 93.9369 165.435 93.1662C165.223 92.3956 164.736 91.7294 164.066 91.2939C163.395 90.8584 162.589 90.6839 161.798 90.8035H161.798Z" fill="#FFB6B6"/>
<path d="M156.149 107.503C154.277 110.338 150.082 113.075 143.857 115.502C143.514 115.64 143.145 115.705 142.776 115.693C142.406 115.681 142.043 115.592 141.709 115.432C139.36 114.363 137.854 110.388 137.713 110.003L133.163 103.865C133.082 103.775 130.954 101.361 131.198 98.9867C131.252 98.4892 131.414 98.0095 131.672 97.5805C131.93 97.1515 132.277 96.7834 132.691 96.5014C136.135 93.9481 143.855 102.816 144.857 103.995L149.894 100.926L153.565 99.2878L156.529 95.6819L160.701 99.9479L156.949 105.918C156.748 106.477 156.48 107.01 156.149 107.503V107.503Z" fill="#012E40"/>
<path d="M143.062 118.379C143.062 118.379 153.843 135.551 151.89 137.505C149.937 139.458 146.897 139.971 146.897 139.971L140.171 131.254L143.062 118.379Z" fill="#012E40"/>
<path d="M133.53 94.925L138.611 98.3623C140.973 99.9599 142.749 102.284 143.671 104.982C144.592 107.681 144.609 110.606 143.718 113.314L142.287 117.662L133.53 94.925Z" fill="#012E40"/>
<path d="M124.546 141.802L123.867 144.168L121.549 172.7L109.968 194.283L115.495 198.231L131.287 177.701L137.534 157.316L147.343 202.442L154.713 201.916L149.594 139.349L139.882 121.738L124.546 141.802Z" fill="#012E40"/>
<path d="M132.666 95.7894L139.738 101.569C141.29 102.837 142.408 104.558 142.935 106.492V106.492C143.175 107.37 143.289 108.278 143.273 109.188L143.063 121.738L149.547 139.067C149.547 139.067 131.968 145.708 129.624 139.848C127.28 133.989 132.666 95.7894 132.666 95.7894Z" fill="#3CA6A6"/>
<path d="M134.781 142.89C126 142.89 123.86 142.956 123.721 142.928L123.582 142.9V137.618L125.718 128.129C125.468 125.183 124.883 121.299 124.936 117.973C125.128 105.951 124.537 94.2073 124.537 94.2073L129.185 89.9171L131.296 91.2911L135.213 95.2077C139.765 106.412 143.378 116.96 143.401 117.637L143.687 129.301L142.515 133.989C137.214 137.731 142.057 142.89 134.781 142.89Z" fill="#012E40"/>
<path opacity="0.2" d="M126.507 104.68L125.439 111.344L132.666 114.325L126.507 104.68Z" fill="black"/>
<path d="M133.787 88.6671C137.695 88.6671 140.863 85.4991 140.863 81.5912C140.863 77.6833 137.695 74.5153 133.787 74.5153C129.879 74.5153 126.711 77.6833 126.711 81.5912C126.711 85.4991 129.879 88.6671 133.787 88.6671Z" fill="#FFB6B6"/>
<path opacity="0.2" d="M121.931 117.493C123.814 119.674 126.368 121.167 129.192 121.738C132.017 122.309 134.95 121.925 137.533 120.647L139.073 119.885L121.931 117.493Z" fill="black"/>
<path d="M146.553 115.865C146.238 115.51 145.848 115.229 145.412 115.041C144.976 114.853 144.504 114.763 144.03 114.778C143.555 114.792 143.09 114.91 142.666 115.124C142.242 115.338 141.87 115.642 141.576 116.015L134.432 114.009L132.154 118.054L142.283 120.744C142.943 121.196 143.745 121.39 144.538 121.29C145.331 121.19 146.059 120.803 146.586 120.201C147.112 119.6 147.4 118.826 147.394 118.027C147.388 117.227 147.089 116.458 146.553 115.865H146.553Z" fill="#FFB6B6"/>
<path d="M129.505 120.353C126.108 120.353 121.512 118.362 116.056 114.504C115.752 114.294 115.495 114.022 115.301 113.707C115.108 113.392 114.982 113.04 114.931 112.673C114.529 110.124 117.016 106.677 117.259 106.347L119.874 99.1672C119.904 99.0505 120.746 95.9443 122.862 94.8391C123.307 94.6107 123.796 94.4814 124.296 94.4601C124.796 94.4388 125.295 94.526 125.758 94.7157C129.787 96.1827 126.641 107.511 126.209 108.997L131.547 111.509L134.937 113.67L139.579 114.156L138.318 119.988L131.269 120.147C130.691 120.288 130.099 120.357 129.505 120.353V120.353Z" fill="#012E40"/>
<path d="M142.272 76.9363C141.706 77.6731 139.754 78.3248 137.436 78.8506C137.44 78.8024 137.44 78.7543 137.44 78.7062C137.429 77.969 137.337 77.2352 137.166 76.5179C137.006 77.3963 136.668 78.2329 136.174 78.9765C136.137 79.032 136.1 79.0875 136.059 79.1431C134.071 79.5356 131.968 79.8392 130.32 80.0428C131.453 84.1232 135.796 87.4704 135.326 89.9512L122.6 92.5505C122.678 91.5196 122.596 90.4828 122.355 89.4772C122.112 90.8043 121.469 92.0253 120.511 92.9763L119.43 93.1984L119.108 91.61C116.316 84.9045 120.208 78.0397 126.584 74.4888C127.721 72.7847 129.486 71.5999 131.494 71.1934L133.082 70.8676C134.084 70.6626 135.116 70.657 136.121 70.851C137.125 71.0451 138.081 71.435 138.934 71.9985C139.787 72.5621 140.521 73.2882 141.094 74.1354C141.667 74.9826 142.067 75.9344 142.272 76.9363Z" fill="#012E40"/>
<path d="M172.672 205.216L172.861 200.985C174.822 199.937 177.01 199.383 179.235 199.372C176.173 201.874 176.556 206.699 174.48 210.065C173.825 211.11 172.943 211.994 171.899 212.651C170.856 213.309 169.678 213.723 168.453 213.864L165.891 215.432C165.539 213.473 165.617 211.46 166.118 209.533C166.619 207.606 167.532 205.811 168.794 204.271C169.51 203.414 170.332 202.65 171.239 201.999C171.853 203.616 172.672 205.216 172.672 205.216Z" fill="#F2F2F2"/>
<path d="M178.884 215.531H89.6689C89.5457 215.531 89.4278 215.482 89.3408 215.394C89.2539 215.307 89.2051 215.189 89.2051 215.066C89.2051 214.943 89.2539 214.825 89.3408 214.738C89.4278 214.65 89.5457 214.601 89.6689 214.601H178.884C178.945 214.601 179.005 214.613 179.062 214.636C179.119 214.659 179.17 214.693 179.213 214.737C179.257 214.78 179.291 214.831 179.315 214.888C179.338 214.944 179.35 215.005 179.35 215.066C179.35 215.127 179.338 215.188 179.315 215.244C179.291 215.301 179.257 215.352 179.213 215.395C179.17 215.439 179.119 215.473 179.062 215.496C179.005 215.519 178.945 215.531 178.884 215.531Z" fill="#EDE7D7"/>
<path d="M186.373 82.9668L195.346 76.6839L221.127 113.503L213.549 127.152L186.373 82.9668Z" fill="#012E40"/>
<path d="M231.591 77.0544L240.853 82.773L221.432 112.506L214.274 102.184L231.591 77.0544Z" fill="#012E40"/>
<path d="M227.637 71.8786L241.812 81.4473L240.796 82.8988L223.431 71.9227L227.637 71.8786Z" fill="#012E40"/>
<path d="M185.465 81.6403L199.4 71.8834L203.536 71.9298L186.482 83.0918L185.465 81.6403Z" fill="#012E40"/>
<path d="M255.931 150.956L261.496 147.059L277.486 169.895L272.787 178.361L255.931 150.956Z" fill="#CCCCCC"/>
<path d="M283.977 147.288L289.722 150.835L277.676 169.277L273.236 162.875L283.977 147.288Z" fill="#CCCCCC"/>
<path d="M281.525 144.078L290.317 150.013L289.686 150.913L278.916 144.106L281.525 144.078Z" fill="#CCCCCC"/>
<path d="M255.368 150.133L264.01 144.081L266.576 144.11L255.998 151.033L255.368 150.133Z" fill="#CCCCCC"/>
<path d="M61.5667 157.861L65.5594 155.065L77.0311 171.448L73.6595 177.522L61.5667 157.861Z" fill="#CCCCCC"/>
<path d="M81.6871 155.23L85.8086 157.774L77.1669 171.004L73.9817 166.412L81.6871 155.23Z" fill="#CCCCCC"/>
<path d="M79.9277 152.927L86.2353 157.184L85.7831 157.83L78.0563 152.946L79.9277 152.927Z" fill="#CCCCCC"/>
<path d="M61.1626 157.27L67.3628 152.929L69.2036 152.949L61.6148 157.916L61.1626 157.27Z" fill="#CCCCCC"/>
</g>
<defs>
<clipPath id="clip0_13_54">
<rect width="336" height="215.531" fill="white"/>
</clipPath>
</defs>
</svg>
