<svg width="300" height="265" viewBox="0 0 300 265" fill="none" xmlns="http://www.w3.org/2000/svg">
<g clip-path="url(#clip0_20_2)">
<path d="M232.359 169.738C232.104 169.298 231.949 168.809 231.905 168.304C231.86 167.798 231.927 167.289 232.1 166.812C232.273 166.335 232.549 165.902 232.908 165.544C233.267 165.185 233.7 164.909 234.177 164.736L233.998 152.404L239.399 155.855L238.74 167.036C238.978 167.857 238.907 168.736 238.54 169.507C238.173 170.278 237.536 170.888 236.749 171.221C235.963 171.554 235.081 171.587 234.272 171.314C233.463 171.04 232.782 170.479 232.359 169.738V169.738Z" fill="#EEC197"/>
<path d="M225.85 102.786C224.249 103.068 222.795 103.898 221.737 105.132C220.679 106.366 220.081 107.928 220.045 109.554C219.967 113.163 221.171 114.509 222.873 114.995C226.02 115.894 231.03 134.074 231.03 134.074C231.03 134.074 231.562 151.031 232.42 150.194C233.278 149.357 232.307 151.31 232.568 151.907C232.828 152.503 231.332 153.396 232.754 154.073C234.177 154.75 233.278 160.144 233.278 160.144L239.57 159.694C239.57 159.694 238.526 155.3 239.947 155.025C241.368 154.75 240.722 153.5 240.146 152.552C239.57 151.604 241.166 150.253 240.368 149.805C239.57 149.356 241.818 131.827 241.818 131.827L233.031 105.973C232.287 104.787 231.207 103.851 229.927 103.283C228.648 102.715 227.228 102.542 225.85 102.786V102.786Z" fill="#3CA6A6"/>
<path d="M206.758 103.803L211.285 95.869H217.401L221.987 104.253L206.758 103.803Z" fill="#3CA6A6"/>
<path d="M194.583 32.4548C190.966 20.3395 180.748 12.4303 168.4 10.6952C168.264 10.676 168.135 10.7013 168 10.6926C167.825 10.6392 167.647 10.5981 167.466 10.5697C150.486 8.37509 131.95 12.3055 117.197 21.5363C103.055 30.3844 86.8064 35.377 70.1253 35.2661C69.6073 35.2626 69.0872 35.2739 68.5651 35.2998C55.7277 35.9403 44.3985 45.285 40.928 57.576C40.4725 59.1886 41.2662 60.6295 42.5424 61.5434C44.785 63.1496 46.3169 64.2753 49.076 64.8598C53.9993 65.9028 58.9394 66.8619 63.8964 67.7371V47.9921C63.8986 46.1229 64.6421 44.3308 65.9639 43.009C67.2856 41.6872 69.0777 40.9437 70.947 40.9415H167.795C169.664 40.9437 171.456 41.6872 172.778 43.009C174.1 44.3308 174.843 46.1229 174.846 47.9921V72.5817C176.174 72.1664 177.471 71.6559 178.726 71.0544C183.398 68.7468 187.389 65.2637 190.308 60.9471C195.915 52.8114 197.396 41.8774 194.583 32.4548Z" fill="#F2F2F2"/>
<path d="M153.806 148.008H68.191C66.2154 148.006 64.3213 147.22 62.9243 145.823C61.5273 144.426 60.7414 142.532 60.7392 140.556V107.335C50.3114 104.143 39.3286 103.18 28.5045 104.51C28.3239 104.538 28.1455 104.579 27.9707 104.633C27.8355 104.642 27.7065 104.616 27.5707 104.635C15.2234 106.371 5.00513 114.28 1.38823 126.395C-1.42499 135.818 0.0559379 146.752 5.66296 154.887C8.58181 159.204 12.5733 162.687 17.2453 164.995C23.6671 168.088 30.4263 168.321 37.4353 168.539C58.4797 169.196 79.5444 168.4 100.479 166.156C110.782 165.051 121.042 163.607 131.259 161.824C136.488 160.909 141.7 159.901 146.895 158.8C149.654 158.216 151.186 157.09 153.428 155.484C154.705 154.57 155.498 153.129 155.043 151.516C154.705 150.322 154.291 149.15 153.806 148.008V148.008Z" fill="#F2F2F2"/>
<path d="M161.382 138.152H77.3596C75.7378 138.151 74.1831 137.505 73.0364 136.359C71.8896 135.212 71.2446 133.657 71.2427 132.036V53.9514C71.2446 52.3297 71.8896 50.7749 73.0364 49.6282C74.1831 48.4814 75.7378 47.8364 77.3596 47.8345H161.382C163.004 47.8364 164.559 48.4814 165.706 49.6282C166.852 50.7749 167.497 52.3297 167.499 53.9514V132.035C167.497 133.657 166.852 135.212 165.706 136.359C164.559 137.505 163.004 138.151 161.382 138.152V138.152Z" fill="#E6E6E6"/>
<path d="M143.698 134.026H81.4865C79.8648 134.025 78.3101 133.38 77.1633 132.233C76.0166 131.086 75.3715 129.531 75.3696 127.91V58.0807C75.3715 56.4589 76.0166 54.9042 77.1633 53.7574C78.3101 52.6107 79.8648 51.9656 81.4865 51.9637H157.257C158.878 51.9656 160.433 52.6107 161.58 53.7574C162.727 54.9042 163.372 56.4589 163.373 58.0807V114.351C163.368 119.568 161.293 124.569 157.604 128.257C153.916 131.946 148.915 134.021 143.698 134.026V134.026Z" fill="white"/>
<path d="M237.527 259.942L233.459 259.942L231.524 244.252L237.528 244.252L237.527 259.942Z" fill="#EEC197"/>
<path d="M237.67 264.185L225.161 264.185V264.027C225.161 262.736 225.674 261.497 226.587 260.584C227.5 259.671 228.739 259.158 230.03 259.158H230.03L232.315 257.425L236.578 259.158L237.67 259.159L237.67 264.185Z" fill="#012E40"/>
<path d="M206.962 259.942L202.895 259.942L200.96 244.252L206.964 244.252L206.962 259.942Z" fill="#EEC197"/>
<path d="M207.106 264.185L194.597 264.185V264.027C194.597 262.736 195.11 261.497 196.023 260.584C196.936 259.671 198.175 259.158 199.466 259.158H199.466L201.751 257.425L206.014 259.158L207.106 259.159L207.106 264.185Z" fill="#012E40"/>
<path d="M238.824 246.957C240.308 245.987 239.448 246.05 239.448 246.05C239.448 246.05 236.129 219.144 233.605 210.991L230.683 171.286C230.683 171.286 230.498 172.078 230.683 170.153C230.869 168.228 232.217 169.576 230.869 168.228C229.52 166.879 228.621 166.192 229.52 165.187C230.419 164.182 232.899 162.149 231.434 160.919C229.97 159.688 227.087 151.66 227.087 151.66L198.995 151.885L200.119 151.66C200.119 151.66 196.612 150.359 198.218 152.053C199.825 153.748 197.319 157.897 196.421 161.942C195.676 165.292 193.466 166.181 196.421 166.886C199.375 167.591 196.701 169.588 196.701 169.588C196.701 169.588 192.253 190.764 195.624 204.698C195.624 204.698 197.95 239.16 199.127 242.124C200.304 245.088 200.754 243.29 200.304 245.088C199.855 246.886 198.956 243.74 199.855 246.886C200.345 248.529 200.734 250.202 201.018 251.893L207.114 251.444C207.114 251.444 208.529 246.981 207.114 245.81C205.698 244.638 206.675 248.057 208.209 245.449C209.743 242.841 207.945 243.74 207.496 240.144C207.046 236.548 211.17 219.797 208.209 209.519L213.681 180.68L222.368 210.541C222.368 210.541 226.976 247.012 228.473 248.297C229.97 249.583 229.365 246.462 229.97 249.583C230.581 252.736 231.968 251.9 231.929 252.286C231.51 256.409 238.824 252.343 238.824 252.343C238.752 251.295 238.752 250.244 238.824 249.196C238.959 248.234 237.34 247.926 238.824 246.957Z" fill="#012E40"/>
<path d="M201.814 161.043C200.016 161.043 195.072 158.608 195.971 157.578C196.87 156.548 196.87 153.129 196.87 152.142C196.87 151.154 200.915 114.747 200.915 114.747L200.608 105.833C200.589 105.298 200.679 104.766 200.871 104.267C201.062 103.768 201.353 103.312 201.724 102.928C202.096 102.543 202.541 102.238 203.033 102.029C203.525 101.82 204.054 101.712 204.589 101.712L208.556 100.364L219.793 99.9143L225.397 101.712C225.952 101.712 226.499 101.855 226.984 102.127C227.469 102.398 227.876 102.79 228.167 103.264C228.457 103.738 228.621 104.279 228.642 104.834C228.664 105.39 228.543 105.942 228.29 106.437V106.437C231.263 111.291 232.756 116.908 232.584 122.598C232.455 126.855 230.298 132.054 229.778 136.863C229.733 137.285 229.7 137.704 229.682 138.12C229.677 138.235 228.757 138.813 229.669 138.466C230.581 138.12 229.18 139.342 229.655 140.079C230.131 140.817 231.053 140.365 229.693 141.265C228.333 142.165 231.326 150.859 231.03 151.154C230.131 152.053 228.333 152.503 229.682 153.851C231.03 155.2 232.378 154.301 230.581 156.099C228.783 157.897 223.396 161.043 223.396 161.043L201.814 161.043Z" fill="#3F3D56"/>
<path d="M213.83 94.6948C219.173 94.6948 223.505 90.3636 223.505 85.0207C223.505 79.6778 219.173 75.3466 213.83 75.3466C208.488 75.3466 204.156 79.6778 204.156 85.0207C204.156 90.3636 208.488 94.6948 213.83 94.6948Z" fill="#EEC197"/>
<path d="M154.909 115.036C155.373 114.831 155.876 114.73 156.384 114.741C156.891 114.751 157.39 114.873 157.845 115.097C158.3 115.321 158.701 115.642 159.018 116.038C159.336 116.433 159.563 116.894 159.683 117.387L171.962 118.548L167.945 123.542L156.901 121.674C156.06 121.821 155.194 121.655 154.467 121.206C153.74 120.758 153.202 120.058 152.957 119.24C152.711 118.422 152.774 117.542 153.134 116.767C153.494 115.993 154.125 115.377 154.909 115.036V115.036Z" fill="#EEC197"/>
<path d="M213.124 107.835C212.842 106.234 212.012 104.781 210.778 103.722C209.544 102.664 207.982 102.066 206.356 102.03C202.747 101.952 201.401 103.157 200.915 104.858C200.016 108.005 185.544 119.065 185.544 119.065L173.116 117.72C172.369 117.477 172.723 116.796 169.913 117.373C168.529 116.467 167.634 116.62 166.863 117.043L162.26 116.545L162.71 123.736C162.71 123.736 167.638 122.564 168.553 124.635C169.468 126.707 169.259 127.004 171.25 125.534C173.241 124.065 173.048 125.534 173.048 125.534L187.431 129.13L209.937 115.016C211.123 114.273 212.059 113.192 212.627 111.913C213.195 110.633 213.368 109.213 213.124 107.835H213.124Z" fill="#3CA6A6"/>
<path d="M217.587 93.6575L218.22 93.8598C216.238 94.0261 212.705 95.1318 213.051 94.5205C213.397 93.9093 212.089 91.6034 212.728 91.3113C213.391 91.0785 213.983 90.6774 214.445 90.1472C214.849 89.5808 214.84 88.6459 214.233 88.2998C213.645 87.9582 212.916 88.3268 212.332 88.6729C211.743 89.0145 210.656 83.9893 210.934 82.4207C209.294 81.5217 207.307 83.2432 205.464 82.9061C204.336 82.6994 203.522 81.7734 203.01 80.7217C203.847 79.9276 204.47 78.9351 204.821 77.836C204.039 78.2302 203.203 78.5073 202.34 78.6586C202.186 77.8424 202.207 77.0026 202.403 76.1955C202.554 75.5511 202.861 74.9538 203.298 74.4567C203.734 73.9596 204.287 73.578 204.907 73.3458C205.535 73.1373 206.216 73.1493 206.837 73.3797C207.458 73.6101 207.982 74.0452 208.323 74.6133C208.361 74.0014 208.204 73.3933 207.874 72.8764C207.545 72.3594 207.06 71.9604 206.489 71.7367C206.905 71.5205 207.366 71.4036 207.835 71.3949C208.305 71.3863 208.769 71.4861 209.194 71.6867C209.618 71.8873 209.99 72.1831 210.281 72.5512C210.572 72.9193 210.774 73.3497 210.871 73.8087C212.901 72.7915 215.23 72.5425 217.429 73.1076C219.605 73.6784 222.49 76.0921 222.49 76.0921C227.399 77.1753 227.165 95.8375 217.587 93.6575Z" fill="#012E40"/>
<path d="M268.839 260.328C268.951 260.333 269.061 260.304 269.156 260.244C269.251 260.184 269.325 260.096 269.368 259.993C269.411 259.89 269.422 259.775 269.398 259.666C269.374 259.556 269.317 259.457 269.235 259.381L269.197 259.232L269.212 259.196C269.325 258.929 269.514 258.702 269.756 258.543C269.997 258.383 270.28 258.299 270.57 258.3C270.859 258.301 271.142 258.388 271.382 258.549C271.622 258.71 271.81 258.939 271.921 259.206C272.364 260.273 272.928 261.341 273.066 262.469C273.128 262.968 273.102 263.474 272.99 263.963C274.031 261.694 274.571 259.227 274.574 256.731C274.575 256.104 274.54 255.478 274.47 254.855C274.412 254.345 274.333 253.838 274.23 253.335C273.673 250.605 272.475 248.046 270.737 245.869C269.895 245.41 269.215 244.704 268.787 243.846C268.632 243.538 268.523 243.209 268.462 242.869C268.646 242.382 268.743 241.867 268.748 241.347C268.881 241.146 269.117 241.046 269.262 240.851C269.98 239.876 270.97 240.046 271.487 241.37C272.591 241.927 272.602 242.851 271.924 243.74C271.493 244.306 271.434 245.071 271.056 245.676C271.095 245.726 271.135 245.774 271.174 245.824C271.885 246.738 272.505 247.72 273.025 248.756C272.898 247.596 273.049 246.422 273.465 245.332C273.886 244.316 274.675 243.46 275.371 242.582C275.555 242.346 275.804 242.17 276.088 242.076C276.372 241.982 276.678 241.974 276.966 242.053C277.254 242.133 277.513 242.296 277.708 242.522C277.904 242.749 278.028 243.028 278.065 243.325L278.069 243.364C277.966 243.422 277.865 243.484 277.766 243.549C277.642 243.632 277.546 243.751 277.49 243.889C277.434 244.028 277.422 244.18 277.454 244.326C277.486 244.472 277.562 244.605 277.671 244.707C277.78 244.809 277.917 244.876 278.065 244.899L278.08 244.901C278.043 245.273 277.978 245.642 277.886 246.004C278.778 249.453 276.852 250.71 274.103 250.766C274.042 250.797 273.983 250.828 273.922 250.858C274.444 252.337 274.772 253.878 274.896 255.442C274.967 256.365 274.963 257.292 274.884 258.214L274.889 258.181C275.088 257.156 275.635 256.231 276.437 255.562C277.628 254.583 279.312 254.223 280.597 253.436C280.734 253.348 280.893 253.301 281.055 253.301C281.217 253.301 281.377 253.347 281.514 253.434C281.651 253.521 281.76 253.645 281.829 253.792C281.897 253.939 281.922 254.103 281.901 254.264L281.896 254.298C281.704 254.376 281.518 254.466 281.337 254.568C281.234 254.626 281.133 254.688 281.034 254.753C280.91 254.836 280.813 254.955 280.758 255.093C280.702 255.232 280.69 255.384 280.722 255.53C280.754 255.676 280.83 255.809 280.939 255.911C281.048 256.013 281.185 256.08 281.333 256.103L281.348 256.105L281.379 256.11C281.052 256.891 280.592 257.611 280.021 258.237C279.463 261.248 277.068 261.533 274.506 260.657H274.504C274.223 261.878 273.816 263.067 273.289 264.205H268.947C268.932 264.156 268.918 264.107 268.904 264.058C269.306 264.084 269.709 264.059 270.105 263.987C269.783 263.591 269.461 263.193 269.139 262.798C269.132 262.79 269.125 262.783 269.119 262.774C268.955 262.572 268.79 262.371 268.627 262.169L268.627 262.169C268.618 261.549 268.689 260.93 268.838 260.328L268.839 260.328Z" fill="#F2F2F2"/>
<path d="M124.293 264.821L299.465 264.959C299.607 264.959 299.743 264.903 299.843 264.802C299.944 264.702 300 264.566 300 264.424C300 264.282 299.944 264.146 299.843 264.045C299.743 263.945 299.607 263.889 299.465 263.889L124.293 263.751C124.151 263.751 124.015 263.807 123.915 263.907C123.814 264.008 123.758 264.144 123.758 264.286C123.758 264.428 123.814 264.564 123.915 264.664C124.015 264.765 124.151 264.821 124.293 264.821V264.821Z" fill="#CACACA"/>
<path d="M115.343 189.809C114.086 189.809 112.857 189.436 111.811 188.738C110.765 188.039 109.951 187.046 109.469 185.884C108.988 184.723 108.862 183.444 109.108 182.211C109.353 180.977 109.958 179.845 110.848 178.955C111.737 178.066 112.87 177.461 114.103 177.215C115.336 176.97 116.615 177.096 117.777 177.577C118.938 178.058 119.931 178.873 120.63 179.919C121.329 180.964 121.701 182.194 121.701 183.451C121.7 185.137 121.029 186.753 119.837 187.945C118.645 189.137 117.029 189.807 115.343 189.809V189.809ZM115.343 177.992C114.264 177.992 113.208 178.312 112.31 178.912C111.413 179.512 110.713 180.365 110.3 181.362C109.887 182.36 109.779 183.457 109.989 184.516C110.2 185.575 110.72 186.548 111.483 187.311C112.247 188.075 113.219 188.595 114.278 188.805C115.337 189.016 116.435 188.908 117.433 188.495C118.43 188.082 119.283 187.382 119.882 186.484C120.482 185.586 120.803 184.531 120.803 183.451C120.801 182.004 120.225 180.616 119.202 179.593C118.178 178.569 116.791 177.994 115.343 177.992V177.992Z" fill="#F2F2F2"/>
<path d="M117.832 183.154L115.861 180.756C115.807 180.691 115.74 180.638 115.664 180.602C115.588 180.565 115.506 180.546 115.421 180.544C115.337 180.543 115.254 180.56 115.177 180.594C115.1 180.628 115.031 180.678 114.975 180.741L112.867 183.139C112.766 183.255 112.715 183.406 112.725 183.559C112.736 183.713 112.806 183.856 112.922 183.957C113.037 184.058 113.188 184.11 113.341 184.101C113.494 184.091 113.638 184.022 113.74 183.907L114.831 182.666V185.777C114.831 185.931 114.892 186.079 115.001 186.188C115.11 186.297 115.258 186.358 115.412 186.358C115.566 186.358 115.714 186.297 115.823 186.188C115.932 186.079 115.993 185.931 115.993 185.777V182.747L116.935 183.892C117.032 184.011 117.174 184.086 117.327 184.101C117.48 184.116 117.634 184.07 117.753 183.972C117.872 183.874 117.947 183.733 117.962 183.579C117.977 183.426 117.93 183.273 117.832 183.154H117.832Z" fill="#F2F2F2"/>
<path d="M187.709 95.8689C186.452 95.8689 185.222 95.496 184.177 94.7974C183.131 94.0988 182.316 93.1058 181.835 91.944C181.354 90.7822 181.228 89.5038 181.473 88.2705C181.719 87.0371 182.324 85.9042 183.213 85.0151C184.103 84.1259 185.235 83.5203 186.469 83.275C187.702 83.0297 188.98 83.1556 190.142 83.6368C191.304 84.118 192.297 84.933 192.996 85.9785C193.694 87.0241 194.067 88.2534 194.067 89.5109C194.065 91.1966 193.395 92.8126 192.203 94.0046C191.011 95.1965 189.395 95.867 187.709 95.8689V95.8689ZM187.709 84.0518C186.629 84.0518 185.574 84.372 184.676 84.9718C183.778 85.5717 183.079 86.4243 182.666 87.4218C182.252 88.4193 182.144 89.517 182.355 90.5759C182.566 91.6349 183.085 92.6076 183.849 93.3711C184.612 94.1345 185.585 94.6545 186.644 94.8651C187.703 95.0757 188.801 94.9676 189.798 94.5544C190.796 94.1413 191.648 93.4416 192.248 92.5438C192.848 91.6461 193.168 90.5906 193.168 89.5109C193.167 88.0635 192.591 86.6759 191.568 85.6525C190.544 84.6291 189.156 84.0534 187.709 84.0518V84.0518Z" fill="#F2F2F2"/>
<path d="M190.198 89.2136L188.226 86.8159C188.173 86.7509 188.106 86.6982 188.03 86.6616C187.954 86.625 187.871 86.6054 187.787 86.604C187.703 86.6026 187.619 86.6195 187.542 86.6535C187.465 86.6876 187.397 86.738 187.341 86.8012L185.232 89.199C185.132 89.3149 185.081 89.4659 185.091 89.6192C185.101 89.7724 185.172 89.9154 185.287 90.0168C185.403 90.1182 185.553 90.1699 185.707 90.1605C185.86 90.1511 186.003 90.0814 186.105 89.9666L187.196 88.726V91.8368C187.196 91.991 187.258 92.1388 187.367 92.2478C187.475 92.3568 187.623 92.418 187.777 92.418C187.932 92.418 188.079 92.3568 188.188 92.2478C188.297 92.1388 188.359 91.991 188.359 91.8368V88.8068L189.3 89.952C189.398 90.071 189.539 90.1463 189.693 90.1612C189.846 90.1762 189.999 90.1296 190.118 90.0317C190.237 89.9338 190.313 89.7926 190.328 89.6392C190.343 89.4858 190.296 89.3327 190.198 89.2137L190.198 89.2136Z" fill="#F2F2F2"/>
<path d="M44.3263 90.4753C43.0688 90.4753 41.8396 90.1024 40.794 89.4037C39.7484 88.7051 38.9335 87.7121 38.4522 86.5503C37.971 85.3885 37.8451 84.1102 38.0904 82.8768C38.3358 81.6435 38.9413 80.5106 39.8305 79.6214C40.7197 78.7322 41.8526 78.1267 43.0859 77.8813C44.3193 77.636 45.5977 77.7619 46.7594 78.2431C47.9212 78.7244 48.9142 79.5393 49.6128 80.5849C50.3115 81.6304 50.6844 82.8597 50.6844 84.1172C50.6824 85.8029 50.012 87.419 48.82 88.6109C47.6281 89.8029 46.012 90.4733 44.3263 90.4753V90.4753ZM44.3263 78.6581C43.2466 78.6581 42.1911 78.9783 41.2934 79.5781C40.3956 80.178 39.6959 81.0306 39.2828 82.0281C38.8696 83.0256 38.7615 84.1233 38.9721 85.1822C39.1828 86.2412 39.7027 87.2139 40.4661 87.9774C41.2296 88.7409 42.2023 89.2608 43.2613 89.4714C44.3203 89.6821 45.4179 89.574 46.4154 89.1608C47.413 88.7476 48.2655 88.0479 48.8654 87.1501C49.4652 86.2524 49.7854 85.1969 49.7854 84.1172C49.7838 82.6699 49.2082 81.2823 48.1847 80.2588C47.1613 79.2354 45.7737 78.6597 44.3263 78.6581V78.6581Z" fill="#F2F2F2"/>
<path d="M46.8153 83.8198L44.8436 81.4221C44.7901 81.3571 44.7231 81.3044 44.6472 81.2678C44.5714 81.2312 44.4885 81.2116 44.4043 81.2102C44.3201 81.2088 44.2366 81.2257 44.1596 81.2597C44.0825 81.2938 44.0139 81.3442 43.9582 81.4074L41.8497 83.8052C41.7489 83.9211 41.6981 84.0721 41.7083 84.2254C41.7186 84.3786 41.7891 84.5216 41.9044 84.623C42.0198 84.7244 42.1705 84.7761 42.3238 84.7667C42.4771 84.7573 42.6205 84.6876 42.7225 84.5728L43.8135 83.3322V86.443C43.8135 86.5972 43.8747 86.745 43.9837 86.854C44.0927 86.963 44.2405 87.0242 44.3946 87.0242C44.5488 87.0242 44.6966 86.963 44.8056 86.854C44.9146 86.745 44.9758 86.5972 44.9758 86.443V83.413L45.9175 84.5582C46.0154 84.6772 46.1566 84.7525 46.31 84.7674C46.4634 84.7824 46.6165 84.7358 46.7355 84.6379C46.8546 84.54 46.9299 84.3988 46.9448 84.2454C46.9598 84.092 46.9132 83.9389 46.8153 83.8199L46.8153 83.8198Z" fill="#F2F2F2"/>
<path d="M95.1168 12.7161C93.8593 12.7161 92.6301 12.3432 91.5845 11.6446C90.5389 10.946 89.724 9.95296 89.2428 8.79118C88.7615 7.6294 88.6356 6.35101 88.881 5.11766C89.1263 3.88432 89.7318 2.75143 90.621 1.86224C91.5102 0.973046 92.6431 0.3675 93.8764 0.122173C95.1098 -0.123154 96.3882 0.00275045 97.55 0.483976C98.7117 0.965202 99.7047 1.78013 100.403 2.82571C101.102 3.87129 101.475 5.10055 101.475 6.35806C101.473 8.04373 100.803 9.65981 99.6106 10.8518C98.4186 12.0437 96.8025 12.7142 95.1168 12.7161ZM95.1168 0.89896C94.0371 0.898959 92.9817 1.21913 92.0839 1.81899C91.1862 2.41884 90.4865 3.27143 90.0733 4.26895C89.6601 5.26647 89.552 6.36412 89.7626 7.42308C89.9733 8.48205 90.4932 9.45477 91.2567 10.2182C92.0201 10.9817 92.9929 11.5016 94.0518 11.7123C95.1108 11.9229 96.2084 11.8148 97.206 11.4016C98.2035 10.9884 99.0561 10.2887 99.6559 9.39097C100.256 8.49322 100.576 7.43777 100.576 6.35806C100.574 4.91071 99.9987 3.52309 98.9752 2.49966C97.9518 1.47623 96.5642 0.900559 95.1168 0.898953V0.89896Z" fill="#F2F2F2"/>
<path d="M97.6063 6.06068L95.6346 3.66294C95.5811 3.5979 95.5141 3.54526 95.4382 3.50867C95.3624 3.47207 95.2795 3.4524 95.1953 3.45101C95.1111 3.44961 95.0276 3.46653 94.9506 3.50059C94.8736 3.53466 94.8049 3.58505 94.7492 3.64828L92.6407 6.04602C92.5399 6.16191 92.4891 6.31299 92.4993 6.46623C92.5096 6.61946 92.5801 6.76241 92.6954 6.86383C92.8108 6.96525 92.9616 7.01691 93.1149 7.0075C93.2681 6.9981 93.4115 6.9284 93.5135 6.81364L94.6045 5.57309V8.68386C94.6045 8.83799 94.6657 8.98581 94.7747 9.0948C94.8837 9.20379 95.0315 9.26503 95.1857 9.26503C95.3398 9.26503 95.4876 9.20379 95.5966 9.0948C95.7056 8.98581 95.7668 8.83799 95.7668 8.68386V5.65388L96.7085 6.799C96.8064 6.91805 96.9476 6.99334 97.101 7.00829C97.2544 7.02325 97.4075 6.97665 97.5265 6.87874C97.6456 6.78084 97.7209 6.63964 97.7358 6.48623C97.7508 6.33282 97.7042 6.17975 97.6063 6.0607L97.6063 6.06068Z" fill="#F2F2F2"/>
<path d="M27.2465 137.67C25.9889 137.67 24.7596 137.297 23.714 136.599C22.6684 135.9 21.8534 134.907 21.3722 133.745C20.8909 132.583 20.765 131.305 21.0104 130.072C21.2557 128.838 21.8612 127.705 22.7504 126.816C23.6397 125.927 24.7726 125.321 26.006 125.076C27.2393 124.831 28.5178 124.957 29.6796 125.438C30.8414 125.919 31.8344 126.734 32.533 127.78C33.2316 128.825 33.6045 130.055 33.6045 131.312C33.6026 132.998 32.9321 134.614 31.7402 135.806C30.5482 136.998 28.9321 137.668 27.2465 137.67ZM27.2465 125.853C26.1667 125.853 25.1112 126.173 24.2135 126.773C23.3157 127.373 22.6159 128.225 22.2027 129.223C21.7895 130.22 21.6814 131.318 21.892 132.377C22.1026 133.436 22.6226 134.409 23.386 135.172C24.1495 135.936 25.1222 136.456 26.1812 136.666C27.2402 136.877 28.3378 136.769 29.3354 136.356C30.3329 135.943 31.1856 135.243 31.7855 134.345C32.3853 133.447 32.7055 132.392 32.7056 131.312C32.704 129.865 32.1283 128.477 31.1049 127.454C30.0814 126.43 28.6938 125.854 27.2465 125.853V125.853Z" fill="white"/>
<path d="M29.7352 131.015L27.7635 128.617C27.71 128.552 27.643 128.499 27.5672 128.463C27.4913 128.426 27.4084 128.407 27.3242 128.405C27.24 128.404 27.1565 128.421 27.0795 128.455C27.0025 128.489 26.9338 128.539 26.8782 128.602L24.7696 131C24.6688 131.116 24.618 131.267 24.6283 131.42C24.6385 131.574 24.709 131.717 24.8243 131.818C24.9397 131.919 25.0905 131.971 25.2438 131.962C25.3971 131.952 25.5404 131.883 25.6425 131.768L26.7334 130.527V133.638C26.7334 133.792 26.7946 133.94 26.9036 134.049C27.0126 134.158 27.1604 134.219 27.3146 134.219C27.4687 134.219 27.6165 134.158 27.7255 134.049C27.8345 133.94 27.8957 133.792 27.8957 133.638V130.608L28.8374 131.753C28.9353 131.872 29.0765 131.947 29.2299 131.962C29.3833 131.977 29.5364 131.931 29.6555 131.833C29.7745 131.735 29.8498 131.594 29.8647 131.44C29.8797 131.287 29.8331 131.134 29.7352 131.015L29.7352 131.015Z" fill="white"/>
<path d="M164.786 31.1445C163.528 31.1446 162.299 30.7717 161.253 30.0731C160.207 29.3744 159.393 28.3814 158.911 27.2196C158.43 26.0578 158.304 24.7794 158.549 23.546C158.795 22.3126 159.4 21.1797 160.29 20.2905C161.179 19.4013 162.312 18.7957 163.545 18.5504C164.778 18.3051 166.057 18.431 167.219 18.9122C168.38 19.3935 169.373 20.2084 170.072 21.254C170.771 22.2997 171.144 23.529 171.144 24.7865C171.142 26.4722 170.471 28.0883 169.279 29.2802C168.087 30.4722 166.471 31.1426 164.786 31.1445V31.1445ZM164.786 19.3272C163.706 19.3272 162.65 19.6473 161.753 20.2472C160.855 20.847 160.155 21.6996 159.742 22.6971C159.329 23.6947 159.22 24.7923 159.431 25.8513C159.642 26.9103 160.162 27.8831 160.925 28.6466C161.689 29.4101 162.661 29.93 163.72 30.1407C164.779 30.3513 165.877 30.2433 166.874 29.8301C167.872 29.4169 168.725 28.7172 169.325 27.8195C169.924 26.9217 170.245 25.8662 170.245 24.7865C170.243 23.3391 169.667 21.9515 168.644 20.928C167.621 19.9045 166.233 19.3288 164.786 19.3272V19.3272Z" fill="white"/>
<path d="M167.275 24.4891L165.303 22.0914C165.25 22.0264 165.183 21.9737 165.107 21.9371C165.031 21.9005 164.948 21.8809 164.864 21.8795C164.78 21.8781 164.696 21.895 164.619 21.9291C164.542 21.9631 164.473 22.0135 164.418 22.0767L162.309 24.4745C162.208 24.5904 162.158 24.7415 162.168 24.8947C162.178 25.0479 162.249 25.1909 162.364 25.2923C162.479 25.3937 162.63 25.4454 162.783 25.436C162.937 25.4266 163.08 25.3569 163.182 25.2421L164.273 24.0016V27.1123C164.273 27.2665 164.334 27.4143 164.443 27.5233C164.552 27.6323 164.7 27.6935 164.854 27.6935C165.008 27.6935 165.156 27.6323 165.265 27.5233C165.374 27.4143 165.435 27.2665 165.435 27.1123V24.0824L166.377 25.2275C166.475 25.3465 166.616 25.4218 166.769 25.4368C166.923 25.4517 167.076 25.4051 167.195 25.3072C167.314 25.2093 167.389 25.0681 167.404 24.9147C167.419 24.7613 167.373 24.6082 167.275 24.4892L167.275 24.4891Z" fill="white"/>
<path d="M96.1911 78.8196L104.191 73.2182L127.175 106.043L120.42 118.212L96.1911 78.8196Z" fill="#3CA6A6"/>
<path d="M136.504 73.5485L144.762 78.6468L127.448 105.154L121.066 95.9521L136.504 73.5485Z" fill="#3CA6A6"/>
<path d="M132.979 68.9342L145.617 77.4648L144.711 78.7589L129.23 68.9735L132.979 68.9342Z" fill="#3CA6A6"/>
<path d="M95.3823 77.6367L107.805 68.9383L111.493 68.9796L96.2884 78.9308L95.3823 77.6367Z" fill="#3CA6A6"/>
</g>
<rect x="0.26519" y="0.26519" width="299.47" height="264.429" stroke="#3CA6A6" stroke-width="0.530381"/>
<defs>
<clipPath id="clip0_20_2">
<rect width="300" height="264.959" fill="white"/>
</clipPath>
</defs>
</svg>
