<svg width="300" height="219" viewBox="0 0 300 219" fill="none" xmlns="http://www.w3.org/2000/svg">
<g clip-path="url(#clip0_20_36)">
<path d="M122.194 118.465C121.727 118.486 121.265 118.363 120.87 118.113C120.475 117.863 120.166 117.498 119.986 117.066C119.805 116.635 119.762 116.158 119.861 115.701C119.961 115.245 120.198 114.829 120.542 114.512C120.599 114.283 120.64 114.119 120.698 113.89C120.677 113.841 120.657 113.791 120.636 113.741C118.536 108.735 111.42 108.769 109.338 113.783C107.491 118.234 105.138 122.691 104.559 127.397C104.304 129.477 104.411 131.585 104.877 133.628C100.537 124.161 98.2836 113.872 98.2691 103.458C98.2682 100.845 98.4134 98.2332 98.704 95.6362C98.9442 93.5071 99.2774 91.3932 99.7037 89.2944C102.03 77.9068 107.024 67.2333 114.276 58.1506C117.786 56.2354 120.625 53.2904 122.409 49.7123C123.056 48.4261 123.513 47.053 123.766 45.6359C123.37 45.6879 122.273 39.6576 122.571 39.2877C122.02 38.4504 121.032 38.0341 120.429 37.2171C117.432 33.1535 113.303 33.863 111.147 39.3851C106.542 41.7092 106.498 45.5637 109.323 49.2709C111.121 51.6294 111.368 54.8207 112.945 57.3456C112.783 57.5534 112.614 57.7546 112.452 57.9624C109.486 61.7768 106.9 65.8727 104.733 70.1915C105.346 65.4016 104.441 59.631 102.897 55.9112C101.14 51.6729 97.8473 48.1034 94.9474 44.4394C91.4641 40.0383 84.3214 41.959 83.7077 47.5381C83.7018 47.5921 83.696 47.6461 83.6903 47.7C84.1211 47.943 84.5427 48.2009 84.9552 48.4738C85.4735 48.8201 85.8751 49.3148 86.1073 49.8932C86.3396 50.4716 86.3918 51.1066 86.2569 51.7152C86.1221 52.3237 85.8066 52.8773 85.3518 53.3035C84.897 53.7296 84.324 54.0084 83.708 54.1034L83.6449 54.1131C83.7984 55.6655 84.0696 57.204 84.4563 58.7153C80.7361 73.1023 88.7677 78.3424 100.236 78.5778C100.489 78.7076 100.736 78.8374 100.989 78.9608C98.8113 85.1319 97.4454 91.5599 96.9255 98.0832C96.6312 101.932 96.6486 105.798 96.9775 109.644C96.971 109.598 96.9645 109.553 96.958 109.507C96.1271 105.231 93.8458 101.372 90.4994 98.583C85.5292 94.5002 78.5072 92.9967 73.1452 89.7149C70.5641 88.1351 67.2566 90.1766 67.7071 93.1691C67.7142 93.2168 67.7216 93.2646 67.729 93.3124C68.5283 93.6379 69.3066 94.0129 70.0592 94.4353C70.49 94.6783 70.9116 94.9362 71.3241 95.209C71.8424 95.5553 72.244 96.05 72.4762 96.6284C72.7085 97.2068 72.7606 97.8419 72.6258 98.4504C72.491 99.0589 72.1755 99.6126 71.7207 100.039C71.2658 100.465 70.6929 100.744 70.0769 100.839L70.0138 100.848C69.9683 100.855 69.9294 100.861 69.884 100.868C71.2497 104.129 73.1666 107.13 75.5506 109.741C77.8768 122.3 87.8676 123.492 98.5547 119.835H98.5613C99.7338 124.93 101.433 129.89 103.631 134.634H121.741C121.806 134.433 121.864 134.225 121.922 134.024C120.246 134.129 118.563 134.029 116.911 133.725C118.255 132.077 119.599 130.415 120.942 128.766C120.972 128.735 121 128.703 121.027 128.669C121.708 127.825 122.396 126.988 123.078 126.144L123.078 126.143C123.114 123.556 122.818 120.976 122.195 118.465L122.194 118.465Z" fill="#F2F2F2"/>
<path d="M185.797 127.625C185.594 127.635 185.394 127.581 185.223 127.473C185.051 127.365 184.918 127.206 184.839 127.019C184.761 126.832 184.742 126.626 184.786 126.427C184.829 126.229 184.932 126.049 185.08 125.912L185.148 125.642C185.139 125.621 185.13 125.599 185.121 125.578C184.917 125.096 184.575 124.685 184.139 124.397C183.702 124.109 183.19 123.956 182.667 123.958C182.144 123.96 181.633 124.117 181.198 124.408C180.763 124.699 180.425 125.113 180.224 125.596C179.423 127.525 178.404 129.457 178.153 131.497C178.042 132.398 178.089 133.312 178.291 134.198C176.409 130.094 175.433 125.634 175.426 121.12C175.426 119.988 175.489 118.856 175.615 117.73C175.719 116.807 175.863 115.891 176.048 114.981C177.056 110.045 179.221 105.418 182.365 101.481C183.886 100.651 185.116 99.3748 185.89 97.8238C186.17 97.2663 186.368 96.6711 186.478 96.0569C186.306 96.0794 185.831 93.4655 185.96 93.3052C185.721 92.9422 185.293 92.7618 185.032 92.4076C183.733 90.6463 181.943 90.9538 181.008 93.3474C179.012 94.3548 178.993 96.0256 180.218 97.6325C180.997 98.6548 181.104 100.038 181.788 101.133C181.717 101.223 181.644 101.31 181.574 101.4C180.288 103.053 179.167 104.829 178.228 106.701C178.456 104.604 178.184 102.482 177.432 100.511C176.671 98.6736 175.243 97.1264 173.986 95.5382C172.477 93.6305 169.38 94.4631 169.114 96.8814C169.112 96.9048 169.109 96.9282 169.107 96.9516C169.294 97.0569 169.476 97.1687 169.655 97.287C169.88 97.4371 170.054 97.6515 170.155 97.9022C170.255 98.1529 170.278 98.4282 170.219 98.692C170.161 98.9557 170.024 99.1957 169.827 99.3804C169.63 99.5651 169.382 99.686 169.115 99.7272L169.087 99.7314C169.154 100.404 169.271 101.071 169.439 101.726C167.826 107.962 171.308 110.234 176.279 110.336C176.388 110.392 176.495 110.448 176.605 110.502C175.661 113.177 175.069 115.963 174.844 118.791C174.716 120.459 174.724 122.135 174.866 123.802L174.858 123.743C174.498 121.889 173.509 120.216 172.058 119.007C169.904 117.238 166.86 116.586 164.536 115.163C164.289 115.005 164.002 114.92 163.708 114.919C163.415 114.919 163.127 115.002 162.879 115.159C162.632 115.317 162.434 115.542 162.31 115.808C162.186 116.074 162.14 116.37 162.179 116.661C162.182 116.681 162.185 116.702 162.188 116.723C162.535 116.864 162.872 117.026 163.198 117.209C163.385 117.315 163.568 117.427 163.747 117.545C163.971 117.695 164.145 117.909 164.246 118.16C164.347 118.411 164.369 118.686 164.311 118.95C164.253 119.214 164.116 119.454 163.919 119.638C163.721 119.823 163.473 119.944 163.206 119.985L163.179 119.989C163.159 119.992 163.142 119.995 163.122 119.998C163.714 121.411 164.545 122.712 165.579 123.844C166.587 129.288 170.918 129.804 175.55 128.219H175.553C176.061 130.428 176.798 132.578 177.75 134.634H185.6C185.628 134.547 185.654 134.457 185.679 134.369C184.952 134.415 184.223 134.372 183.507 134.24C184.089 133.525 184.672 132.805 185.254 132.091C185.267 132.077 185.279 132.063 185.291 132.048C185.586 131.683 185.884 131.32 186.18 130.954L186.18 130.953C186.196 129.832 186.067 128.714 185.797 127.625L185.797 127.625Z" fill="#F2F2F2"/>
<path d="M233.594 139.853C233.956 139.341 234.104 138.709 234.007 138.09C233.91 137.472 233.575 136.915 233.074 136.539C232.971 136.464 232.862 136.398 232.748 136.342L233.826 119.971L228.341 120.922L229.564 137.577C229.365 138.067 229.334 138.61 229.476 139.12C229.618 139.631 229.925 140.079 230.349 140.397C230.592 140.575 230.868 140.704 231.161 140.775C231.453 140.847 231.757 140.86 232.055 140.815C232.353 140.769 232.639 140.665 232.897 140.509C233.154 140.352 233.379 140.147 233.557 139.904C233.569 139.887 233.582 139.87 233.594 139.853Z" fill="#EEC197"/>
<path d="M267.892 214.239L264.218 214.239L262.47 200.067L267.892 200.068L267.892 214.239Z" fill="#EEC197"/>
<path d="M268.021 218.072L256.723 218.071V217.929C256.723 216.762 257.187 215.644 258.011 214.819C258.836 213.995 259.954 213.531 261.121 213.531H261.121L263.185 211.965L267.035 213.531L268.022 213.531L268.021 218.072Z" fill="#2F2E41"/>
<path d="M259.755 208.763L256.616 210.672L247.758 199.472L252.391 196.655L259.755 208.763Z" fill="#EEC197"/>
<path d="M261.857 211.97L252.204 217.841L252.13 217.719C251.524 216.722 251.339 215.526 251.615 214.393C251.891 213.26 252.606 212.283 253.602 211.677L253.602 211.676L254.552 209.266L258.655 208.603L259.498 208.091L261.857 211.97Z" fill="#2F2E41"/>
<path d="M210.672 17.5559H0.371077C0.272661 17.5559 0.178276 17.5168 0.108686 17.4472C0.0390952 17.3776 0 17.2832 0 17.1848C0 17.0864 0.0390952 16.992 0.108686 16.9224C0.178276 16.8528 0.272661 16.8137 0.371077 16.8137H210.672C210.77 16.8137 210.865 16.8528 210.934 16.9224C211.004 16.992 211.043 17.0864 211.043 17.1848C211.043 17.2832 211.004 17.3776 210.934 17.4472C210.865 17.5168 210.77 17.5559 210.672 17.5559Z" fill="#E6E6E6"/>
<path d="M167.228 68.0802H42.9883C41.9703 68.0802 40.994 68.4846 40.2741 69.2045C39.5543 69.9243 39.1499 70.9006 39.1499 71.9186C39.1499 72.9366 39.5543 73.913 40.2741 74.6328C40.994 75.3526 41.9703 75.757 42.9883 75.757H167.228C167.732 75.757 168.231 75.6578 168.697 75.4649C169.163 75.272 169.586 74.9892 169.942 74.6328C170.299 74.2764 170.581 73.8532 170.774 73.3875C170.967 72.9218 171.066 72.4227 171.066 71.9186C171.066 71.4146 170.967 70.9154 170.774 70.4497C170.581 69.984 170.299 69.5609 169.942 69.2045C169.586 68.848 169.163 68.5653 168.697 68.3724C168.231 68.1795 167.732 68.0802 167.228 68.0802V68.0802Z" fill="#012E40"/>
<path d="M126.409 46.5577H87.8887C86.8707 46.5577 85.8944 46.9621 85.1745 47.682C84.4547 48.4018 84.0503 49.3781 84.0503 50.3962C84.0503 51.4142 84.4547 52.3905 85.1745 53.1103C85.8944 53.8302 86.8707 54.2346 87.8887 54.2346H126.409C127.428 54.2346 128.404 53.8302 129.124 53.1103C129.844 52.3905 130.248 51.4142 130.248 50.3962C130.248 49.3781 129.844 48.4018 129.124 47.682C128.404 46.9621 127.428 46.5577 126.409 46.5577Z" fill="#012E40"/>
<path d="M10.8929 6.41598C12.626 6.41598 14.031 4.97971 14.031 3.20799C14.031 1.43627 12.626 0 10.8929 0C9.15984 0 7.75488 1.43627 7.75488 3.20799C7.75488 4.97971 9.15984 6.41598 10.8929 6.41598Z" fill="#E6E6E6"/>
<path d="M21.7333 6.41598C23.4664 6.41598 24.8713 4.97971 24.8713 3.20799C24.8713 1.43627 23.4664 0 21.7333 0C20.0002 0 18.5952 1.43627 18.5952 3.20799C18.5952 4.97971 20.0002 6.41598 21.7333 6.41598Z" fill="#E6E6E6"/>
<path d="M32.5741 6.41598C34.3072 6.41598 35.7121 4.97971 35.7121 3.20799C35.7121 1.43627 34.3072 0 32.5741 0C30.841 0 29.436 1.43627 29.436 3.20799C29.436 4.97971 30.841 6.41598 32.5741 6.41598Z" fill="#E6E6E6"/>
<path d="M44.9353 5.74342C44.8859 5.74349 44.8369 5.73364 44.7914 5.71447C44.7458 5.6953 44.7045 5.66719 44.67 5.63181L42.5526 3.46731C42.4848 3.398 42.4468 3.30485 42.4468 3.20785C42.4468 3.11085 42.4848 3.0177 42.5526 2.94838L44.67 0.78407C44.7391 0.714834 44.8327 0.675659 44.9305 0.675056C45.0282 0.674453 45.1223 0.712469 45.1922 0.780848C45.2621 0.849227 45.3022 0.94244 45.3038 1.04022C45.3053 1.13799 45.2682 1.23243 45.2005 1.303L43.337 3.20785L45.2005 5.11288C45.2516 5.1651 45.2861 5.23123 45.2998 5.30298C45.3134 5.37473 45.3056 5.44891 45.2773 5.51624C45.249 5.58356 45.2014 5.64104 45.1406 5.68145C45.0797 5.72186 45.0083 5.74342 44.9353 5.74342V5.74342Z" fill="#E6E6E6"/>
<path d="M48.4932 5.74348C48.4202 5.74347 48.3488 5.72191 48.2879 5.6815C48.2271 5.64109 48.1795 5.58362 48.1512 5.51629C48.1229 5.44897 48.1151 5.37478 48.1287 5.30303C48.1424 5.23127 48.1769 5.16515 48.228 5.11294L50.0913 3.2079L48.228 1.30305C48.1933 1.26833 48.1659 1.2271 48.1473 1.18172C48.1288 1.13635 48.1193 1.08774 48.1196 1.03871C48.1199 0.989673 48.13 0.941188 48.1491 0.896049C48.1683 0.850909 48.1962 0.810015 48.2312 0.775727C48.2663 0.741439 48.3078 0.714434 48.3533 0.696281C48.3989 0.678129 48.4476 0.669188 48.4966 0.669969C48.5456 0.67075 48.594 0.68124 48.639 0.700834C48.6839 0.720427 48.7246 0.748732 48.7585 0.784119L50.8757 2.94844C50.9436 3.01776 50.9816 3.1109 50.9816 3.2079C50.9816 3.30491 50.9436 3.39805 50.8757 3.46737L48.7585 5.63186C48.724 5.66724 48.6827 5.69536 48.6372 5.71453C48.5916 5.7337 48.5427 5.74354 48.4932 5.74348V5.74348Z" fill="#E6E6E6"/>
<path d="M191.918 0.37146H187.981C187.874 0.371428 187.769 0.392429 187.67 0.433257C187.571 0.474086 187.482 0.533945 187.406 0.609414C187.331 0.684883 187.271 0.77448 187.23 0.873091C187.189 0.971702 187.168 1.07739 187.168 1.18412V5.12496C187.168 5.23169 187.189 5.33738 187.23 5.43599C187.271 5.5346 187.331 5.6242 187.406 5.69967C187.482 5.77514 187.571 5.835 187.67 5.87583C187.769 5.91666 187.874 5.93765 187.981 5.93762H191.918C192.134 5.93783 192.341 5.85239 192.494 5.70005C192.647 5.54771 192.734 5.34089 192.735 5.12496V1.18412C192.734 0.968186 192.647 0.761371 192.494 0.609029C192.341 0.456687 192.134 0.371253 191.918 0.37146V0.37146Z" fill="#E6E6E6"/>
<path d="M182.27 0.37146H178.333C178.226 0.371428 178.121 0.392429 178.022 0.433257C177.924 0.474086 177.834 0.533945 177.758 0.609414C177.683 0.684883 177.623 0.77448 177.582 0.873091C177.541 0.971702 177.52 1.07739 177.521 1.18412V5.12496C177.52 5.23169 177.541 5.33738 177.582 5.43599C177.623 5.5346 177.683 5.6242 177.758 5.69967C177.834 5.77514 177.924 5.835 178.022 5.87583C178.121 5.91666 178.226 5.93765 178.333 5.93762H182.27C182.486 5.93783 182.693 5.85239 182.846 5.70005C183 5.54771 183.086 5.34089 183.087 5.12496V1.18412C183.086 0.968186 183 0.761371 182.846 0.609029C182.693 0.456687 182.486 0.371253 182.27 0.37146V0.37146Z" fill="#E6E6E6"/>
<path d="M201.01 0.556885H197.072C196.966 0.556853 196.86 0.577854 196.761 0.618682C196.663 0.659511 196.573 0.71937 196.498 0.794839C196.422 0.870307 196.362 0.959905 196.322 1.05852C196.281 1.15713 196.26 1.26282 196.26 1.36955V5.31038C196.26 5.41711 196.281 5.5228 196.322 5.62141C196.362 5.72002 196.422 5.80963 196.498 5.8851C196.573 5.96056 196.663 6.02042 196.761 6.06125C196.86 6.10208 196.966 6.12308 197.072 6.12304H201.01C201.225 6.12325 201.433 6.03782 201.586 5.88547C201.739 5.73313 201.825 5.52632 201.826 5.31038V1.36955C201.825 1.15361 201.739 0.946795 201.586 0.794454C201.433 0.642112 201.225 0.556677 201.01 0.556885V0.556885Z" fill="#E6E6E6"/>
<path d="M121.257 2.05615H89.7857C89.5229 2.05615 89.2709 2.16054 89.0851 2.34635C88.8993 2.53215 88.7949 2.78416 88.7949 3.04693C88.7949 3.3097 88.8993 3.56171 89.0851 3.74752C89.2709 3.93332 89.5229 4.0377 89.7857 4.0377H121.257C121.52 4.0377 121.772 3.93332 121.957 3.74752C122.143 3.56171 122.248 3.3097 122.248 3.04693C122.248 2.78416 122.143 2.53215 121.957 2.34635C121.772 2.16054 121.52 2.05615 121.257 2.05615V2.05615Z" fill="#E6E6E6"/>
<path d="M98.1761 96.2242H67.0056C65.4802 96.2242 64.0172 96.8302 62.9385 97.9089C61.8599 98.9875 61.2539 100.45 61.2539 101.976C61.2539 103.501 61.8599 104.964 62.9385 106.043C64.0172 107.122 65.4802 107.728 67.0056 107.728H98.1761C99.7015 107.728 101.165 107.122 102.243 106.043C103.322 104.964 103.928 103.501 103.928 101.976C103.928 100.45 103.322 98.9875 102.243 97.9089C101.165 96.8302 99.7015 96.2242 98.1761 96.2242V96.2242Z" fill="#3CA6A6"/>
<path d="M150.498 96.2242H119.327C117.802 96.2242 116.339 96.8302 115.26 97.9089C114.182 98.9875 113.576 100.45 113.576 101.976C113.576 103.501 114.182 104.964 115.26 106.043C116.339 107.122 117.802 107.728 119.327 107.728H150.498C152.023 107.728 153.486 107.122 154.565 106.043C155.644 104.964 156.25 103.501 156.25 101.976C156.25 100.45 155.644 98.9875 154.565 97.9089C153.486 96.8302 152.023 96.2242 150.498 96.2242V96.2242Z" fill="white"/>
<path d="M150.498 108.099H119.327C117.704 108.099 116.146 107.454 114.998 106.305C113.85 105.157 113.205 103.6 113.205 101.976C113.205 100.352 113.85 98.7947 114.998 97.6465C116.146 96.4982 117.704 95.8531 119.327 95.8531H150.498C152.122 95.8531 153.679 96.4982 154.827 97.6465C155.976 98.7947 156.621 100.352 156.621 101.976C156.621 103.6 155.976 105.157 154.827 106.305C153.679 107.454 152.122 108.099 150.498 108.099V108.099ZM119.327 96.5953C117.9 96.5953 116.532 97.1622 115.523 98.1712C114.514 99.1803 113.947 100.549 113.947 101.976C113.947 103.403 114.514 104.772 115.523 105.781C116.532 106.79 117.9 107.357 119.327 107.357H150.498C151.925 107.357 153.293 106.79 154.303 105.781C155.312 104.772 155.878 103.403 155.878 101.976C155.878 100.549 155.312 99.1803 154.303 98.1712C153.293 97.1622 151.925 96.5953 150.498 96.5953H119.327Z" fill="#3CA6A6"/>
<path d="M210.672 135.284H0.371077C0.272661 135.284 0.178276 135.245 0.108686 135.175C0.0390952 135.105 0 135.011 0 134.913C0 134.814 0.0390952 134.72 0.108686 134.65C0.178276 134.581 0.272661 134.542 0.371077 134.542H210.672C210.77 134.542 210.865 134.581 210.934 134.65C211.004 134.72 211.043 134.814 211.043 134.913C211.043 135.011 211.004 135.105 210.934 135.175C210.865 135.245 210.77 135.284 210.672 135.284Z" fill="#E6E6E6"/>
<path d="M8.9056 71.7332C10.955 71.7332 12.6164 70.0718 12.6164 68.0224C12.6164 65.973 10.955 64.3116 8.9056 64.3116C6.85619 64.3116 5.19482 65.973 5.19482 68.0224C5.19482 70.0718 6.85619 71.7332 8.9056 71.7332Z" fill="#E6E6E6"/>
<path d="M187.765 45.7577C189.814 45.7577 191.476 44.0964 191.476 42.047C191.476 39.9976 189.814 38.3362 187.765 38.3362C185.716 38.3362 184.054 39.9976 184.054 42.047C184.054 44.0964 185.716 45.7577 187.765 45.7577Z" fill="#E6E6E6"/>
<path d="M43.7869 122.571C45.8363 122.571 47.4977 120.909 47.4977 118.86C47.4977 116.811 45.8363 115.149 43.7869 115.149C41.7375 115.149 40.0762 116.811 40.0762 118.86C40.0762 120.909 41.7375 122.571 43.7869 122.571Z" fill="#E6E6E6"/>
<path d="M8.92303 86.0138C13.0444 82.4078 18.2098 80.2126 23.6663 79.7484C27.7988 79.4339 31.9453 80.1377 35.7426 81.798C39.54 83.4583 42.8722 86.0245 45.4474 89.2717C45.8859 89.8285 45.1034 90.6216 44.6602 90.0589C41.5213 86.0873 37.2318 83.1828 32.3787 81.7428C28.4788 80.6208 24.3597 80.4959 20.3991 81.3797C16.4385 82.2634 12.7631 84.1275 9.71021 86.801C9.17428 87.2727 8.38395 86.4882 8.92304 86.0138H8.92303Z" fill="#012E40"/>
<path d="M51.3356 84.8621L54.6169 93.8361C54.6391 93.9187 54.6421 94.0053 54.6255 94.0892C54.609 94.1732 54.5735 94.2522 54.5216 94.3202C54.4698 94.3883 54.4031 94.4435 54.3265 94.4818C54.25 94.52 54.1657 94.5401 54.0802 94.5407L43.5823 93.7925C42.8718 93.7418 42.8663 92.6282 43.5823 92.6792L54.0802 93.4275L53.5435 94.1321L50.2622 85.1581C50.0158 84.4842 51.0912 84.1937 51.3356 84.8621V84.8621Z" fill="#012E40"/>
<path d="M267.176 132.961C267.176 132.961 270.213 138.995 269.031 141.867C267.849 144.738 270 166.982 268.773 167.969C267.547 168.955 266.757 168.166 268.451 169.859C270.144 171.553 270.886 169.698 270.515 172.295C270.144 174.893 267.918 207.918 267.918 207.918L262.836 208.045C262.836 208.045 256.414 191.962 257.528 180.83L251.171 150.172C251.171 150.172 250.255 155.635 250.18 156.914C250.106 158.194 249.364 158.565 248.993 158.565C247.136 158.565 247.707 158.235 247.979 160.07C248.251 161.905 244.926 176.592 244.926 176.592L256.043 202.352L252.332 206.063L233.103 177.936L229.417 149.341C229.417 149.341 228.395 146.472 229.417 146.396C230.439 146.32 231.017 146.644 230.728 145.554C230.439 144.464 236.376 126.281 236.376 126.281L267.176 132.961Z" fill="#2F2E41"/>
<path d="M269.031 133.703C268.174 135.688 265.254 133.87 258.641 134.445C257.877 134.512 257.123 134.545 256.374 134.553C251.939 134.601 247.794 133.759 244.44 133.51C242.024 133.328 240.017 133.454 238.603 134.445C234.892 137.043 233.423 129.005 233.423 129.005C233.264 126.88 233.779 124.759 234.892 122.942C236.747 119.973 238.647 112.919 236.005 110.325C233.363 107.731 233.081 103.65 234.15 102.533C235.219 101.416 238.729 79.0805 238.232 75.444C237.838 72.5755 242.269 71.6553 244.154 71.3955C244.659 71.325 244.982 71.3027 244.982 71.3027L249.364 72.1043L255.672 73.2175L260.752 73.314C260.752 73.314 260.823 73.3474 260.956 73.4067C263.268 74.5001 265.474 75.803 267.547 77.2993C270.545 79.5592 268.33 113.29 268.33 113.29C268.33 113.29 267.918 123.335 270.144 125.539C272.371 127.744 269.888 131.718 269.031 133.703Z" fill="#012E40"/>
<path d="M247.137 73.5199L238.603 73.891C238.603 73.891 227.099 96.8978 228.583 98.3821C230.068 99.8664 231.584 99.0238 229.713 100.929C227.841 102.835 225.986 102.093 227.099 103.577C228.212 105.061 229.697 103.391 228.212 105.525C226.728 107.659 227.795 124.797 227.795 124.797H233.665C233.665 124.797 237.814 110.4 237.466 108.658C237.118 106.917 237.072 105.428 237.466 104.874C237.86 104.319 247.137 73.5199 247.137 73.5199Z" fill="#012E40"/>
<path d="M252.397 65.9627C257.122 65.9627 260.952 62.1323 260.952 57.4072C260.952 52.6822 257.122 48.8518 252.397 48.8518C247.672 48.8518 243.841 52.6822 243.841 57.4072C243.841 62.1323 247.672 65.9627 252.397 65.9627Z" fill="#EEC197"/>
<path d="M259.064 64.7755L255.672 65.4249C255.672 65.4249 258.826 60.3337 258.641 58.0034C258.455 55.673 255.917 54.8381 255.917 54.8381C255.917 54.8381 254.511 55.1424 253.03 55.3131C252.853 54.8138 252.623 54.3348 252.343 53.8844C252.289 54.4659 252.031 55.0096 251.616 55.4207C251.074 55.4673 250.527 55.4042 250.009 55.2351C249.423 54.968 249.434 54.5041 249.627 54.0699C247.716 54.2276 245.851 54.7398 244.128 55.5802C244.043 54.441 244.086 53.2958 244.258 52.1663C244.339 52.144 244.421 52.1181 244.503 52.0921C245.008 51.9321 245.496 51.7194 245.957 51.4576C245.444 51.3894 244.964 51.1638 244.584 50.8119C244.896 49.899 245.393 49.1086 246.176 48.7227C246.932 48.3533 247.758 48.1505 248.598 48.1281C249.439 48.1057 250.274 48.2642 251.048 48.5928C251.048 48.5928 249.234 47.2681 249.902 46.7263C249.946 46.7708 249.991 46.8117 250.039 46.8525C250.102 46.9044 250.173 46.9601 250.239 47.0121C250.651 47.346 251.267 46.8748 251.349 46.3701C251.358 46.3064 251.37 46.2432 251.386 46.1809C251.397 46.1289 251.412 46.077 251.427 46.0287C251.44 45.9859 251.454 45.9438 251.471 45.9026C252.707 45.6057 256.444 46.8117 257.88 49.4686C257.88 49.4686 267.918 54.2926 259.064 64.7755Z" fill="#012E40"/>
<path d="M258.443 138.244C258.353 137.624 258.509 136.994 258.877 136.487C259.245 135.98 259.796 135.637 260.413 135.53C260.539 135.51 260.666 135.501 260.794 135.502L267.282 120.434L271.734 123.776L263.067 138.051C263.021 138.578 262.801 139.076 262.442 139.466C262.084 139.855 261.606 140.115 261.084 140.205C260.787 140.253 260.483 140.242 260.189 140.173C259.896 140.104 259.619 139.977 259.375 139.801C259.131 139.625 258.923 139.402 258.765 139.145C258.607 138.889 258.5 138.604 258.452 138.307C258.449 138.286 258.446 138.265 258.443 138.244Z" fill="#EEC197"/>
<path d="M259.197 77.2307L267.732 77.6018C267.732 77.6018 280.349 99.1243 278.864 100.609C277.38 102.093 275.864 101.25 277.735 103.156C279.606 105.062 281.462 104.319 280.349 105.804C279.235 107.288 277.751 105.618 279.235 107.752C280.72 109.885 268.66 129.992 268.66 129.992L263.465 127.395C263.465 127.395 268.52 114.111 268.868 112.369C269.216 110.628 269.262 109.139 268.868 108.585C268.474 108.03 259.197 77.2307 259.197 77.2307Z" fill="#012E40"/>
<path d="M260.956 73.4067L248.993 101.048L244.154 71.3955C244.658 71.325 244.981 71.3027 244.981 71.3027L247.041 67.3025L258.837 67.9148L260.752 73.314C260.752 73.314 260.823 73.3473 260.956 73.4067Z" fill="#3CA6A6"/>
<path d="M256.373 134.924C251.939 134.972 247.794 134.13 244.439 133.881L248.622 112.923L256.373 134.924Z" fill="#3CA6A6"/>
<path d="M205.126 218.036C205.126 218.094 205.138 218.152 205.16 218.205C205.182 218.259 205.214 218.308 205.255 218.349C205.296 218.39 205.345 218.422 205.399 218.444C205.453 218.467 205.51 218.478 205.568 218.478H299.558C299.675 218.478 299.788 218.431 299.87 218.348C299.953 218.266 300 218.153 300 218.036C300 217.919 299.953 217.807 299.87 217.724C299.788 217.641 299.675 217.594 299.558 217.594H205.568C205.51 217.594 205.453 217.606 205.399 217.628C205.345 217.65 205.296 217.682 205.255 217.723C205.214 217.764 205.182 217.813 205.16 217.867C205.138 217.921 205.126 217.978 205.126 218.036V218.036Z" fill="#CCCCCC"/>
<path d="M41.1925 29.8323L44.5806 27.4599L54.3153 41.3625L51.4542 46.5164L41.1925 29.8323Z" fill="#CCCCCC"/>
<path d="M58.2666 27.5999L61.764 29.7592L54.4308 40.986L51.7279 37.0886L58.2666 27.5999Z" fill="#CCCCCC"/>
<path d="M56.7737 25.6455L62.1262 29.2585L61.7425 29.8066L55.1857 25.6621L56.7737 25.6455Z" fill="#CCCCCC"/>
<path d="M40.8501 29.3314L46.1115 25.6473L47.6736 25.6648L41.2339 29.8795L40.8501 29.3314Z" fill="#CCCCCC"/>
</g>
<defs>
<clipPath id="clip0_20_36">
<rect width="300" height="218.478" fill="white"/>
</clipPath>
</defs>
</svg>
